SplineFontDB: 3.2
FontName: Dreluhu-Future
FullName: Dreluhu Future
FamilyName: Dreluhu Future
Weight: Book
Copyright: Copyright (c) 2019, Jack Humbert
UComments: "2019-8-23: Created with FontForge (http://fontforge.org)"
Version: 0.3
DefaultBaseFilename: future
StrokeWidth: 66
ItalicAngle: 0
UnderlinePosition: -400
UnderlineWidth: 50
Ascent: 1200
Descent: 300
InvalidEm: 0
sfntRevision: 0x00004ccd
LayerCount: 2
Layer: 0 0 "Back" 1
Layer: 1 0 "Fore" 0
XUID: [1021 647 -312734098 29385]
StyleMap: 0x0040
FSType: 0
OS2Version: 3
OS2_WeightWidthSlopeOnly: 0
OS2_UseTypoMetrics: 0
CreationTime: 1566577596
ModificationTime: 1568261151
PfmFamily: 17
TTFWeight: 400
TTFWidth: 5
LineGap: 135
VLineGap: 135
Panose: 2 1 6 0 3 1 1 1 1 1
OS2TypoAscent: 0
OS2TypoAOffset: 1
OS2TypoDescent: 0
OS2TypoDOffset: 1
OS2TypoLinegap: 135
OS2WinAscent: 0
OS2WinAOffset: 1
OS2WinDescent: 0
OS2WinDOffset: 1
HheadAscent: 0
HheadAOffset: 1
HheadDescent: 0
HheadDOffset: 1
OS2Vendor: 'OLKB'
OS2CodePages: 00020000.00000000
Lookup: 6 0 0 "semivowels" { "semivowels contextual 0"  "semivowels contextual 1"  } ['liga' ('latn' <'dflt' > 'DFLT' <'dflt' > ) ]
Lookup: 1 0 0 "Single Substitution lookup 1" { "Single Substitution lookup 1 subtable"  } []
Lookup: 1 0 0 "Single Substitution lookup 2" { "Single Substitution lookup 2 subtable"  } []
Lookup: 4 0 1 "diphthongs" { "diphthongs subtable"  } ['liga' ('latn' <'dflt' > 'DFLT' <'dflt' > ) ]

StartChar: ny
Encoding: 0 60256 0
Width: 900
VWidth: 3741
GlyphClass: 2
Flags: HW
HStem: 505 74<199.076 699.924> 815 71<193 706> 1110 75<199.076 699.924>
VStem: 105 88<584.026 815 886 1104.54> 706 88<584.026 815 886 1104.54>
AnchorPoint: "Above" 0 500 basechar 0
LayerCount: 2
Back
SplineSet
150 1150 m 1
 750 1150 l 1
 750 550 l 1
 150 550 l 1
 150 1150 l 1
150 850 m 1
 750 850 l 1025
EndSplineSet
Fore
SplineSet
646 579 m 0
 686 579 706 601.333007812 706 646 c 2
 706 815 l 1
 194 815 l 1
 194 646 l 2
 194 601.333007812 214 579 254 579 c 0
 646 579 l 0
706 886 m 1
 706 1044 l 2
 706 1088 686 1110 646 1110 c 0
 254 1110 l 0
 214 1110 194 1088 194 1044 c 2
 194 886 l 1
 706 886 l 1
661 1185 m 2
 701.666992188 1185 733.833007812 1174.16699219 757.5 1152.5 c 0
 781.166992188 1130.83300781 793.333007812 1101.66699219 794 1065 c 2
 794 625 l 2
 793.333007812 588.333007812 781.166992188 559.166992188 757.5 537.5 c 0
 733.833007812 515.833007812 701.666992188 505 661 505 c 2
 239 505 l 2
 198.333007812 505 166.166992188 515.833007812 142.5 537.5 c 0
 118.833007812 559.166992188 106.666992188 588.333007812 106 625 c 2
 106 1065 l 2
 106.666992188 1101.66699219 118.833007812 1130.83300781 142.5 1152.5 c 0
 166.166992188 1174.16699219 198.333007812 1185 239 1185 c 2
 661 1185 l 2
EndSplineSet
Substitution2: "Single Substitution lookup 82 subtable" ny.cvc.3
Substitution2: "Single Substitution lookup 71 subtable" ny.cvc.1
Substitution2: "Single Substitution lookup 64 subtable" ny.ccv.2
Substitution2: "Single Substitution lookup 60 subtable" ny.cvc.3
Substitution2: "Single Substitution lookup 56 subtable" ny.cvc.1
Substitution2: "Single Substitution lookup 54 subtable" ny.ccv.1
Substitution2: "Single Substitution lookup 31 subtable" ny.ccv.2
Substitution2: "Single Substitution lookup 18 subtable" ny.ccv.2
EndChar

StartChar: dy
Encoding: 1 60257 1
Width: 900
VWidth: 3741
Flags: HW
HStem: 500 99.9999<200 799.917> 800 100<200 500> 1100 100<200 800>
VStem: 100 100<599.083 800 900 1100>
AnchorPoint: "Above" 0 500 basechar 0
LayerCount: 2
Back
SplineSet
450 850 m 1
 150 850 l 1025
750 1150 m 1
 150 1150 l 1
 150 549 l 1
 750 550 l 1025
EndSplineSet
Fore
SplineSet
800 1150 m 1
 800 1100 l 1
 750 1100 l 1
 200 1100 l 1
 200 900 l 1
 450 900 l 1
 500 900 l 1
 500 850 l 1
 500 800 l 1
 450 800 l 1
 200 800 l 1
 200 599.083402778 l 1
 749.916666782 599.999930556 l 1
 799.916597338 600.083263773 l 1
 799.999930556 550.083333218 l 1
 800.083263773 500.083402662 l 1
 750.083333218 500.000069444 l 1
 150.083333218 499.000069444 l 2
 128.469380553 498.96404619 100 518.761867305 100 549 c 2
 100 800 l 1
 100 850 l 1
 100 900 l 1
 100 1150 l 2
 100 1171.45980867 119.734924289 1200 150 1200 c 2
 750 1200 l 1
 800 1200 l 1
 800 1150 l 1
EndSplineSet
Substitution2: "Single Substitution lookup 82 subtable" dy.cvc.3
Substitution2: "Single Substitution lookup 71 subtable" dy.cvc.1
Substitution2: "Single Substitution lookup 64 subtable" dy.ccv.2
Substitution2: "Single Substitution lookup 60 subtable" dy.cvc.3
Substitution2: "Single Substitution lookup 56 subtable" dy.cvc.1
Substitution2: "Single Substitution lookup 54 subtable" dy.ccv.1
Substitution2: "Single Substitution lookup 36 subtable" dy.ccv.2
Substitution2: "Single Substitution lookup 23 subtable" dy.ccv.2
EndChar

StartChar: ty
Encoding: 2 60258 2
Width: 900
VWidth: 3741
Flags: HW
HStem: 498.917 99.9999<100.083 700> 800 100<400 700> 1100 100<100 700>
VStem: 700 100<599.917 800 900 1100>
AnchorPoint: "Above" 0 500 basechar 0
LayerCount: 2
Back
SplineSet
450 850 m 1
 750 850 l 1025
150 1150 m 1
 750 1150 l 1
 750 550 l 1
 150 549 l 1025
EndSplineSet
Fore
SplineSet
100 1150 m 1
 100 1200 l 1
 150 1200 l 1
 750 1200 l 2
 780.265075711 1200 800 1171.45980867 800 1150 c 2
 800 900 l 1
 800 850 l 1
 800 800 l 1
 800 550 l 2
 800 521.565725809 774.979018186 500.041562253 750.083333218 500.000069444 c 2
 150.083333218 499.000069444 l 1
 100.083402662 498.916736227 l 1
 100.000069444 548.916666782 l 1
 99.9167362267 598.916597338 l 1
 149.916666782 598.999930556 l 1
 700 599.916736111 l 1
 700 800 l 1
 450 800 l 1
 400 800 l 1
 400 850 l 1
 400 900 l 1
 450 900 l 1
 700 900 l 1
 700 1100 l 1
 150 1100 l 1
 100 1100 l 1
 100 1150 l 1
EndSplineSet
Substitution2: "Single Substitution lookup 82 subtable" ty.cvc.3
Substitution2: "Single Substitution lookup 71 subtable" ty.cvc.1
Substitution2: "Single Substitution lookup 64 subtable" ty.ccv.2
Substitution2: "Single Substitution lookup 60 subtable" ty.cvc.3
Substitution2: "Single Substitution lookup 56 subtable" ty.cvc.1
Substitution2: "Single Substitution lookup 54 subtable" ty.ccv.1
Substitution2: "Single Substitution lookup 28 subtable" ty.ccv.2
Substitution2: "Single Substitution lookup 15 subtable" ty.ccv.2
EndChar

StartChar: zy
Encoding: 3 60259 3
Width: 900
VWidth: 3741
Flags: HW
HStem: 500 100<200 605.49> 800 100<200 639.738> 1180 20G<100 200>
VStem: 100 100<600 800 900 1200>
AnchorPoint: "Above" 0 500 basechar 0
LayerCount: 2
Back
SplineSet
150 850 m 13
 742 850 l 1053
150 1150 m 29
 150 550 l 13
 750 550 l 29
 750 1150 l 1053
EndSplineSet
Fore
SplineSet
150 1200 m 1
 200 1200 l 1
 200 1150 l 1
 200 900 l 1
 700 900 l 1
 700 1150 l 1
 700 1200 l 1
 750 1200 l 1
 800 1200 l 1
 800 1150 l 1
 800 550 l 2
 800 528.540191335 780.265075711 500 750 500 c 2
 150 500 l 2
 128.540191335 500 100 519.734924289 100 550 c 2
 100 800 l 1
 100 850 l 1
 100 900 l 1
 100 1150 l 1
 100 1200 l 1
 150 1200 l 1
200 800 m 1
 200 600 l 1
 700 600 l 1
 700 800 l 1
 200 800 l 1
EndSplineSet
Substitution2: "Single Substitution lookup 82 subtable" zy.cvc.3
Substitution2: "Single Substitution lookup 71 subtable" zy.cvc.1
Substitution2: "Single Substitution lookup 64 subtable" zy.ccv.2
Substitution2: "Single Substitution lookup 60 subtable" zy.cvc.3
Substitution2: "Single Substitution lookup 56 subtable" zy.cvc.1
Substitution2: "Single Substitution lookup 54 subtable" zy.ccv.1
Substitution2: "Single Substitution lookup 46 subtable" zy.ccv.2
EndChar

StartChar: sy
Encoding: 4 60260 4
Width: 900
VWidth: 3741
Flags: W
HStem: 500 21G<100 200 700 800> 800 100<200 700> 1100 100<200 700>
VStem: 100 100<500 800 900 1100> 700 100<500 800 900 1100>
AnchorPoint: "Above" 0 500 basechar 0
LayerCount: 2
Back
SplineSet
746 850 m 13
 163 850 l 1053
750 550 m 5
 750 1150 l 13
 150 1150 l 29
 150 550 l 1053
EndSplineSet
Fore
SplineSet
750 500 m 1
 700 500 l 1
 700 550 l 1
 700 800 l 1
 200 800 l 1
 200 550 l 1
 200 500 l 1
 150 500 l 1
 100 500 l 1
 100 550 l 1
 100 1150 l 2
 100 1171.45980867 119.734924289 1200 150 1200 c 2
 750 1200 l 2
 771.459808665 1200 800 1180.26507571 800 1150 c 2
 800 550 l 1
 800 500 l 1
 750 500 l 1
700 900 m 1
 700 1100 l 1
 200 1100 l 1
 200 900 l 1
 700 900 l 1
EndSplineSet
Substitution2: "Single Substitution lookup 82 subtable" sy.cvc.3
Substitution2: "Single Substitution lookup 71 subtable" sy.cvc.1
Substitution2: "Single Substitution lookup 64 subtable" sy.ccv.2
Substitution2: "Single Substitution lookup 60 subtable" sy.cvc.3
Substitution2: "Single Substitution lookup 56 subtable" sy.cvc.1
Substitution2: "Single Substitution lookup 54 subtable" sy.ccv.1
Substitution2: "Single Substitution lookup 41 subtable" sy.ccv.2
EndChar

StartChar: gy
Encoding: 5 60261 5
Width: 900
VWidth: 3741
Flags: HW
AnchorPoint: "Above" 0 500 basechar 0
LayerCount: 2
Back
SplineSet
750 1150 m 1
 150 850 l 1
 750 550 l 1025
EndSplineSet
Fore
SplineSet
794.72135955 1172.36067977 m 1
 817.082039325 1127.63932023 l 1
 772.360679775 1105.27864045 l 1
 261.803398875 850 l 1
 772.360679775 594.72135955 l 1
 817.082039325 572.360679775 l 1
 794.72135955 527.639320225 l 1
 772.360679775 482.917960675 l 1
 727.639320225 505.27864045 l 1
 127.639320225 805.27864045 l 2
 121.821159529 808.187720798 112.090373899 816.033053031 107.170848165 824.199539673 c 0
 92.3403267685 848.818428043 101.932760292 881.868079584 127.639320225 894.72135955 c 2
 727.639320225 1194.72135955 l 1
 772.360679775 1217.08203932 l 1
 794.72135955 1172.36067977 l 1
EndSplineSet
Substitution2: "Single Substitution lookup 82 subtable" gy.cvc.3
Substitution2: "Single Substitution lookup 71 subtable" gy.cvc.1
Substitution2: "Single Substitution lookup 64 subtable" gy.ccv.2
Substitution2: "Single Substitution lookup 60 subtable" gy.cvc.3
Substitution2: "Single Substitution lookup 56 subtable" gy.cvc.1
Substitution2: "Single Substitution lookup 54 subtable" gy.ccv.1
Substitution2: "Single Substitution lookup 37 subtable" gy.ccv.2
Substitution2: "Single Substitution lookup 24 subtable" gy.ccv.2
EndChar

StartChar: jy
Encoding: 6 60262 6
Width: 900
VWidth: 3741
Flags: HW
HStem: 500 21G<400 500> 800 100<101.5 374.198 526.322 800> 1100 100<100 271.4 629.16 798.5>
VStem: 400 100<500 798.15>
AnchorPoint: "Above" 0 500 basechar 0
LayerCount: 2
Back
SplineSet
151.5 850 m 1
 750 850 l 1025
450 655 m 1
 450 550 l 1025
150 1150 m 0
 351 1150 451 985 450 655 c 1
 449 818 473.75 941.25 524.25 1024.75 c 0
 574.75 1108.25 649.5 1150 748.5 1150 c 1024
EndSplineSet
Fore
SplineSet
100 1150 m 1
 100 1200 l 1
 150 1200 l 2
 291.316043938 1200 396.344062909 1123.57484907 450.261225254 987.570968077 c 1
 459.336303948 1010.05854351 469.798972449 1031.33423935 481.466039054 1050.62532967 c 0
 540.359021289 1148.00283495 633.86452017 1200 748.5 1200 c 2
 798.5 1200 l 1
 798.5 1150 l 1
 798.5 1100 l 1
 748.5 1100 l 2
 665.13547983 1100 609.140978711 1068.49716505 567.033960946 998.874670326 c 0
 550.821430276 972.067812683 537.057761205 939.176683562 526.321685775 900 c 1
 750 900 l 1
 800 900 l 1
 800 850 l 1
 800 800 l 1
 750 800 l 1
 507.375300675 800 l 1
 502.794949992 761.674840607 500.298914889 719.428905918 500 673.497873056 c 2
 500 664.808713249 l 2
 500.009838941 661.525250019 500 658.22696047 500 654.924822144 c 2
 500 550 l 1
 500 500 l 1
 450 500 l 1
 400 500 l 1
 400 550 l 1
 400 654.84798416 l 2
 399.971532487 659.570956997 399.964745999 664.544072502 399.978485168 669.344661604 c 0
 399.660985435 716.900724763 397.117458851 760.592374165 392.466745773 800 c 1
 151.5 800 l 1
 101.5 800 l 1
 101.5 850 l 1
 101.5 900 l 1
 151.5 900 l 1
 374.197704889 900 l 1
 336.856681214 1043.80865884 262.491606497 1100 150 1100 c 2
 100 1100 l 1
 100 1150 l 1
EndSplineSet
Substitution2: "Single Substitution lookup 82 subtable" jy.cvc.3
Substitution2: "Single Substitution lookup 71 subtable" jy.cvc.1
Substitution2: "Single Substitution lookup 64 subtable" jy.ccv.2
Substitution2: "Single Substitution lookup 60 subtable" jy.cvc.3
Substitution2: "Single Substitution lookup 56 subtable" jy.cvc.1
Substitution2: "Single Substitution lookup 54 subtable" jy.ccv.1
Substitution2: "Single Substitution lookup 44 subtable" jy.ccv.2
EndChar

StartChar: xy
Encoding: 7 60263 7
Width: 900
VWidth: 3741
Flags: HW
HStem: 1179 20G<400 500>
VStem: 400 100<761.8 1199>
AnchorPoint: "Above" 0 500 basechar 0
LayerCount: 2
Back
SplineSet
450 933 m 5
 450 1149 l 1029
748.5 549 m 4
 666.913085938 579.217773438 610.436523438 605.811523438 579.0703125 628.78125 c 4
 493.0234375 691.795898438 450 793.202148438 450 933 c 5
 450 878 444 829.5 432 787.5 c 4
 420 745.5 405.5 711.75 388.5 686.25 c 4
 371.5 660.75 348.5 638.5 319.5 619.5 c 4
 290.5 600.5 264.25 586.5 240.75 577.5 c 4
 217.25 568.5 187 559 150 549 c 1028
EndSplineSet
Fore
SplineSet
500 933 m 2
 500 803.165711837 538.41442146 720.528660706 608.612151413 669.120805694 c 0
 632.351117607 651.736571321 686.292316292 625.359456262 765.865918857 595.887363567 c 2
 812.753282424 578.52144471 l 1
 778.02144471 484.746717576 l 1
 731.134081143 502.112636433 l 2
 647.533855584 533.076090614 588.521929269 559.886475555 549.528473587 588.441694306 c 0
 509.347636466 617.867298955 476.143215386 656.146629468 452.609613405 698.812085395 c 1
 445.244837842 683.219199334 438.473819532 671.071947411 430.102514717 658.514990189 c 0
 408.967434729 626.812370206 380.717472747 599.832358616 346.901312866 577.676943521 c 0
 315.755363481 557.270976683 286.669990111 541.544976927 258.63236333 530.807162415 c 0
 232.753393425 520.896067558 201.136015977 511.02657757 163.045451257 500.731830349 c 2
 114.777281606 487.686379091 l 1
 88.6863790914 584.222718394 l 1
 136.954548743 597.268169651 l 2
 172.863984023 606.97342243 201.746606575 616.103932442 222.86763667 624.192837585 c 0
 241.830009889 631.455023073 265.244636519 643.729023317 292.098687134 661.323056479 c 0
 316.282527253 677.167641384 334.032565271 694.687629794 346.897485283 713.985009811 c 0
 359.902255412 733.492165005 372.888818533 762.613612096 383.923802618 801.236056395 c 0
 394.338620788 837.687919989 400 881.612298637 400 933 c 2
 400 1149 l 1
 400 1199 l 1
 450 1199 l 1
 500 1199 l 1
 500 1149 l 1
 500 933 l 2
EndSplineSet
Substitution2: "Single Substitution lookup 82 subtable" xy.cvc.3
Substitution2: "Single Substitution lookup 71 subtable" xy.cvc.1
Substitution2: "Single Substitution lookup 64 subtable" xy.ccv.2
Substitution2: "Single Substitution lookup 60 subtable" xy.cvc.3
Substitution2: "Single Substitution lookup 56 subtable" xy.cvc.1
Substitution2: "Single Substitution lookup 54 subtable" xy.ccv.1
EndChar

StartChar: iy
Encoding: 8 60264 8
Width: 900
VWidth: 3741
Flags: HWO
HStem: 500 21G<100 200> 1100 100<200 800>
VStem: 100 100<500 1100>
AnchorPoint: "Above" 0 500 basechar 0
LayerCount: 2
Back
SplineSet
750 550 m 21
 491.965219456 685.368765904 290.707352772 883.967925316 150 1150 c 1037
150 550 m 29
 150 1150 l 29
 750 1150 l 1053
EndSplineSet
Fore
SplineSet
794.276919502 526.771689699 m 1
 771.048609201 482.494770197 l 1
 726.771689699 505.723080498 l 2
 460.211563931 645.564365415 251.008730073 852.082932253 105.801459506 1126.62289543 c 1
 194.198540494 1173.37710457 l 1
 330.40597547 915.852918378 523.71887498 725.173166393 773.228310301 594.276919502 c 2
 817.505229803 571.048609201 l 1
 794.276919502 526.771689699 l 1
150 500 m 1
 100 500 l 1
 100 550 l 1
 100 1150 l 2
 100 1180.26507571 128.540191335 1200 150 1200 c 2
 750 1200 l 1
 800 1200 l 1
 800 1150 l 1
 800 1100 l 1
 750 1100 l 1
 200 1100 l 1
 200 550 l 1
 200 500 l 1
 150 500 l 1
EndSplineSet
Substitution2: "Single Substitution lookup 82 subtable" iy.cvc.3
Substitution2: "Single Substitution lookup 71 subtable" iy.cvc.1
Substitution2: "Single Substitution lookup 64 subtable" iy.ccv.2
Substitution2: "Single Substitution lookup 60 subtable" iy.cvc.3
Substitution2: "Single Substitution lookup 56 subtable" iy.cvc.1
Substitution2: "Single Substitution lookup 54 subtable" iy.ccv.1
EndChar

StartChar: ry
Encoding: 9 60265 9
Width: 900
VWidth: 3741
Flags: HW
AnchorPoint: "Above" 0 500 basechar 0
LayerCount: 2
Back
SplineSet
150 550 m 25
 748.5 1150 l 1025
150 1150 m 25
 748.5 550 l 1025
EndSplineSet
Fore
SplineSet
114.688938082 1185.39956082 m 1
 150.088498902 1220.71062274 l 1
 185.39956082 1185.31106192 l 1
 449.25 920.799343441 l 1
 713.10043918 1185.31106192 l 1
 748.411501098 1220.71062274 l 1
 783.811061918 1185.39956082 l 1
 819.210622738 1150.0884989 l 1
 783.89956082 1114.68893808 l 1
 519.872345083 850 l 1
 783.89956082 585.311061918 l 1
 819.210622738 549.911501098 l 1
 783.811061918 514.60043918 l 1
 748.411501098 479.289377262 l 1
 713.10043918 514.688938082 l 1
 449.25 779.200656559 l 1
 185.39956082 514.688938082 l 1
 150.088498902 479.289377262 l 1
 114.688938082 514.60043918 l 1
 79.2893772624 549.911501098 l 1
 114.60043918 585.311061918 l 1
 378.627654917 850 l 1
 114.60043918 1114.68893808 l 1
 79.2893772624 1150.0884989 l 1
 114.688938082 1185.39956082 l 1
EndSplineSet
Substitution2: "Single Substitution lookup 82 subtable" ry.cvc.3
Substitution2: "Single Substitution lookup 71 subtable" ry.cvc.1
Substitution2: "Single Substitution lookup 64 subtable" ry.ccv.2
Substitution2: "Single Substitution lookup 60 subtable" ry.cvc.3
Substitution2: "Single Substitution lookup 56 subtable" ry.cvc.1
Substitution2: "Single Substitution lookup 54 subtable" ry.ccv.1
Substitution2: "Single Substitution lookup 52 subtable" ry.ccv.2
Substitution2: "Single Substitution lookup 50 subtable" ry.ccv.2
Substitution2: "Single Substitution lookup 48 subtable" ry.ccv.2
Substitution2: "Single Substitution lookup 45 subtable" ry.ccv.2
Substitution2: "Single Substitution lookup 43 subtable" ry.ccv.2
Substitution2: "Single Substitution lookup 40 subtable" ry.ccv.2
Substitution2: "Single Substitution lookup 33 subtable" ry.ccv.2
Substitution2: "Single Substitution lookup 20 subtable" ry.ccv.2
Substitution2: "Single Substitution lookup 12 subtable" ry.ccv.2
Substitution2: "Single Substitution lookup 10 subtable" ry.ccv.2
Substitution2: "Single Substitution lookup 8 subtable" ry.ccv.2
Substitution2: "Single Substitution lookup 6 subtable" ry.ccv.2
EndChar

StartChar: my
Encoding: 16 60272 16
Width: 900
VWidth: 3741
Flags: HW
HStem: 500 100<200 698.5> 1100 100<200 698.5>
VStem: 100 100<600 1100> 698.5 100<600 1100>
AnchorPoint: "Above" 0 500 basechar 0
LayerCount: 2
Back
SplineSet
150 1150 m 25
 748.5 1150 l 1
 748.5 550 l 1
 150 550 l 1
 150 1150 l 25
EndSplineSet
Fore
SplineSet
150 1200 m 2
 748.5 1200 l 2
 778.765075711 1200 798.5 1171.45980867 798.5 1150 c 2
 798.5 550 l 2
 798.5 519.734924289 769.959808665 500 748.5 500 c 2
 150 500 l 2
 119.734924289 500 100 528.540191335 100 550 c 2
 100 1150 l 2
 100 1180.26507571 128.540191335 1200 150 1200 c 2
200 1100 m 1
 200 600 l 1
 698.5 600 l 1
 698.5 1100 l 1
 200 1100 l 1
EndSplineSet
Substitution2: "Single Substitution lookup 82 subtable" my.cvc.3
Substitution2: "Single Substitution lookup 71 subtable" my.cvc.1
Substitution2: "Single Substitution lookup 64 subtable" my.ccv.2
Substitution2: "Single Substitution lookup 60 subtable" my.cvc.3
Substitution2: "Single Substitution lookup 56 subtable" my.cvc.1
Substitution2: "Single Substitution lookup 54 subtable" my.ccv.1
Substitution2: "Single Substitution lookup 38 subtable" my.ccv.2
Substitution2: "Single Substitution lookup 30 subtable" my.ccv.2
Substitution2: "Single Substitution lookup 25 subtable" my.ccv.2
Substitution2: "Single Substitution lookup 17 subtable" my.ccv.2
EndChar

StartChar: by
Encoding: 17 60273 17
Width: 900
VWidth: 3741
Flags: HW
HStem: 500 100<200 798.5> 1100 100<200 798.5>
VStem: 100 100<600 1100>
AnchorPoint: "Above" 0 500 basechar 0
LayerCount: 2
Back
SplineSet
748.5 1150 m 25
 150 1150 l 1
 150 550 l 1
 748.5 550 l 1025
EndSplineSet
Fore
SplineSet
798.5 1150 m 1
 798.5 1100 l 1
 748.5 1100 l 1
 200 1100 l 1
 200 600 l 1
 748.5 600 l 1
 798.5 600 l 1
 798.5 550 l 1
 798.5 500 l 1
 748.5 500 l 1
 150 500 l 2
 128.540191335 500 100 519.734924289 100 550 c 2
 100 1150 l 2
 100 1171.45980867 119.734924289 1200 150 1200 c 2
 748.5 1200 l 1
 798.5 1200 l 1
 798.5 1150 l 1
EndSplineSet
Substitution2: "Single Substitution lookup 82 subtable" by.cvc.3
Substitution2: "Single Substitution lookup 71 subtable" by.cvc.1
Substitution2: "Single Substitution lookup 64 subtable" by.ccv.2
Substitution2: "Single Substitution lookup 60 subtable" by.cvc.3
Substitution2: "Single Substitution lookup 56 subtable" by.cvc.1
Substitution2: "Single Substitution lookup 54 subtable" by.ccv.1
Substitution2: "Single Substitution lookup 34 subtable" by.ccv.2
Substitution2: "Single Substitution lookup 21 subtable" by.ccv.2
EndChar

StartChar: py
Encoding: 18 60274 18
Width: 900
VWidth: 3741
Flags: HW
HStem: 500 100<100 698.5> 1100 100<100 698.5>
VStem: 698.5 100<600 1100>
AnchorPoint: "Above" 0 500 basechar 0
LayerCount: 2
Back
SplineSet
150 1150 m 25
 748.5 1150 l 1
 748.5 550 l 1
 150 550 l 1025
EndSplineSet
Fore
SplineSet
100 1150 m 1
 100 1200 l 1
 150 1200 l 1
 748.5 1200 l 2
 778.765075711 1200 798.5 1171.45980867 798.5 1150 c 2
 798.5 550 l 2
 798.5 519.734924289 769.959808665 500 748.5 500 c 2
 150 500 l 1
 100 500 l 1
 100 550 l 1
 100 600 l 1
 150 600 l 1
 698.5 600 l 1
 698.5 1100 l 1
 150 1100 l 1
 100 1100 l 1
 100 1150 l 1
EndSplineSet
Substitution2: "Single Substitution lookup 82 subtable" py.cvc.3
Substitution2: "Single Substitution lookup 71 subtable" py.cvc.1
Substitution2: "Single Substitution lookup 64 subtable" py.ccv.2
Substitution2: "Single Substitution lookup 60 subtable" py.cvc.3
Substitution2: "Single Substitution lookup 56 subtable" py.cvc.1
Substitution2: "Single Substitution lookup 54 subtable" py.ccv.1
Substitution2: "Single Substitution lookup 26 subtable" py.ccv.2
Substitution2: "Single Substitution lookup 13 subtable" py.ccv.2
EndChar

StartChar: vy
Encoding: 19 60275 19
Width: 900
VWidth: 3741
Flags: W
HStem: 500 100<200 700> 1180 20G<100 200 700 800>
VStem: 100 100<600 1200> 700 100<600 1200>
AnchorPoint: "Above" 0 500 basechar 0
LayerCount: 2
Back
SplineSet
150 1150 m 29
 150 550 l 13
 750 550 l 29
 750 1150 l 1053
EndSplineSet
Fore
SplineSet
150 1200 m 1
 200 1200 l 1
 200 1150 l 1
 200 600 l 1
 700 600 l 1
 700 1150 l 1
 700 1200 l 1
 750 1200 l 1
 800 1200 l 1
 800 1150 l 1
 800 550 l 2
 800 528.540191335 780.265075711 500 750 500 c 2
 150 500 l 2
 128.540191335 500 100 519.734924289 100 550 c 2
 100 1150 l 1
 100 1200 l 1
 150 1200 l 1
EndSplineSet
Substitution2: "Single Substitution lookup 82 subtable" vy.cvc.3
Substitution2: "Single Substitution lookup 71 subtable" vy.cvc.1
Substitution2: "Single Substitution lookup 64 subtable" vy.ccv.2
Substitution2: "Single Substitution lookup 60 subtable" vy.cvc.3
Substitution2: "Single Substitution lookup 56 subtable" vy.cvc.1
Substitution2: "Single Substitution lookup 54 subtable" vy.ccv.1
Substitution2: "Single Substitution lookup 35 subtable" vy.ccv.2
Substitution2: "Single Substitution lookup 22 subtable" vy.ccv.2
EndChar

StartChar: fy
Encoding: 20 60276 20
Width: 900
VWidth: 3741
Flags: W
HStem: 500 21G<100 200 700 800> 1100 100<200 700>
VStem: 100 100<500 1100> 700 100<500 1100>
AnchorPoint: "Above" 0 500 basechar 0
LayerCount: 2
Back
SplineSet
750 550 m 5
 750 1150 l 13
 150 1150 l 29
 150 550 l 1053
EndSplineSet
Fore
SplineSet
750 500 m 1
 700 500 l 1
 700 550 l 1
 700 1100 l 1
 200 1100 l 1
 200 550 l 1
 200 500 l 1
 150 500 l 1
 100 500 l 1
 100 550 l 1
 100 1150 l 2
 100 1171.45980867 119.734924289 1200 150 1200 c 2
 750 1200 l 2
 771.459808665 1200 800 1180.26507571 800 1150 c 2
 800 550 l 1
 800 500 l 1
 750 500 l 1
EndSplineSet
Substitution2: "Single Substitution lookup 82 subtable" fy.cvc.3
Substitution2: "Single Substitution lookup 71 subtable" fy.cvc.1
Substitution2: "Single Substitution lookup 64 subtable" fy.ccv.2
Substitution2: "Single Substitution lookup 60 subtable" fy.cvc.3
Substitution2: "Single Substitution lookup 56 subtable" fy.cvc.1
Substitution2: "Single Substitution lookup 54 subtable" fy.ccv.1
Substitution2: "Single Substitution lookup 27 subtable" fy.ccv.2
Substitution2: "Single Substitution lookup 14 subtable" fy.ccv.2
EndChar

StartChar: ky
Encoding: 21 60277 21
Width: 900
VWidth: 3741
Flags: HW
AnchorPoint: "Above" 0 500 basechar 0
LayerCount: 2
Back
SplineSet
157 550 m 1
 750 850 l 1
 150 1150 l 1025
EndSplineSet
Fore
SplineSet
112.384468404 527.428904758 m 1
 89.813373162 572.044436353 l 1
 134.428904758 594.615531596 l 1
 638.720793671 849.737903727 l 1
 127.639320225 1105.27864045 l 1
 82.917960675 1127.63932023 l 1
 105.27864045 1172.36067977 l 1
 127.639320225 1217.08203932 l 1
 172.360679775 1194.72135955 l 1
 772.360679775 894.72135955 l 2
 780.590729506 890.606334685 787.838410951 883.998623371 792.707141512 876.001924234 c 0
 807.653467617 851.453169369 798.216823557 818.35869858 772.571095242 805.384468404 c 2
 179.571095242 505.384468404 l 1
 134.955563647 482.813373162 l 1
 112.384468404 527.428904758 l 1
EndSplineSet
Substitution2: "Single Substitution lookup 82 subtable" ky.cvc.3
Substitution2: "Single Substitution lookup 71 subtable" ky.cvc.1
Substitution2: "Single Substitution lookup 64 subtable" ky.ccv.2
Substitution2: "Single Substitution lookup 60 subtable" ky.cvc.3
Substitution2: "Single Substitution lookup 56 subtable" ky.cvc.1
Substitution2: "Single Substitution lookup 54 subtable" ky.ccv.1
Substitution2: "Single Substitution lookup 29 subtable" ky.ccv.2
Substitution2: "Single Substitution lookup 16 subtable" ky.ccv.2
EndChar

StartChar: cy
Encoding: 22 60278 22
Width: 900
VWidth: 3741
Flags: HW
HStem: 499 100<100 269.34 627.1 798.5> 799 100<100 372.178 524.302 798.5> 1179 20G<398.5 498.5>
VStem: 398.5 100<900.85 1199>
AnchorPoint: "Above" 0 500 basechar 0
LayerCount: 2
Back
SplineSet
748.5 849 m 5
 150 849 l 1029
448.5 1044 m 5
 448.5 1149 l 1029
748.5 549 m 4
 547.5 549 447.5 714 448.5 1044 c 5
 449.5 881 424.75 757.75 374.25 674.25 c 4
 323.75 590.75 249 549 150 549 c 1028
EndSplineSet
Fore
SplineSet
798.5 549 m 1
 798.5 499 l 1
 748.5 499 l 2
 607.183956062 499 502.155937091 575.425150931 448.238774746 711.429031923 c 1
 439.163696052 688.941456491 428.701027551 667.665760652 417.033960946 648.374670326 c 0
 358.140978711 550.997165046 264.63547983 499 150 499 c 2
 100 499 l 1
 100 549 l 1
 100 599 l 1
 150 599 l 2
 233.36452017 599 289.359021289 630.502834954 331.466039054 700.125329674 c 0
 347.678569724 726.932187317 361.442238795 759.823316438 372.178314225 799 c 1
 150 799 l 1
 100 799 l 1
 100 849 l 1
 100 899 l 1
 150 899 l 1
 391.124699325 899 l 1
 395.705050008 937.325159393 398.201085111 979.571094082 398.5 1025.50212694 c 2
 398.5 1034.19128675 l 2
 398.490161059 1037.47474998 398.5 1040.77303953 398.5 1044.07517786 c 2
 398.5 1149 l 1
 398.5 1199 l 1
 448.5 1199 l 1
 498.5 1199 l 1
 498.5 1149 l 1
 498.5 1044.15201584 l 2
 498.528467513 1039.429043 498.535254001 1034.4559275 498.521514832 1029.6553384 c 0
 498.839014565 982.099275237 501.382541149 938.407625835 506.033254227 899 c 1
 748.5 899 l 1
 798.5 899 l 1
 798.5 849 l 1
 798.5 799 l 1
 748.5 799 l 1
 524.302295111 799 l 1
 561.643318786 655.191341158 636.008393503 599 748.5 599 c 2
 798.5 599 l 1
 798.5 549 l 1
EndSplineSet
Substitution2: "Single Substitution lookup 82 subtable" cy.cvc.3
Substitution2: "Single Substitution lookup 71 subtable" cy.cvc.1
Substitution2: "Single Substitution lookup 64 subtable" cy.ccv.2
Substitution2: "Single Substitution lookup 60 subtable" cy.cvc.3
Substitution2: "Single Substitution lookup 56 subtable" cy.cvc.1
Substitution2: "Single Substitution lookup 54 subtable" cy.ccv.1
Substitution2: "Single Substitution lookup 39 subtable" cy.ccv.2
EndChar

StartChar: yhy
Encoding: 23 60279 23
Width: 900
VWidth: 3741
Flags: HW
HStem: 500 21G<700 800> 1180 20G<100 200>
VStem: 100 100<669.853 1200> 700 100<500 1029.15>
AnchorPoint: "Above" 0 500 basechar 0
LayerCount: 2
Back
SplineSet
150 1150 m 1
 150 549 l 1
 750 1150 l 1
 750 550 l 1025
EndSplineSet
Fore
SplineSet
150 1200 m 1
 200 1200 l 1
 200 1150 l 1
 200 669.852961549 l 1
 714.615234956 1185.32588856 l 2
 734.921126384 1205.66562314 769.309285636 1204.34321961 787.993181761 1182.50412496 c 0
 796.160788941 1172.95723255 800 1155.77535523 800 1150 c 2
 800 550 l 1
 800 500 l 1
 750 500 l 1
 700 500 l 1
 700 550 l 1
 700 1029.14703845 l 1
 185.384765044 513.674111437 l 2
 178.934909652 507.213506286 166.036600877 500.107473358 153.922854272 499.154125403 c 0
 125.270640305 496.899205394 100 520.259192262 100 549 c 2
 100 1150 l 1
 100 1200 l 1
 150 1200 l 1
EndSplineSet
Substitution2: "Single Substitution lookup 82 subtable" yhy.cvc.3
Substitution2: "Single Substitution lookup 71 subtable" yhy.cvc.1
Substitution2: "Single Substitution lookup 64 subtable" yhy.ccv.2
Substitution2: "Single Substitution lookup 60 subtable" yhy.cvc.3
Substitution2: "Single Substitution lookup 56 subtable" yhy.cvc.1
Substitution2: "Single Substitution lookup 54 subtable" yhy.ccv.1
EndChar

StartChar: uy
Encoding: 24 60280 24
Width: 900
VWidth: 3741
Flags: HW
HStem: 500 21G<700 800> 1100 100<100 700>
VStem: 700 100<500 1100>
AnchorPoint: "Above" 0 500 basechar 0
LayerCount: 2
Back
SplineSet
750 550 m 1
 750 1150 l 1
 150 1150 l 1025
EndSplineSet
Fore
SplineSet
750 500 m 1
 700 500 l 1
 700 550 l 1
 700 1100 l 1
 150 1100 l 1
 100 1100 l 1
 100 1150 l 1
 100 1200 l 1
 150 1200 l 1
 750 1200 l 2
 771.459808665 1200 800 1180.26507571 800 1150 c 2
 800 550 l 1
 800 500 l 1
 750 500 l 1
EndSplineSet
Substitution2: "Single Substitution lookup 82 subtable" uy.cvc.3
Substitution2: "Single Substitution lookup 71 subtable" uy.cvc.1
Substitution2: "Single Substitution lookup 64 subtable" uy.ccv.2
Substitution2: "Single Substitution lookup 60 subtable" uy.cvc.3
Substitution2: "Single Substitution lookup 56 subtable" uy.cvc.1
Substitution2: "Single Substitution lookup 54 subtable" uy.ccv.1
EndChar

StartChar: ly
Encoding: 25 60281 25
Width: 900
VWidth: 3741
Flags: HW
HStem: 500 100<200 800> 800 100<200 700> 1100 100<100 700>
VStem: 100 100<600 800> 700 100<900 1100>
CounterMasks: 1 e0
AnchorPoint: "Above" 0 500 basechar 0
LayerCount: 2
Back
SplineSet
150 1150 m 5
 750 1150 l 5
 750 850 l 5
 150 850 l 5
 150 550 l 5
 750 550 l 1029
EndSplineSet
Fore
SplineSet
100 1150 m 1
 100 1200 l 1
 150 1200 l 1
 750 1200 l 2
 780.265075711 1200 800 1171.45980867 800 1150 c 2
 800 850 l 2
 800 819.734924289 771.459808665 800 750 800 c 2
 200 800 l 1
 200 600 l 1
 750 600 l 1
 800 600 l 1
 800 550 l 1
 800 500 l 1
 750 500 l 1
 150 500 l 2
 128.540191335 500 100 519.734924289 100 550 c 2
 100 850 l 2
 100 871.459808665 119.734924289 900 150 900 c 2
 700 900 l 1
 700 1100 l 1
 150 1100 l 1
 100 1100 l 1
 100 1150 l 1
EndSplineSet
Substitution2: "Single Substitution lookup 82 subtable" ly.cvc.3
Substitution2: "Single Substitution lookup 71 subtable" ly.cvc.1
Substitution2: "Single Substitution lookup 64 subtable" ly.ccv.2
Substitution2: "Single Substitution lookup 60 subtable" ly.cvc.3
Substitution2: "Single Substitution lookup 56 subtable" ly.cvc.1
Substitution2: "Single Substitution lookup 54 subtable" ly.ccv.1
Substitution2: "Single Substitution lookup 51 subtable" ly.ccv.2
Substitution2: "Single Substitution lookup 49 subtable" ly.ccv.2
Substitution2: "Single Substitution lookup 47 subtable" ly.ccv.2
Substitution2: "Single Substitution lookup 42 subtable" ly.ccv.2
Substitution2: "Single Substitution lookup 32 subtable" ly.ccv.2
Substitution2: "Single Substitution lookup 19 subtable" ly.ccv.2
Substitution2: "Single Substitution lookup 11 subtable" ly.ccv.2
Substitution2: "Single Substitution lookup 9 subtable" ly.ccv.2
Substitution2: "Single Substitution lookup 7 subtable" ly.ccv.2
Substitution2: "Single Substitution lookup 5 subtable" ly.ccv.2
EndChar

StartChar: denpabu
Encoding: 31 60287 31
Width: 900
VWidth: 445
Flags: HW
HStem: 490 100<326.006 573.994> 1110 100<326.006 573.994>
VStem: 90 100<726.006 973.994> 710 100<726.006 973.994>
AnchorPoint: "Above" 0 500 basechar 0
LayerCount: 2
Back
SplineSet
140 850 m 4
 140 1021.53333333 278.466666667 1160 450 1160 c 4
 621.533333333 1160 760 1021.53333333 760 850 c 4
 760 678.466666667 621.533333333 540 450 540 c 4
 278.466666667 540 140 678.466666667 140 850 c 4
EndSplineSet
Fore
SplineSet
90 850 m 0
 90 1049.10303532 250.895445548 1210 450 1210 c 0
 649.103035326 1210 810 1049.10455445 810 850 c 0
 810 650.896964675 649.104554452 490 450 490 c 0
 250.896964675 490 90 650.895445548 90 850 c 0
190 850 m 0
 190 706.037887786 306.036368659 590 450 590 c 0
 593.962112214 590 710 706.036368659 710 850 c 0
 710 993.962112211 593.96363134 1110 450 1110 c 0
 306.037887786 1110 190 993.963631338 190 850 c 0
EndSplineSet
Substitution2: "Single Substitution lookup 77 subtable" denpabu.cvc.1
Substitution2: "Single Substitution lookup 75 subtable" denpabu.cvc.3
Substitution2: "Single Substitution lookup 66 subtable" denpabu.ccv.1
EndChar

StartChar: ebu.cv
Encoding: 42 -1 32
Width: 0
VWidth: 345
Flags: W
HStem: 1.11022e-14 100<200 800> 380 20G<100 200>
VStem: 100 100<-200 1.42109e-14 100 400>
AnchorPoint: "Above" 0 500 mark 0
LayerCount: 2
Back
SplineSet
150 350 m 1
 150 -150 l 1029
750 50 m 1
 150 50 l 1025
EndSplineSet
Fore
SplineSet
800 50 m 1
 800 0 l 1
 750 0 l 1
 200 1.11022302463e-14 l 1
 200 -150 l 1
 200 -200 l 1
 150 -200 l 1
 100 -200 l 1
 100 -150 l 1
 100 0 l 1
 100 50 l 1
 100 100 l 1
 100 350 l 1
 100 400 l 1
 150 400 l 1
 200 400 l 1
 200 350 l 1
 200 100 l 1
 750 100 l 1
 800 100 l 1
 800 50 l 1
EndSplineSet
Substitution2: "Single Substitution lookup 73 subtable" ebu.cvc
Substitution2: "Single Substitution lookup 69 subtable" ebu.ccv
EndChar

StartChar: obu.cv
Encoding: 43 -1 33
Width: 0
VWidth: 345
Flags: W
HStem: 0 100<98 700> 380 20G<700 800>
VStem: 700 100<-200 0 100 400>
AnchorPoint: "Above" 0 500 mark 0
LayerCount: 2
Back
SplineSet
148 50 m 1
 748 50 l 1025
750 350 m 1
 750 -150 l 1029
EndSplineSet
Fore
SplineSet
750 400 m 1
 800 400 l 1
 800 350 l 1
 800 -150 l 1
 800 -200 l 1
 750 -200 l 1
 700 -200 l 1
 700 -150 l 1
 700 -2.77555756156e-15 l 1
 148 0 l 1
 98 0 l 1
 98 50 l 1
 98 100 l 1
 148 100 l 1
 700 100 l 1
 700 350 l 1
 700 400 l 1
 750 400 l 1
EndSplineSet
Substitution2: "Single Substitution lookup 73 subtable" obu.cvc
Substitution2: "Single Substitution lookup 69 subtable" obu.ccv
EndChar

StartChar: ibu.cv
Encoding: 44 -1 34
Width: 900
VWidth: 3741
Flags: HW
HStem: 300 100<200 800>
VStem: 100 100<-200 300>
AnchorPoint: "Above" 0 500 mark 0
LayerCount: 2
Back
SplineSet
750 350 m 25
 150 350 l 1
 150 -150 l 1029
EndSplineSet
Fore
SplineSet
106 -202 m 2
 106 268 l 2
 106 304.666992188 118.833007812 333.833007812 142.5 355.5 c 0
 166.166992188 377.166992188 198.950031211 388 239 388 c 3
 471.665127945 388 566.813054521 386.000135943 803 381 c 1
 800.080078125 313 l 1
 254 313 l 0
 214 313 194 291 194 247 c 2
 194 89 l 1
 194 18 l 1
 194 -191 l 2
 106 -202 l 2
800.080078125 313 m 1025
EndSplineSet
Substitution2: "Single Substitution lookup 73 subtable" ibu.cvc
Substitution2: "Single Substitution lookup 69 subtable" ibu.ccv
EndChar

StartChar: ny.cvc.1
Encoding: 32 -1 35
Width: 900
VWidth: 3741
Flags: HW
HStem: 500 100<199.987 499.987> 800 100<199.994 499.991 599.994 600> 1100 100<199.999 499.999>
VStem: 99.9854 100.001<600 800 900 1100> 499.987 99.9988<600 800 900 1100>
AnchorPoint: "Above" 0 500 basechar 0
LayerCount: 2
Back
SplineSet
150 1150 m 1
 550 1150 l 1
 549.985351562 550 l 1
 149.985351562 550 l 1
 150 1150 l 1
150 850 m 1
 550 850 l 1025
EndSplineSet
Fore
SplineSet
446 579 m 0
 486 579 506 601.333007812 506 646 c 2
 506 815 l 1
 194 815 l 1
 194 646 l 2
 194 601.333007812 214 579 254 579 c 0
 446 579 l 0
506 886 m 1
 506 1044 l 2
 506 1088 486 1110 446 1110 c 0
 254 1110 l 0
 214 1110 194 1088 194 1044 c 2
 194 886 l 1
 506 886 l 1
461 1185 m 2
 501.666992188 1185 533.833007812 1174.16699219 557.5 1152.5 c 0
 581.166992188 1130.83300781 593.333007812 1101.66699219 594 1065 c 2
 594 625 l 2
 593.333007812 588.333007812 581.166992188 559.166992188 557.5 537.5 c 0
 533.833007812 515.833007812 501.666992188 505 461 505 c 2
 239 505 l 2
 198.333007812 505 166.166992188 515.833007812 142.5 537.5 c 0
 118.833007812 559.166992188 106.666992188 588.333007812 106 625 c 2
 106 1065 l 2
 106.666992188 1101.66699219 118.833007812 1130.83300781 142.5 1152.5 c 0
 166.166992188 1174.16699219 198.333007812 1185 239 1185 c 2
 461 1185 l 2
EndSplineSet
EndChar

StartChar: ebu.ccv
Encoding: 106 -1 38
Width: 0
VWidth: 345
Flags: W
HStem: 1.11022e-14 100<400 1000> 380 20G<300 400>
VStem: 300 100<-200 1.42109e-14 100 400>
AnchorPoint: "Above" 0 500 mark 0
LayerCount: 2
Back
SplineSet
350 350 m 1
 350 -150 l 1029
350 50 m 1
 950 50 l 1025
EndSplineSet
Fore
SplineSet
350 400 m 1
 400 400 l 1
 400 350 l 1
 400 100 l 1
 950 100 l 1
 1000 100 l 1
 1000 50 l 1
 1000 0 l 1
 950 0 l 1
 400 1.11022302463e-14 l 1
 400 -150 l 1
 400 -200 l 1
 350 -200 l 1
 300 -200 l 1
 300 -150 l 1
 300 0 l 1
 300 50 l 1
 300 100 l 1
 300 350 l 1
 300 400 l 1
 350 400 l 1
EndSplineSet
EndChar

StartChar: dy.cvc.1
Encoding: 33 -1 40
Width: 1300
VWidth: 345
Flags: HW
HStem: 500 100<200 600> 800 100<200 400> 1100 100<200 600>
VStem: 100 100<600 800 900 1100>
CounterMasks: 1 e0
AnchorPoint: "Above" 0 500 basechar 0
LayerCount: 2
Back
SplineSet
350 850 m 25
 150 850 l 1049
550 1150 m 25
 150 1150 l 25
 150 550 l 25
 550 550 l 1049
EndSplineSet
Fore
SplineSet
600 1150 m 1
 600 1100 l 1
 550 1100 l 1
 200 1100 l 1
 200 900 l 1
 350 900 l 1
 400 900 l 1
 400 850 l 1
 400 800 l 1
 350 800 l 1
 200 800 l 1
 200 600 l 1
 550 600 l 1
 600 600 l 1
 600 550 l 1
 600 500 l 1
 550 500 l 1
 150 500 l 2
 128.540191335 500 100 519.734924289 100 550 c 2
 100 800 l 1
 100 850 l 1
 100 900 l 1
 100 1150 l 2
 100 1171.45980867 119.734924289 1200 150 1200 c 2
 550 1200 l 1
 600 1200 l 1
 600 1150 l 1
EndSplineSet
EndChar

StartChar: ty.cvc.1
Encoding: 34 -1 41
Width: 1300
VWidth: 345
Flags: HW
HStem: 500 100<100 500> 800 100<300 500> 1100 100<100 500>
VStem: 500 100<600 800 900 1100>
CounterMasks: 1 e0
AnchorPoint: "Above" 0 500 basechar 0
LayerCount: 2
Back
SplineSet
350 850 m 25
 550 850 l 1049
150 1150 m 25
 550 1150 l 25
 550 550 l 25
 150 550 l 1049
EndSplineSet
Fore
SplineSet
100 1150 m 1
 100 1200 l 1
 150 1200 l 1
 550 1200 l 2
 580.265075711 1200 600 1171.45980867 600 1150 c 2
 600 900 l 1
 600 850 l 1
 600 800 l 1
 600 550 l 2
 600 519.734924289 571.459808665 500 550 500 c 2
 150 500 l 1
 100 500 l 1
 100 550 l 1
 100 600 l 1
 150 600 l 1
 500 600 l 1
 500 800 l 1
 350 800 l 1
 300 800 l 1
 300 850 l 1
 300 900 l 1
 350 900 l 1
 500 900 l 1
 500 1100 l 1
 150 1100 l 1
 100 1100 l 1
 100 1150 l 1
EndSplineSet
EndChar

StartChar: zy.cvc.1
Encoding: 35 -1 42
Width: 1300
VWidth: 345
Flags: HW
HStem: 500 100<200 500> 800.876 100<200 500> 1180 20G<100 200 500 600>
VStem: 100 100<600 800.876 900.876 1200> 500 100<600 800.102 900.102 1200>
AnchorPoint: "Above" 0 500 basechar 0
LayerCount: 2
Back
SplineSet
539.5 850 m 25
 152 851 l 1025
150 1150 m 1
 150 550 l 1
 550 550 l 1
 550 1150 l 1049
EndSplineSet
Fore
SplineSet
150 1200 m 1
 200 1200 l 1
 200 1150 l 1
 200 900.876295525 l 1
 500 900.102101977 l 1
 500 1150 l 1
 500 1200 l 1
 550 1200 l 1
 600 1200 l 1
 600 1150 l 1
 600 550 l 2
 600 528.540191335 580.265075711 500 550 500 c 2
 150 500 l 2
 128.540191335 500 100 519.734924289 100 550 c 2
 100 1150 l 1
 100 1200 l 1
 150 1200 l 1
200 800.875962539 m 1
 200 600 l 1
 500 600 l 1
 500 800.101768991 l 1
 200 800.875962539 l 1
EndSplineSet
EndChar

StartChar: sy.cvc.1
Encoding: 36 -1 43
Width: 1300
VWidth: 345
Flags: HW
HStem: 500 21G<100 200 500.5 600.5> 800 100<200 500.5> 1100 100<200 500.5>
VStem: 100 100<500 800 900 1100> 500.5 100<500 800 900 1100>
AnchorPoint: "Above" 0 500 basechar 0
LayerCount: 2
Back
SplineSet
159 850 m 5
 550.5 850 l 1029
550.5 550 m 5
 550.5 1150 l 5
 150 1150 l 5
 150 550 l 1029
EndSplineSet
Fore
SplineSet
550.5 500 m 1
 500.5 500 l 1
 500.5 550 l 1
 500.5 800 l 1
 200 800 l 1
 200 550 l 1
 200 500 l 1
 150 500 l 1
 100 500 l 1
 100 550 l 1
 100 1150 l 2
 100 1171.45980867 119.734924289 1200 150 1200 c 2
 550.5 1200 l 2
 571.959808665 1200 600.5 1180.26507571 600.5 1150 c 2
 600.5 900 l 1
 600.5 850 l 1
 600.5 800 l 1
 600.5 550 l 1
 600.5 500 l 1
 550.5 500 l 1
500.5 900 m 1
 500.5 1100 l 1
 200 1100 l 1
 200 900 l 1
 500.5 900 l 1
EndSplineSet
EndChar

StartChar: gy.cvc.1
Encoding: 37 -1 44
Width: 1300
VWidth: 345
Flags: HW
AnchorPoint: "Above" 0 500 basechar 0
LayerCount: 2
Back
SplineSet
550 1150 m 25
 150 850 l 25
 550 550 l 1049
EndSplineSet
Fore
SplineSet
590 1180 m 1
 620 1140 l 1
 580 1110 l 1
 233.333333333 850 l 1
 580 590 l 1
 620 560 l 1
 590 520 l 1
 560 480 l 1
 520 510 l 1
 120 810 l 2
 119.667257824 810.249556632 114.60529664 814.53755963 112.477012886 816.954191824 c 0
 93.4817484986 838.523010993 97.0073538093 872.755515357 120 890 c 2
 520 1190 l 1
 560 1220 l 1
 590 1180 l 1
EndSplineSet
EndChar

StartChar: jy.cvc.1
Encoding: 38 -1 45
Width: 1300
VWidth: 345
Flags: HW
HStem: 500 21G<300 400> 801 100<100 287.854 404.403 600> 1100 100<100 230.05 462.834 600>
VStem: 300 100<500 801>
AnchorPoint: "Above" 0 500 basechar 0
LayerCount: 2
Back
SplineSet
150 851 m 5
 550 851 l 1029
350 550 m 1029
150 1150 m 4
 351 1150 351 880 350 550 c 5
 348.3671875 816.206054688 314.138671875 1150 550 1150 c 1028
EndSplineSet
Fore
SplineSet
100 1150 m 1
 100 1200 l 1
 150 1200 l 2
 244.298994258 1200 310.299761302 1147.29612097 345.876324653 1071.15568128 c 1
 382.060331339 1146.41869968 450.430199353 1200 550 1200 c 2
 600 1200 l 1
 600 1150 l 1
 600 1100 l 1
 550 1100 l 2
 461.209581942 1100 424.134889331 1042.99945832 406.767032463 919.619297682 c 0
 405.909595466 913.528119294 405.123191434 907.318134388 404.403067858 901 c 1
 550 901 l 1
 600 901 l 1
 600 851 l 1
 600 801 l 1
 550 801 l 1
 398.017178326 801 l 1
 397.839062438 794.039255693 397.701853474 787.025412719 397.601120443 779.968407139 c 0
 400.435734366 708.080565493 400.243696322 630.352945386 400 549.924246781 c 2
 400 500 l 1
 300 500 l 1
 300 549.846065194 l 2
 299.553527161 622.074178293 296.617395596 701.452898448 297.573940256 778.634113951 c 0
 297.26549322 786.182845321 296.921229061 793.640087168 296.538300661 801 c 1
 150 801 l 1
 100 801 l 1
 100 851 l 1
 100 901 l 1
 150 901 l 1
 287.854497447 901 l 1
 286.865631487 908.496183226 285.801725059 915.812708819 284.657918483 922.939609481 c 0
 263.958741653 1051.91331892 226.340361407 1100 150 1100 c 2
 100 1100 l 1
 100 1150 l 1
EndSplineSet
EndChar

StartChar: xy.cvc.1
Encoding: 39 -1 46
Width: 1300
VWidth: 345
Flags: HW
HStem: 1180 20G<300 400>
VStem: 300 100<808.834 1200>
AnchorPoint: "Above" 0 500 basechar 0
LayerCount: 2
Back
SplineSet
350 1150 m 1029
550 550 m 4
 363 688 350 910.81640625 350 1150 c 5
 350 906.840820312 338 690 150 550 c 1028
EndSplineSet
Fore
SplineSet
300 1200 m 1
 400 1200 l 1
 400 1150 l 2
 400 909.03962906 415.597655195 711.325519331 579.689298824 590.231151305 c 2
 619.920450129 560.541852481 l 1
 560.541852481 480.079549871 l 1
 520.310701176 509.768848695 l 2
 435.702913322 572.206681443 382.342192322 652.104169019 350.272500826 739.011256629 c 1
 318.051842907 651.767507894 264.595446943 572.996246345 179.8633073 509.897844483 c 2
 139.761151783 480.034537183 l 1
 80.0345371831 560.238848217 l 1
 120.1366927 590.102155517 l 2
 285.75544992 713.435272595 300 905.019898769 300 1150 c 2
 300 1200 l 1
EndSplineSet
EndChar

StartChar: iy.cvc.1
Encoding: 40 -1 47
Width: 1300
VWidth: 345
Flags: HW
HStem: 500 21G<100 200> 1100 100<200 600>
VStem: 100 100<500 1100>
AnchorPoint: "Above" 0 500 basechar 0
LayerCount: 2
Back
SplineSet
550 550 m 5
 186 1097 l 1029
150 550 m 5
 150 1150 l 5
 550 1150 l 1029
EndSplineSet
Fore
SplineSet
150 500 m 1
 100 500 l 1
 100 550 l 1
 100 1150 l 2
 100 1180.26507571 128.540191335 1200 150 1200 c 2
 550 1200 l 1
 600 1200 l 1
 600 1150 l 1
 600 1100 l 1
 550 1100 l 1
 244.062396397 1100 l 1
 591.625914834 577.699877513 l 1
 619.325792347 536.073962679 l 1
 577.699877513 508.374085166 l 1
 536.073962679 480.674207653 l 1
 508.374085166 522.300122487 l 1
 200 985.708431789 l 1
 200 550 l 1
 200 500 l 1
 150 500 l 1
EndSplineSet
EndChar

StartChar: ry.cvc.1
Encoding: 41 -1 48
Width: 1300
VWidth: 345
Flags: HW
AnchorPoint: "Above" 0 500 basechar 0
LayerCount: 2
Back
SplineSet
550 1150 m 25
 150 550 l 1049
150 1150 m 25
 550 550 l 1049
EndSplineSet
Fore
SplineSet
122.264990189 1191.60251472 m 1
 163.867504906 1219.33752453 l 1
 191.602514717 1177.73500981 l 1
 350 940.138781887 l 1
 508.397485283 1177.73500981 l 1
 536.132495094 1219.33752453 l 1
 577.735009811 1191.60251472 l 1
 619.337524528 1163.86750491 l 1
 591.602514717 1122.26499019 l 1
 410.092521258 850 l 1
 591.602514717 577.735009811 l 1
 619.337524528 536.132495094 l 1
 577.735009811 508.397485283 l 1
 536.132495094 480.662475472 l 1
 508.397485283 522.264990189 l 1
 350 759.861218113 l 1
 191.602514717 522.264990189 l 1
 163.867504906 480.662475472 l 1
 122.264990189 508.397485283 l 1
 80.6624754718 536.132495094 l 1
 108.397485283 577.735009811 l 1
 289.907478742 850 l 1
 108.397485283 1122.26499019 l 1
 80.6624754718 1163.86750491 l 1
 122.264990189 1191.60251472 l 1
EndSplineSet
EndChar

StartChar: my.cvc.1
Encoding: 48 -1 49
Width: 1300
VWidth: 345
Flags: HW
HStem: 500 100<200 500> 1100 100<200 500>
VStem: 100 100<600 1100> 500 100<600 1100>
AnchorPoint: "Above" 0 500 basechar 0
LayerCount: 2
Back
SplineSet
150 1150 m 25
 550 1150 l 25
 550 550 l 25
 150 550 l 25
 150 1150 l 25
EndSplineSet
Fore
SplineSet
150 1200 m 2
 550 1200 l 2
 580.265075711 1200 600 1171.45980867 600 1150 c 2
 600 550 l 2
 600 519.734924289 571.459808665 500 550 500 c 2
 150 500 l 2
 119.734924289 500 100 528.540191335 100 550 c 2
 100 1150 l 2
 100 1180.26507571 128.540191335 1200 150 1200 c 2
200 1100 m 1
 200 600 l 1
 500 600 l 1
 500 1100 l 1
 200 1100 l 1
EndSplineSet
EndChar

StartChar: by.cvc.1
Encoding: 49 -1 50
Width: 1300
VWidth: 345
Flags: HW
HStem: 500 100<200 600> 1100 100<200 600>
VStem: 100 100<600 1100>
AnchorPoint: "Above" 0 500 basechar 0
LayerCount: 2
Back
SplineSet
550 1150 m 25
 150 1150 l 25
 150 550 l 25
 550 550 l 1053
EndSplineSet
Fore
SplineSet
600 1150 m 1
 600 1100 l 1
 550 1100 l 1
 200 1100 l 1
 200 600 l 1
 550 600 l 1
 600 600 l 1
 600 550 l 1
 600 500 l 1
 550 500 l 1
 150 500 l 2
 128.540191335 500 100 519.734924289 100 550 c 2
 100 1150 l 2
 100 1171.45980867 119.734924289 1200 150 1200 c 2
 550 1200 l 1
 600 1200 l 1
 600 1150 l 1
EndSplineSet
EndChar

StartChar: py.cvc.1
Encoding: 50 -1 51
Width: 1300
VWidth: 345
Flags: HW
HStem: 500 100<100 500> 1100 100<100 500>
VStem: 500 100<600 1100>
AnchorPoint: "Above" 0 500 basechar 0
LayerCount: 2
Back
SplineSet
150 1150 m 25
 550 1150 l 25
 550 550 l 25
 150 550 l 1049
EndSplineSet
Fore
SplineSet
100 1150 m 1
 100 1200 l 1
 150 1200 l 1
 550 1200 l 2
 580.265075711 1200 600 1171.45980867 600 1150 c 2
 600 550 l 2
 600 519.734924289 571.459808665 500 550 500 c 2
 150 500 l 1
 100 500 l 1
 100 550 l 1
 100 600 l 1
 150 600 l 1
 500 600 l 1
 500 1100 l 1
 150 1100 l 1
 100 1100 l 1
 100 1150 l 1
EndSplineSet
EndChar

StartChar: vy.cvc.1
Encoding: 51 -1 52
Width: 1300
VWidth: 345
Flags: HW
HStem: 500 100<200 500> 1180 20G<100 200 500 600>
VStem: 100 100<600 1200> 500 100<600 1200>
AnchorPoint: "Above" 0 500 basechar 0
LayerCount: 2
Back
SplineSet
150 1150 m 25
 150 550 l 25
 550 550 l 25
 550 1150 l 1049
EndSplineSet
Fore
SplineSet
150 1200 m 5
 200 1200 l 5
 200 1150 l 5
 200 600 l 5
 500 600 l 5
 500 1150 l 5
 500 1200 l 5
 550 1200 l 5
 600 1200 l 5
 600 1150 l 5
 600 550 l 6
 600 528.540191335 580.265075711 500 550 500 c 6
 150 500 l 6
 128.540191335 500 100 519.734924289 100 550 c 6
 100 1150 l 5
 100 1200 l 5
 150 1200 l 5
EndSplineSet
EndChar

StartChar: fy.cvc.1
Encoding: 52 -1 53
Width: 1300
VWidth: 345
Flags: W
HStem: 500 21G<100 200 500 600> 1100 100<200 500>
VStem: 100 100<500 1100> 500 100<500 1100>
AnchorPoint: "Above" 0 500 basechar 0
LayerCount: 2
Back
SplineSet
550 550 m 5
 550 1150 l 13
 150 1150 l 29
 150 550 l 1053
EndSplineSet
Fore
SplineSet
550 500 m 1
 500 500 l 1
 500 550 l 1
 500 1100 l 1
 200 1100 l 1
 200 550 l 1
 200 500 l 1
 150 500 l 1
 100 500 l 1
 100 550 l 1
 100 1150 l 2
 100 1171.45980867 119.734924289 1200 150 1200 c 2
 550 1200 l 2
 571.459808665 1200 600 1180.26507571 600 1150 c 2
 600 550 l 1
 600 500 l 1
 550 500 l 1
EndSplineSet
EndChar

StartChar: ky.cvc.1
Encoding: 53 -1 54
Width: 1300
VWidth: 345
Flags: HW
AnchorPoint: "Above" 0 500 basechar 0
LayerCount: 2
Back
SplineSet
150 1150 m 25
 550 852 l 25
 150 550 l 1049
EndSplineSet
Fore
SplineSet
109.903975326 1179.87153838 m 1
 139.775513708 1219.96756306 l 1
 179.871538382 1190.09602467 l 1
 579.871538382 892.096024674 l 2
 607.362682958 871.615121965 604.410666549 830.429734012 580.127540021 812.095973483 c 2
 180.127540021 510.095973483 l 1
 140.223513503 479.968433462 l 1
 110.095973483 519.872459979 l 1
 79.9684334619 559.776486497 l 1
 119.872459979 589.904026517 l 1
 466.666239999 851.733330432 l 1
 120.128461618 1109.90397533 l 1
 80.0324369435 1139.77551371 l 1
 109.903975326 1179.87153838 l 1
EndSplineSet
EndChar

StartChar: cy.cvc.1
Encoding: 54 -1 55
Width: 1300
VWidth: 345
Flags: HW
HStem: 500 100<100 237.166 469.95 600> 800 100<100 295.71 412.014 600> 1180 20G<300 400>
VStem: 300 100<900 1200>
AnchorPoint: "Above" 0 500 basechar 0
LayerCount: 2
Back
SplineSet
550 850 m 1
 150 850 l 1025
350 1150 m 1025
550 550 m 0
 349 550 349 820 350 1150 c 1
 351.6328125 883.793945312 385.861328125 550 150 550 c 1024
EndSplineSet
Fore
SplineSet
600 550 m 1
 600 500 l 1
 550 500 l 2
 455.701005742 500 389.700238698 552.703879028 354.123675347 628.844318718 c 1
 317.939668661 553.581300322 249.569800647 500 150 500 c 2
 100 500 l 1
 100 550 l 1
 100 600 l 1
 150 600 l 2
 238.790418058 600 275.865110669 657.000541679 293.232967537 780.380702318 c 0
 294.13560065 786.792951062 294.959515041 793.336861172 295.710255055 800 c 1
 150 800 l 1
 100 800 l 1
 100 850 l 1
 100 900 l 1
 150 900 l 1
 302.008120253 900 l 1
 302.173990408 906.632350937 302.302968633 913.312407343 302.398879557 920.031592861 c 0
 299.564265634 991.919434507 299.756303678 1069.64705461 300 1150.07575322 c 2
 300 1200 l 1
 400 1200 l 1
 400 1150.15393481 l 2
 400.446472839 1077.92582171 403.382604404 998.547101552 402.426059744 921.365886049 c 0
 402.720545442 914.158835343 403.04767924 907.03517936 403.409938882 900 c 1
 550 900 l 1
 600 900 l 1
 600 850 l 1
 600 800 l 1
 550 800 l 1
 412.014170564 800 l 1
 413.040009094 792.154188483 414.147467254 784.503866853 415.342081517 777.060390519 c 0
 436.041258347 648.086681076 473.659638593 600 550 600 c 2
 600 600 l 1
 600 550 l 1
EndSplineSet
EndChar

StartChar: yhy.cvc.1
Encoding: 55 -1 56
Width: 1300
VWidth: 345
Flags: HW
HStem: 500 21G<500 600> 1180 20G<100 200>
VStem: 100 100<715.139 1200> 500 100<500 984.861>
AnchorPoint: "Above" 0 500 basechar 0
LayerCount: 2
Back
SplineSet
150 1150 m 25
 150 550 l 25
 550 1150 l 25
 550 550 l 1049
EndSplineSet
Fore
SplineSet
150 1200 m 1
 200 1200 l 1
 200 1150 l 1
 200 715.138781887 l 1
 508.397485283 1177.73500981 l 2
 524.340016975 1201.64880735 558.324249978 1207.06786216 580.913528472 1189.2982666 c 0
 593.383832772 1179.48864545 600 1162.38831538 600 1150 c 2
 600 550 l 1
 600 500 l 1
 550 500 l 1
 500 500 l 1
 500 550 l 1
 500 984.861218113 l 1
 191.602514717 522.264990189 l 2
 183.626206873 510.300528424 169.273091264 501.362184109 153.922854272 500.154125403 c 0
 125.270640305 497.899205394 100 521.259192262 100 550 c 2
 100 1150 l 1
 100 1200 l 1
 150 1200 l 1
EndSplineSet
EndChar

StartChar: uy.cvc.1
Encoding: 56 -1 57
Width: 1300
VWidth: 345
Flags: HW
HStem: 500 21G<500 600> 1100 100<100 500>
VStem: 500 100<500 1100>
AnchorPoint: "Above" 0 500 basechar 0
LayerCount: 2
Back
SplineSet
150 1150 m 25
 550 1150 l 25
 550 550 l 1049
EndSplineSet
Fore
SplineSet
100 1150 m 1
 100 1200 l 1
 150 1200 l 1
 550 1200 l 2
 580.265075711 1200 600 1171.45980867 600 1150 c 2
 600 550 l 1
 600 500 l 1
 550 500 l 1
 500 500 l 1
 500 550 l 1
 500 1100 l 1
 150 1100 l 1
 100 1100 l 1
 100 1150 l 1
EndSplineSet
EndChar

StartChar: ly.cvc.1
Encoding: 57 -1 58
Width: 1300
VWidth: 345
Flags: HW
HStem: 500 100<200 600> 799.875 100.125<200 500> 1100 100<100 500>
VStem: 100 100<600 799.875> 500 100<899.125 1100>
AnchorPoint: "Above" 0 500 basechar 0
LayerCount: 2
Back
SplineSet
150 1150 m 25
 550 1150 l 25
 550 849 l 25
 150 850 l 25
 150 550 l 25
 550 550 l 1053
EndSplineSet
Fore
SplineSet
100 1150 m 1
 100 1200 l 1
 150 1200 l 1
 550 1200 l 2
 580.265075711 1200 600 1171.45980867 600 1150 c 2
 600 849 l 2
 600 818.775426866 571.56600497 798.945928738 549.875000391 799.000156249 c 2
 200 799.87484375 l 1
 200 600 l 1
 550 600 l 1
 600 600 l 1
 600 550 l 1
 600 500 l 1
 550 500 l 1
 150 500 l 2
 128.540191335 500 100 519.734924289 100 550 c 2
 100 850 l 2
 100 871.691072364 119.900520927 900.075404947 150.124999609 899.999843751 c 2
 500 899.12515625 l 1
 500 1100 l 1
 150 1100 l 1
 100 1100 l 1
 100 1150 l 1
EndSplineSet
EndChar

StartChar: denpabu.cvc.1
Encoding: 63 -1 78
Width: 1300
VWidth: 345
Flags: HW
HStem: 470 100<274.356 425.644> 1130 100<274.356 425.644>
VStem: 74 100<692.227 1007.77> 526 100<692.227 1007.77>
AnchorPoint: "Above" 0 500 basechar 0
LayerCount: 2
Back
SplineSet
124 850 m 4
 124 1032 225 1180 350 1180 c 4
 475 1180 576 1032 576 850 c 4
 576 668 475 520 350 520 c 4
 225 520 124 668 124 850 c 4
EndSplineSet
Fore
SplineSet
74 850 m 0
 74 1043.44933135 181.627650283 1230 350 1230 c 0
 518.372490783 1230 626 1043.44959517 626 850 c 0
 626 656.550668651 518.372349717 470 350 470 c 0
 181.627509217 470 74 656.550404831 74 850 c 0
174 850 m 0
 174 679.449595169 268.372490783 570 350 570 c 0
 431.627650283 570 526 679.449331349 526 850 c 0
 526 1020.55040483 431.627509217 1130 350 1130 c 0
 268.372349717 1130 174 1020.55066865 174 850 c 0
EndSplineSet
EndChar

StartChar: ybu.cv
Encoding: 47 -1 79
Width: 0
VWidth: 345
Flags: W
HStem: 0 100<100 400 500 800> 380 20G<400 500>
VStem: 400 100<-200 0 100 400>
AnchorPoint: "Above" 0 500 mark 0
LayerCount: 2
Back
SplineSet
150 50 m 1
 750 50 l 1025
450 350 m 1
 450 -150 l 1029
EndSplineSet
Fore
SplineSet
450 400 m 1
 500 400 l 1
 500 350 l 1
 500 100 l 1
 750 100 l 1
 800 100 l 1
 800 50 l 1
 800 0 l 1
 750 0 l 1
 500 1.11022302463e-14 l 1
 500 -150 l 1
 500 -200 l 1
 450 -200 l 1
 400 -200 l 1
 400 -150 l 1
 400 -2.77555756156e-15 l 1
 150 0 l 1
 100 0 l 1
 100 50 l 1
 100 100 l 1
 150 100 l 1
 400 100 l 1
 400 350 l 1
 400 400 l 1
 450 400 l 1
EndSplineSet
Substitution2: "Single Substitution lookup 73 subtable" ybu.cvc
Substitution2: "Single Substitution lookup 69 subtable" ybu.ccv
EndChar

StartChar: eibu.cv
Encoding: 58 -1 80
Width: 0
VWidth: 345
Flags: W
HStem: 8.32667e-15 100<200 800> 300 100<200 800>
VStem: 100 100<-200 1.42109e-14 100 300>
AnchorPoint: "Above" 0 500 mark 0
LayerCount: 2
Back
SplineSet
750 50 m 25
 150 50 l 1049
750 350 m 25
 150 350 l 1
 150 -150 l 1029
EndSplineSet
Fore
SplineSet
800 350 m 1
 800 300 l 1
 750 300 l 1
 200 300 l 1
 200 100 l 1
 750 100 l 1
 800 100 l 1
 800 50 l 1
 800 0 l 1
 750 0 l 1
 200 8.32667268469e-15 l 1
 200 -150 l 1
 200 -200 l 1
 150 -200 l 1
 100 -200 l 1
 100 -150 l 1
 100 -2.77555756156e-15 l 1
 100 50 l 1
 100 100 l 1
 100 350 l 2
 100 371.459808665 119.734924289 400 150 400 c 2
 750 400 l 1
 800 400 l 1
 800 350 l 1
EndSplineSet
Substitution2: "Single Substitution lookup 73 subtable" eibu.cvc
Substitution2: "Single Substitution lookup 69 subtable" eibu.ccv
EndChar

StartChar: oibu.cv
Encoding: 59 -1 81
Width: 0
VWidth: 345
Flags: W
HStem: 0 100<100 700> 300 100<100 700>
VStem: 700 100<-200 0 100 300>
AnchorPoint: "Above" 0 500 mark 0
LayerCount: 2
Back
SplineSet
150 50 m 25
 748.5 50 l 1048
150 350 m 25
 750 350 l 1
 750 -150 l 1029
EndSplineSet
Fore
SplineSet
100 350 m 1
 100 400 l 1
 150 400 l 1
 750 400 l 2
 780.265075711 400 800 371.459808665 800 350 c 2
 800 -150 l 1
 800 -200 l 1
 750 -200 l 1
 700 -200 l 1
 700 -150 l 1
 700 -4.16333634234e-15 l 1
 150 0 l 1
 100 0 l 1
 100 50 l 1
 100 100 l 1
 150 100 l 1
 700 100 l 1
 700 300 l 1
 150 300 l 1
 100 300 l 1
 100 350 l 1
EndSplineSet
Substitution2: "Single Substitution lookup 73 subtable" oibu.cvc
Substitution2: "Single Substitution lookup 69 subtable" oibu.ccv
EndChar

StartChar: aibu.cv
Encoding: 60 -1 82
Width: 0
VWidth: 345
Flags: W
HStem: 0 100<200 400 500 800> 380 20G<400 500>
VStem: 100 100<-200 0> 400 100<100 400>
AnchorPoint: "Above" 0 500 mark 0
LayerCount: 2
Back
SplineSet
450 350 m 1
 450 50 l 1025
750 50 m 1
 150 50 l 1
 150 -150 l 1029
EndSplineSet
Fore
SplineSet
800 50 m 1
 800 0 l 1
 750 0 l 1
 500 0 l 1
 450 0 l 1
 400 0 l 1
 200 0 l 1
 200 -150 l 1
 200 -200 l 1
 150 -200 l 1
 100 -200 l 1
 100 -150 l 1
 100 50 l 2
 100 71.4598086653 119.734924289 100 150 100 c 2
 400 100 l 1
 400 350 l 1
 400 400 l 1
 450 400 l 1
 500 400 l 1
 500 350 l 1
 500 100 l 1
 750 100 l 1
 800 100 l 1
 800 50 l 1
EndSplineSet
Substitution2: "Single Substitution lookup 73 subtable" aibu.cvc
Substitution2: "Single Substitution lookup 69 subtable" aibu.ccv
EndChar

StartChar: aubu.cv
Encoding: 61 -1 83
Width: 0
VWidth: 345
Flags: W
HStem: 0 100<100 400 500 700> 380 20G<400 500>
VStem: 400 100<100 400> 700 100<-200 0>
AnchorPoint: "Above" 0 500 mark 0
LayerCount: 2
Back
SplineSet
450 350 m 1
 450 50 l 1025
150 50 m 1
 750 50 l 1
 750 -150 l 1029
EndSplineSet
Fore
SplineSet
100 50 m 1
 100 100 l 1
 150 100 l 1
 400 100 l 1
 400 350 l 1
 400 400 l 1
 450 400 l 1
 500 400 l 1
 500 350 l 1
 500 100 l 1
 750 100 l 2
 780.265075711 100 800 71.4598086653 800 50 c 2
 800 -150 l 1
 800 -200 l 1
 750 -200 l 1
 700 -200 l 1
 700 -150 l 1
 700 0 l 1
 500 0 l 1
 450 0 l 1
 400 0 l 1
 150 0 l 1
 100 0 l 1
 100 50 l 1
EndSplineSet
Substitution2: "Single Substitution lookup 73 subtable" aubu.cvc
Substitution2: "Single Substitution lookup 69 subtable" aubu.ccv
EndChar

StartChar: ubu.cv
Encoding: 45 -1 84
Width: 0
VWidth: 345
Flags: W
HStem: 300 100<100 700>
VStem: 700 100<-200 300>
AnchorPoint: "Above" 0 500 mark 0
LayerCount: 2
Back
SplineSet
150 350 m 1
 750 350 l 1
 750 -150 l 1029
EndSplineSet
Fore
SplineSet
100 350 m 1
 100 400 l 1
 150 400 l 1
 750 400 l 2
 780.265075711 400 800 371.459808665 800 350 c 2
 800 -150 l 1
 800 -200 l 1
 750 -200 l 1
 700 -200 l 1
 700 -150 l 1
 700 300 l 1
 150 300 l 1
 100 300 l 1
 100 350 l 1
EndSplineSet
Substitution2: "Single Substitution lookup 73 subtable" ubu.cvc
Substitution2: "Single Substitution lookup 69 subtable" ubu.ccv
EndChar

StartChar: abu.cv
Encoding: 46 -1 85
Width: 0
VWidth: 345
Flags: W
HStem: 0 100<100 400 500 800> 380 20G<400 500>
VStem: 400 100<100 400>
AnchorPoint: "Above" 0 500 mark 0
LayerCount: 2
Back
SplineSet
450 350 m 5
 450 50 l 1029
150 50 m 29
 750 50 l 1053
EndSplineSet
Fore
SplineSet
100 50 m 1
 100 100 l 1
 150 100 l 1
 400 100 l 1
 400 350 l 1
 400 400 l 1
 450 400 l 1
 500 400 l 1
 500 350 l 1
 500 100 l 1
 750 100 l 1
 800 100 l 1
 800 50 l 1
 800 0 l 1
 750 0 l 1
 500 0 l 1
 450 0 l 1
 400 0 l 1
 150 0 l 1
 100 0 l 1
 100 50 l 1
EndSplineSet
Substitution2: "Single Substitution lookup 73 subtable" abu.cvc
Substitution2: "Single Substitution lookup 69 subtable" abu.ccv
EndChar

StartChar: sy.ccv.2
Encoding: 132 -1 89
Width: 0
VWidth: 345
Flags: HW
HStem: 500 21G<700 800 1100.5 1200.5> 800 100<800 1100.5> 1100 100<800 1100.5>
VStem: 700 100<500 800 900 1100> 1100.5 100<500 800 900 1100>
AnchorPoint: "Above" 0 500 mark 0
LayerCount: 2
Back
SplineSet
759 850 m 5
 1150.5 850 l 1029
1150.5 550 m 5
 1150.5 1150 l 5
 750 1150 l 5
 750 550 l 1053
EndSplineSet
Fore
SplineSet
1150.5 500 m 1
 1100.5 500 l 1
 1100.5 550 l 1
 1100.5 800 l 1
 800 800 l 1
 800 550 l 1
 800 500 l 1
 750 500 l 1
 700 500 l 1
 700 550 l 1
 700 1150 l 2
 700 1171.45980867 719.734924289 1200 750 1200 c 2
 1150.5 1200 l 2
 1171.95980867 1200 1200.5 1180.26507571 1200.5 1150 c 2
 1200.5 900 l 1
 1200.5 850 l 1
 1200.5 800 l 1
 1200.5 550 l 1
 1200.5 500 l 1
 1150.5 500 l 1
1100.5 900 m 1
 1100.5 1100 l 1
 800 1100 l 1
 800 900 l 1
 1100.5 900 l 1
EndSplineSet
EndChar

StartChar: eibu.ccv
Encoding: 122 -1 104
Width: 0
VWidth: 345
Flags: W
HStem: 8.32667e-15 100<400 1000> 300 100<400 1000>
VStem: 300 100<-200 1.42109e-14 100 300>
AnchorPoint: "Above" 0 500 mark 0
LayerCount: 2
Back
SplineSet
350 -150 m 29
 350 350 l 25
 950 350 l 1049
350 50 m 25
 950 50 l 1049
EndSplineSet
Fore
SplineSet
350 -200 m 1
 300 -200 l 1
 300 -150 l 1
 300 0 l 1
 300 50 l 1
 300 100 l 1
 300 350 l 2
 300 380.265075711 328.540191335 400 350 400 c 2
 950 400 l 1
 1000 400 l 1
 1000 350 l 1
 1000 300 l 1
 950 300 l 1
 400 300 l 1
 400 100 l 1
 950 100 l 1
 1000 100 l 1
 1000 50 l 1
 1000 0 l 1
 950 0 l 1
 400 8.32667268469e-15 l 1
 400 -150 l 1
 400 -200 l 1
 350 -200 l 1
EndSplineSet
EndChar

StartChar: obu.ccv
Encoding: 107 -1 105
Width: 0
VWidth: 345
Flags: W
HStem: 0 100<300 900> 380 20G<900 1000>
VStem: 900 100<-200 0 100 400>
AnchorPoint: "Above" 0 500 mark 0
LayerCount: 2
Back
SplineSet
950 350 m 1
 950 -150 l 1029
350 50 m 1
 950 50 l 1025
EndSplineSet
Fore
SplineSet
300 50 m 1
 300 100 l 1
 350 100 l 1
 900 100 l 1
 900 350 l 1
 900 400 l 1
 950 400 l 1
 1000 400 l 1
 1000 350 l 1
 1000 100 l 1
 1000 50 l 1
 1000 1.11022302463e-14 l 1
 1000 -150 l 1
 1000 -200 l 1
 950 -200 l 1
 900 -200 l 1
 900 -150 l 1
 900 -2.77555756156e-15 l 1
 350 0 l 1
 300 0 l 1
 300 50 l 1
EndSplineSet
EndChar

StartChar: oibu.ccv
Encoding: 123 -1 106
Width: 0
VWidth: 345
Flags: W
HStem: 0 100<300 900> 300 100<300 900>
VStem: 900 100<-200 0 100 300>
AnchorPoint: "Above" 0 500 mark 0
LayerCount: 2
Back
SplineSet
350 350 m 25
 950 350 l 25
 950 -150 l 1053
350 50 m 25
 950 50 l 1049
EndSplineSet
Fore
SplineSet
300 50 m 1
 300 100 l 1
 350 100 l 1
 900 100 l 1
 900 300 l 1
 350 300 l 1
 300 300 l 1
 300 350 l 1
 300 400 l 1
 350 400 l 1
 950 400 l 2
 980.265075711 400 1000 371.459808665 1000 350 c 2
 1000 100 l 1
 1000 50 l 1
 1000 1.11022302463e-14 l 1
 1000 -150 l 1
 1000 -200 l 1
 950 -200 l 1
 900 -200 l 1
 900 -150 l 1
 900 -4.16333634234e-15 l 1
 350 0 l 1
 300 0 l 1
 300 50 l 1
EndSplineSet
EndChar

StartChar: ybu.ccv
Encoding: 111 -1 107
Width: 0
VWidth: 345
Flags: W
HStem: 0 100<300 600 700 1000> 380 20G<600 700>
VStem: 600 100<-200 0 100 400>
AnchorPoint: "Above" 0 500 mark 0
LayerCount: 2
Back
SplineSet
350 50 m 1
 950 50 l 1025
650 350 m 1
 650 -150 l 1029
EndSplineSet
Fore
SplineSet
650 400 m 1
 700 400 l 1
 700 350 l 1
 700 100 l 1
 950 100 l 1
 1000 100 l 1
 1000 50 l 1
 1000 0 l 1
 950 0 l 1
 700 1.11022302463e-14 l 1
 700 -150 l 1
 700 -200 l 1
 650 -200 l 1
 600 -200 l 1
 600 -150 l 1
 600 -2.77555756156e-15 l 1
 350 0 l 1
 300 0 l 1
 300 50 l 1
 300 100 l 1
 350 100 l 1
 600 100 l 1
 600 350 l 1
 600 400 l 1
 650 400 l 1
EndSplineSet
EndChar

StartChar: ebu.cvc
Encoding: 74 -1 108
Width: 0
VWidth: 345
Flags: HW
HStem: 500 21G<700 800> 800 100<800 1200.5> 1180 20G<700 800>
VStem: 700 100<500 800 900 1200>
AnchorPoint: "Above" 0 500 mark 0
LayerCount: 2
Back
SplineSet
1150.5 850 m 1
 750 850 l 1049
750 1150 m 25
 750 550 l 1049
EndSplineSet
Fore
SplineSet
750 1200 m 1
 800 1200 l 1
 800 1150 l 1
 800 900 l 1
 1150.5 900 l 1
 1200.5 900 l 1
 1200.5 850 l 1
 1200.5 800 l 1
 1150.5 800 l 1
 800 800 l 1
 800 550 l 1
 800 500 l 1
 750 500 l 1
 700 500 l 1
 700 550 l 1
 700 800 l 1
 700 850 l 1
 700 900 l 1
 700 1150 l 1
 700 1200 l 1
 750 1200 l 1
EndSplineSet
EndChar

StartChar: obu.cvc
Encoding: 75 -1 109
Width: 0
VWidth: 345
Flags: HW
HStem: 500 21G<1100.5 1200.5> 800 100<700 1100.5> 1180 20G<1100.5 1200.5>
VStem: 1100.5 100<500 800 900 1200>
AnchorPoint: "Above" 0 500 mark 0
LayerCount: 2
Back
SplineSet
1150.5 1150 m 25
 1150.5 550 l 1049
750 850 m 25
 1150.5 850 l 1049
EndSplineSet
Fore
SplineSet
700 850 m 1
 700 900 l 1
 750 900 l 1
 1100.5 900 l 1
 1100.5 1150 l 1
 1100.5 1200 l 1
 1150.5 1200 l 1
 1200.5 1200 l 1
 1200.5 1150 l 1
 1200.5 900 l 1
 1200.5 850 l 1
 1200.5 800 l 1
 1200.5 550 l 1
 1200.5 500 l 1
 1150.5 500 l 1
 1100.5 500 l 1
 1100.5 550 l 1
 1100.5 800 l 1
 750 800 l 1
 700 800 l 1
 700 850 l 1
EndSplineSet
EndChar

StartChar: ibu.cvc
Encoding: 76 -1 110
Width: 0
VWidth: 345
Flags: HW
HStem: 500 21G<700 800> 1100 100<800 1200.5>
VStem: 700 100<500 1100>
AnchorPoint: "Above" 0 500 mark 0
LayerCount: 2
Back
SplineSet
750 550 m 25
 750 1150 l 25
 1150.5 1150 l 1049
EndSplineSet
Fore
SplineSet
750 500 m 1
 700 500 l 1
 700 550 l 1
 700 1150 l 2
 700 1180.26507571 728.540191335 1200 750 1200 c 2
 1150.5 1200 l 1
 1200.5 1200 l 1
 1200.5 1150 l 1
 1200.5 1100 l 1
 1150.5 1100 l 1
 800 1100 l 1
 800 550 l 1
 800 500 l 1
 750 500 l 1
EndSplineSet
EndChar

StartChar: ubu.cvc
Encoding: 77 -1 111
Width: 0
VWidth: 345
Flags: HW
HStem: 500 21G<1100.5 1200.5> 1100 100<700 1100.5>
VStem: 1100.5 100<500 1100>
AnchorPoint: "Above" 0 500 mark 0
LayerCount: 2
Back
SplineSet
750 1150 m 25
 1150.5 1150 l 25
 1150.5 550 l 1049
EndSplineSet
Fore
SplineSet
700 1150 m 1
 700 1200 l 1
 750 1200 l 1
 1150.5 1200 l 2
 1180.76507571 1200 1200.5 1171.45980867 1200.5 1150 c 2
 1200.5 550 l 1
 1200.5 500 l 1
 1150.5 500 l 1
 1100.5 500 l 1
 1100.5 550 l 1
 1100.5 1100 l 1
 750 1100 l 1
 700 1100 l 1
 700 1150 l 1
EndSplineSet
EndChar

StartChar: abu.cvc
Encoding: 78 -1 112
Width: 0
VWidth: 345
Flags: HW
HStem: 500 100<700 900 1000 1200.5> 1180 20G<900 1000>
VStem: 900 100<600 1200>
AnchorPoint: "Above" 0 500 mark 0
LayerCount: 2
Back
SplineSet
750 550 m 25
 1150.5 550 l 1049
950 1150 m 25
 950 550 l 1049
EndSplineSet
Fore
SplineSet
950 1200 m 1
 1000 1200 l 1
 1000 1150 l 1
 1000 600 l 1
 1150.5 600 l 1
 1200.5 600 l 1
 1200.5 550 l 1
 1200.5 500 l 1
 1150.5 500 l 1
 1000 500 l 1
 950 500 l 1
 900 500 l 1
 750 500 l 1
 700 500 l 1
 700 550 l 1
 700 600 l 1
 750 600 l 1
 900 600 l 1
 900 1150 l 1
 900 1200 l 1
 950 1200 l 1
EndSplineSet
EndChar

StartChar: ybu.cvc
Encoding: 79 -1 113
Width: 0
VWidth: 345
Flags: HW
HStem: 500 21G<900 1000> 800 100<700 900 1000 1200.5> 1180 20G<900 1000>
VStem: 900 100<500 800 900 1200>
AnchorPoint: "Above" 0 500 mark 0
LayerCount: 2
Back
SplineSet
750 850 m 25
 1150.5 850 l 1049
950 1150 m 25
 950 550 l 1049
EndSplineSet
Fore
SplineSet
950 1200 m 1
 1000 1200 l 1
 1000 1150 l 1
 1000 900 l 1
 1150.5 900 l 1
 1200.5 900 l 1
 1200.5 850 l 1
 1200.5 800 l 1
 1150.5 800 l 1
 1000 800 l 1
 1000 550 l 1
 1000 500 l 1
 950 500 l 1
 900 500 l 1
 900 550 l 1
 900 800 l 1
 750 800 l 1
 700 800 l 1
 700 850 l 1
 700 900 l 1
 750 900 l 1
 900 900 l 1
 900 1150 l 1
 900 1200 l 1
 950 1200 l 1
EndSplineSet
EndChar

StartChar: eibu.cvc
Encoding: 90 -1 114
Width: 0
VWidth: 345
Flags: HW
HStem: 500 21G<700 800> 800 100<800 1200.5> 1100 100<800 1200.5>
VStem: 700 100<500 800 900 1100>
AnchorPoint: "Above" 0 500 mark 0
LayerCount: 2
Back
SplineSet
1150.5 850 m 1
 750 850 l 1049
750 550 m 25
 750 1150 l 25
 1150.5 1150 l 1049
EndSplineSet
Fore
SplineSet
750 500 m 1
 700 500 l 1
 700 550 l 1
 700 800 l 1
 700 850 l 1
 700 900 l 1
 700 1150 l 2
 700 1180.26507571 728.540191335 1200 750 1200 c 2
 1150.5 1200 l 1
 1200.5 1200 l 1
 1200.5 1150 l 1
 1200.5 1100 l 1
 1150.5 1100 l 1
 800 1100 l 1
 800 900 l 1
 1150.5 900 l 1
 1200.5 900 l 1
 1200.5 850 l 1
 1200.5 800 l 1
 1150.5 800 l 1
 800 800 l 1
 800 550 l 1
 800 500 l 1
 750 500 l 1
EndSplineSet
EndChar

StartChar: oibu.cvc
Encoding: 91 -1 115
Width: 0
VWidth: 345
Flags: HW
HStem: 500 21G<1100.5 1200.5> 800 100<700 1100.5> 1100 100<700 1100.5>
VStem: 1100.5 100<500 800 900 1100>
AnchorPoint: "Above" 0 500 mark 0
LayerCount: 2
Back
SplineSet
750 1150 m 25
 1150.5 1150 l 25
 1150.5 550 l 1049
750 850 m 25
 1150.5 850 l 1049
EndSplineSet
Fore
SplineSet
700 850 m 1
 700 900 l 1
 750 900 l 1
 1100.5 900 l 1
 1100.5 1100 l 1
 750 1100 l 1
 700 1100 l 1
 700 1150 l 1
 700 1200 l 1
 750 1200 l 1
 1150.5 1200 l 2
 1180.76507571 1200 1200.5 1171.45980867 1200.5 1150 c 2
 1200.5 900 l 1
 1200.5 850 l 1
 1200.5 800 l 1
 1200.5 550 l 1
 1200.5 500 l 1
 1150.5 500 l 1
 1100.5 500 l 1
 1100.5 550 l 1
 1100.5 800 l 1
 750 800 l 1
 700 800 l 1
 700 850 l 1
EndSplineSet
EndChar

StartChar: aibu.cvc
Encoding: 92 -1 116
Width: 0
VWidth: 345
Flags: HW
HStem: 500 21G<700 800> 800 100<800 900 1000 1200.5> 1180 20G<900 1000>
VStem: 700 100<500 800> 900 100<900 1200>
AnchorPoint: "Above" 0 500 mark 0
LayerCount: 2
Back
SplineSet
950 1150 m 25
 950 850 l 1049
750 550 m 25
 750 850 l 17
 878 850 l 4
 1150.5 850 l 1033
EndSplineSet
Fore
SplineSet
750 500 m 1
 700 500 l 1
 700 550 l 1
 700 850 l 2
 700 880.265075711 728.540191335 900 750 900 c 2
 878 900 l 1
 900 900 l 1
 900 1150 l 1
 900 1200 l 1
 950 1200 l 1
 1000 1200 l 1
 1000 1150 l 1
 1000 900 l 1
 1150.5 900 l 1
 1200.5 900 l 1
 1200.5 850 l 1
 1200.5 800 l 1
 1150.5 800 l 1
 1000 800 l 1
 950 800 l 1
 900 800 l 1
 878 800 l 1
 800 800 l 1
 800 550 l 1
 800 500 l 1
 750 500 l 1
EndSplineSet
EndChar

StartChar: aubu.cvc
Encoding: 93 -1 117
Width: 0
VWidth: 345
Flags: HW
HStem: 500 21G<1100.5 1200.5> 800 100<700 900 1000 1100.5> 1180 20G<900 1000>
VStem: 900 100<900 1200> 1100.5 100<500 800>
AnchorPoint: "Above" 0 500 mark 0
LayerCount: 2
Back
SplineSet
750 850 m 25
 1150.5 850 l 25
 1150.5 550 l 1049
950 1150 m 25
 950 850 l 1049
EndSplineSet
Fore
SplineSet
950 1200 m 1
 1000 1200 l 1
 1000 1150 l 1
 1000 900 l 1
 1150.5 900 l 2
 1180.76507571 900 1200.5 871.459808665 1200.5 850 c 2
 1200.5 550 l 1
 1200.5 500 l 1
 1150.5 500 l 1
 1100.5 500 l 1
 1100.5 550 l 1
 1100.5 800 l 1
 1000 800 l 1
 950 800 l 1
 900 800 l 1
 750 800 l 1
 700 800 l 1
 700 850 l 1
 700 900 l 1
 750 900 l 1
 900 900 l 1
 900 1150 l 1
 900 1200 l 1
 950 1200 l 1
EndSplineSet
EndChar

StartChar: ibu.ccv
Encoding: 108 -1 119
Width: 0
VWidth: 345
Flags: W
HStem: 300 100<400 1000>
VStem: 300 100<-200 300>
AnchorPoint: "Above" 0 500 mark 0
LayerCount: 2
Back
SplineSet
350 -150 m 29
 350 350 l 25
 950 350 l 1049
EndSplineSet
Fore
SplineSet
350 -200 m 1
 300 -200 l 1
 300 -150 l 1
 300 350 l 2
 300 380.265075711 328.540191335 400 350 400 c 2
 950 400 l 1
 1000 400 l 1
 1000 350 l 1
 1000 300 l 1
 950 300 l 1
 400 300 l 1
 400 -150 l 1
 400 -200 l 1
 350 -200 l 1
EndSplineSet
EndChar

StartChar: ubu.ccv
Encoding: 109 -1 120
Width: 0
VWidth: 345
Flags: W
HStem: 300 100<300 900>
VStem: 900 100<-200 300>
AnchorPoint: "Above" 0 500 mark 0
LayerCount: 2
Back
SplineSet
350 350 m 25
 950 350 l 25
 950 -150 l 1053
EndSplineSet
Fore
SplineSet
300 350 m 1
 300 400 l 1
 350 400 l 1
 950 400 l 2
 980.265075711 400 1000 371.459808665 1000 350 c 2
 1000 -150 l 1
 1000 -200 l 1
 950 -200 l 1
 900 -200 l 1
 900 -150 l 1
 900 300 l 1
 350 300 l 1
 300 300 l 1
 300 350 l 1
EndSplineSet
EndChar

StartChar: abu.ccv
Encoding: 110 -1 121
Width: 0
VWidth: 345
Flags: W
HStem: 0 100<300 600 700 1000> 380 20G<600 700>
VStem: 600 100<100 400>
AnchorPoint: "Above" 0 500 mark 0
LayerCount: 2
Back
SplineSet
350 50 m 29
 950 50 l 1053
650 350 m 25
 650 50 l 1053
EndSplineSet
Fore
SplineSet
650 400 m 1
 700 400 l 1
 700 350 l 1
 700 100 l 1
 950 100 l 1
 1000 100 l 1
 1000 50 l 1
 1000 0 l 1
 950 0 l 1
 700 0 l 1
 650 0 l 1
 600 0 l 1
 350 0 l 1
 300 0 l 1
 300 50 l 1
 300 100 l 1
 350 100 l 1
 600 100 l 1
 600 350 l 1
 600 400 l 1
 650 400 l 1
EndSplineSet
EndChar

StartChar: aibu.ccv
Encoding: 124 -1 122
Width: 0
VWidth: 345
Flags: W
HStem: 0 100<400 600 700 1000> 380 20G<600 700>
VStem: 300 100<-200 0> 600 100<100 400>
AnchorPoint: "Above" 0 500 mark 0
LayerCount: 2
Back
SplineSet
350 -150 m 29
 350 50 l 25
 950 50 l 1049
650 350 m 25
 650 50 l 1049
EndSplineSet
Fore
SplineSet
650 400 m 1
 700 400 l 1
 700 350 l 1
 700 100 l 1
 950 100 l 1
 1000 100 l 1
 1000 50 l 1
 1000 0 l 1
 950 0 l 1
 700 0 l 1
 650 0 l 1
 600 0 l 1
 400 0 l 1
 400 -150 l 1
 400 -200 l 1
 350 -200 l 1
 300 -200 l 1
 300 -150 l 1
 300 50 l 2
 300 80.2650757111 328.540191335 100 350 100 c 2
 600 100 l 1
 600 350 l 1
 600 400 l 1
 650 400 l 1
EndSplineSet
EndChar

StartChar: aubu.ccv
Encoding: 125 -1 123
Width: 0
VWidth: 345
Flags: W
HStem: 0 100<300 600 700 900> 380 20G<600 700>
VStem: 600 100<100 400> 900 100<-200 0>
AnchorPoint: "Above" 0 500 mark 0
LayerCount: 2
Back
SplineSet
350 50 m 25
 950 50 l 25
 950 -150 l 1049
650 350 m 25
 650 51 l 1053
EndSplineSet
Fore
SplineSet
650 400 m 1
 700 400 l 1
 700 350 l 1
 700 100 l 1
 950 100 l 2
 980.265075711 100 1000 71.4598086653 1000 50 c 2
 1000 -150 l 1
 1000 -200 l 1
 950 -200 l 1
 900 -200 l 1
 900 -150 l 1
 900 0 l 1
 350 0 l 1
 300 0 l 1
 300 50 l 1
 300 100 l 1
 350 100 l 1
 600 100 l 1
 600 350 l 1
 600 400 l 1
 650 400 l 1
EndSplineSet
EndChar

StartChar: guillemotleft
Encoding: 160 171 145
Width: 1200
VWidth: 345
Flags: W
LayerCount: 2
Back
SplineSet
879.014648438 654.514648438 m 5
 607.514648438 440.014648438 l 1
 879.014648438 225.514648438 l 1025
607.514648438 654.514648438 m 5
 336.014648438 440.014648438 l 1
 607.514648438 225.514648438 l 1025
EndSplineSet
Fore
SplineSet
646.748046875 685.510742188 m 1
 677.744140625 646.278320312 l 1
 638.510742188 615.28125 l 1
 416.669921875 440.014648438 l 1
 638.510742188 264.748046875 l 1
 677.744140625 233.750976562 l 1
 646.748046875 194.518554688 l 1
 615.750976562 155.28515625 l 1
 576.518554688 186.28125 l 1
 305.018554688 400.78125 l 1
 305.018554688 400.78125 301.341796875 403.869140625 299.333984375 406.036132812 c 0
 279.802734375 427.120117188 282.466796875 461.430664062 305.018554688 479.248046875 c 2
 576.518554688 693.748046875 l 1
 615.750976562 724.744140625 l 1
 646.748046875 685.510742188 l 1
918.248046875 685.510742188 m 1
 949.244140625 646.278320312 l 1
 910.010742188 615.28125 l 1
 688.169921875 440.014648438 l 1
 910.010742188 264.748046875 l 1
 949.244140625 233.750976562 l 1
 918.248046875 194.518554688 l 1
 887.250976562 155.28515625 l 1
 848.018554688 186.28125 l 1
 576.518554688 400.78125 l 1
 576.518554688 400.78125 572.841796875 403.869140625 570.833984375 406.036132812 c 0
 551.302734375 427.120117188 553.966796875 461.430664062 576.518554688 479.248046875 c 2
 848.018554688 693.748046875 l 1
 887.250976562 724.744140625 l 1
 918.248046875 685.510742188 l 1
EndSplineSet
EndChar

StartChar: parenleft
Encoding: 162 40 148
Width: 750
VWidth: 345
Flags: W
VStem: 106.015 100<230.894 644.95>
LayerCount: 2
Back
SplineSet
565.514648438 1148.01464844 m 24
 559.80859375 1144.36621094 552.04296875 1139.08886719 542.217773438 1132.18457031 c 0
 532.391601562 1125.27929688 513.30078125 1109.84472656 484.9453125 1085.87890625 c 0
 456.58984375 1061.91308594 429.517578125 1036.59472656 403.728515625 1009.92285156 c 0
 377.940429688 983.250976562 349.297851562 948.65234375 317.803710938 906.126953125 c 0
 286.30859375 863.602539062 259.236328125 819.9765625 236.586914062 775.250976562 c 0
 213.936523438 730.525390625 194.845703125 678.4765625 179.313476562 619.10546875 c 0
 163.78125 559.734375 156.015625 499.537109375 156.014648438 438.514648438 c 0
 156.013671875 377.700195312 163.541992188 317.842773438 178.59765625 258.943359375 c 0
 193.653320312 200.04296875 213.219726562 147.825195312 237.295898438 102.2890625 c 0
 261.372070312 56.751953125 287.969726562 13.5185546875 317.086914062 -27.4111328125 c 0
 346.204101562 -68.341796875 375.321289062 -103.190429688 404.439453125 -131.958007812 c 0
 433.556640625 -160.725585938 460.154296875 -185.713867188 484.23046875 -206.924804688 c 0
 508.307617188 -228.135742188 527.874023438 -243.864257812 542.930664062 -254.11328125 c 2
 565.514648438 -269.485351562 l 1025
EndSplineSet
Fore
SplineSet
607.639648438 1174.94921875 m 1
 634.57421875 1132.82421875 l 1
 592.44921875 1105.88964844 l 2
 587.802734375 1102.91894531 580.4375 1097.93066406 570.965820312 1091.27539062 c 0
 564.361328125 1086.63378906 544.974609375 1071.1484375 517.220703125 1047.69140625 c 0
 490.142578125 1024.8046875 464.297851562 1000.63476562 439.674804688 975.16796875 c 0
 416.029296875 950.711914062 388.564453125 917.66015625 357.983398438 876.368164062 c 0
 328.06640625 835.973632812 302.5078125 794.751953125 281.193359375 752.661132812 c 0
 260.490234375 711.78125 242.4921875 663.046875 227.685546875 606.451171875 c 0
 213.215820312 551.141601562 206.015625 495.290039062 206.014648438 438.513671875 c 0
 206.013671875 381.830078125 213.0078125 326.221679688 227.040039062 271.326171875 c 0
 241.280273438 215.616210938 259.57421875 167.124023438 281.498046875 125.659179688 c 0
 304.57421875 82.0126953125 330.015625 40.669921875 357.829101562 1.572265625 c 0
 385.592773438 -37.455078125 412.965820312 -70.095703125 439.581054688 -96.3896484375 c 0
 468.1640625 -124.629882812 494.115234375 -148.997070312 517.282226562 -169.407226562 c 0
 540.44921875 -189.81640625 558.923828125 -204.515625 571.064453125 -212.779296875 c 2
 593.6484375 -228.151367188 l 1
 634.982421875 -256.286132812 l 1
 606.848632812 -297.619140625 l 1
 578.713867188 -338.953125 l 1
 537.380859375 -310.819335938 l 1
 514.796875 -295.447265625 l 2
 496.82421875 -283.212890625 476.166015625 -266.455078125 451.178710938 -244.442382812 c 0
 426.193359375 -222.430664062 398.94921875 -196.821289062 369.297851562 -167.526367188 c 0
 337.676757812 -136.28515625 306.815429688 -99.228515625 276.344726562 -56.39453125 c 0
 245.923828125 -13.6328125 218.169921875 31.4912109375 193.09375 78.9189453125 c 0
 166.865234375 128.526367188 146.026367188 184.469726562 130.155273438 246.560546875 c 0
 114.076171875 309.463867188 106.013671875 373.5703125 106.014648438 438.515625 c 0
 106.015625 503.784179688 114.346679688 568.327148438 130.94140625 631.759765625 c 0
 147.19921875 693.90625 167.3828125 749.26953125 191.98046875 797.840820312 c 0
 215.96484375 845.201171875 244.55078125 891.231445312 277.624023438 935.885742188 c 0
 310.03125 979.64453125 339.8515625 1015.79003906 367.782226562 1044.67773438 c 0
 394.737304688 1072.5546875 423.037109375 1099.02148438 452.669921875 1124.06640625 c 0
 481.626953125 1148.54101562 500.421875 1163.92480469 513.469726562 1173.09375 c 0
 523.6484375 1180.24707031 531.814453125 1185.81347656 538.580078125 1190.13964844 c 2
 580.705078125 1217.07421875 l 1
 607.639648438 1174.94921875 l 1
EndSplineSet
EndChar

StartChar: denpabu_iy
Encoding: 174 -1 149
Width: 1215
VWidth: 3640
Flags: W
HStem: 278.256 100<247.817 1070.29> 579.015 100<592.701 811.329> 1095.01 100<592.701 811.329>
VStem: 147.817 100<377.482 1191.72> 400.015 100<773.256 1000.77> 904.015 100<773.256 1000.77>
AnchorPoint: "Above" 0 500 basechar 0
LayerCount: 2
Back
SplineSet
197.817382812 1141.71777344 m 5
 197.817382812 327.432617188 l 1
 1020.34472656 328.255859375 l 1025
450.014648438 887.014648438 m 0
 450.014648438 958.301757812 474.5859375 1019.12304688 523.729492188 1069.47949219 c 0
 572.872070312 1119.8359375 632.30078125 1145.01464844 702.014648438 1145.01464844 c 0
 771.728515625 1145.01464844 831.157226562 1119.8359375 880.299804688 1069.47949219 c 0
 929.443359375 1019.12304688 954.014648438 958.301757812 954.014648438 887.014648438 c 0
 954.014648438 815.727539062 929.443359375 754.90625 880.299804688 704.549804688 c 0
 831.157226562 654.193359375 771.728515625 629.014648438 702.014648438 629.014648438 c 0
 632.30078125 629.014648438 572.872070312 654.193359375 523.729492188 704.549804688 c 0
 474.5859375 754.90625 450.014648438 815.727539062 450.014648438 887.014648438 c 0
EndSplineSet
Fore
SplineSet
400.014648438 887.014648438 m 0
 400.014648438 970.327148438 430.145507812 1045.17382812 487.9453125 1104.40136719 c 0
 545.7734375 1163.65722656 619.592773438 1195.01464844 702.014648438 1195.01464844 c 0
 784.436523438 1195.01464844 858.255859375 1163.65722656 916.083007812 1104.40136719 c 0
 973.884765625 1045.17382812 1004.01464844 970.327148438 1004.01464844 887.014648438 c 0
 1004.01464844 803.702148438 973.883789062 728.85546875 916.083984375 669.627929688 c 0
 858.255859375 610.372070312 784.436523438 579.014648438 702.014648438 579.014648438 c 0
 619.592773438 579.014648438 545.7734375 610.372070312 487.946289062 669.627929688 c 0
 430.14453125 728.85546875 400.014648438 803.702148438 400.014648438 887.014648438 c 0
500.014648438 887.014648438 m 0
 500.014648438 827.752929688 519.02734375 780.95703125 559.512695312 739.471679688 c 0
 599.970703125 698.014648438 645.008789062 679.014648438 702.014648438 679.014648438 c 0
 759.020507812 679.014648438 804.05859375 698.014648438 844.515625 739.471679688 c 0
 885.002929688 780.95703125 904.014648438 827.752929688 904.014648438 887.014648438 c 0
 904.014648438 946.276367188 885.001953125 993.072265625 844.516601562 1034.55761719 c 0
 804.05859375 1076.01464844 759.020507812 1095.01464844 702.014648438 1095.01464844 c 0
 645.008789062 1095.01464844 599.970703125 1076.01464844 559.513671875 1034.55761719 c 0
 519.026367188 993.072265625 500.014648438 946.276367188 500.014648438 887.014648438 c 0
197.817382812 1191.71777344 m 1
 247.817382812 1191.71777344 l 1
 247.817382812 1141.71777344 l 1
 247.817382812 377.482421875 l 1
 1020.29492188 378.255859375 l 1
 1070.29492188 378.305664062 l 1
 1070.34472656 328.305664062 l 1
 1070.39453125 278.305664062 l 1
 1020.39453125 278.255859375 l 1
 197.8671875 277.432617188 l 2
 176.315429688 277.411132812 147.817382812 297.18359375 147.817382812 327.432617188 c 2
 147.817382812 1141.71777344 l 1
 147.817382812 1191.71777344 l 1
 197.817382812 1191.71777344 l 1
EndSplineSet
Ligature2: "Vdenpabu subtable" denpabu iy
EndChar

StartChar: denpabu_uy
Encoding: 175 -1 150
Width: 1215
VWidth: 3640
Flags: W
HStem: 278.256 100<147.817 973.642> 577.515 100<405.201 623.829> 1093.51 100<405.201 623.829>
VStem: 212.515 100<771.756 999.274> 716.515 100<771.756 999.274> 973.642 100<378.256 1201.61>
AnchorPoint: "Above" 0 500 basechar 0
LayerCount: 2
Back
SplineSet
197.817382812 328.255859375 m 1
 1023.64160156 328.255859375 l 1
 1023.64160156 1151.60839844 l 1025
262.514648438 885.514648438 m 0
 262.514648438 956.801757812 287.0859375 1017.62304688 336.229492188 1067.97949219 c 0
 385.372070312 1118.3359375 444.80078125 1143.51464844 514.514648438 1143.51464844 c 0
 584.228515625 1143.51464844 643.657226562 1118.3359375 692.799804688 1067.97949219 c 0
 741.943359375 1017.62304688 766.514648438 956.801757812 766.514648438 885.514648438 c 0
 766.514648438 814.227539062 741.943359375 753.40625 692.799804688 703.049804688 c 0
 643.657226562 652.693359375 584.228515625 627.514648438 514.514648438 627.514648438 c 0
 444.80078125 627.514648438 385.372070312 652.693359375 336.229492188 703.049804688 c 0
 287.0859375 753.40625 262.514648438 814.227539062 262.514648438 885.514648438 c 0
EndSplineSet
Fore
SplineSet
212.514648438 885.514648438 m 0
 212.514648438 968.827148438 242.645507812 1043.67382812 300.4453125 1102.90136719 c 0
 358.2734375 1162.15722656 432.092773438 1193.51464844 514.514648438 1193.51464844 c 0
 596.936523438 1193.51464844 670.755859375 1162.15722656 728.583007812 1102.90136719 c 0
 786.384765625 1043.67382812 816.514648438 968.827148438 816.514648438 885.514648438 c 0
 816.514648438 802.202148438 786.383789062 727.35546875 728.583984375 668.127929688 c 0
 670.755859375 608.872070312 596.936523438 577.514648438 514.514648438 577.514648438 c 0
 432.092773438 577.514648438 358.2734375 608.872070312 300.446289062 668.127929688 c 0
 242.64453125 727.35546875 212.514648438 802.202148438 212.514648438 885.514648438 c 0
312.514648438 885.514648438 m 0
 312.514648438 826.252929688 331.52734375 779.45703125 372.012695312 737.971679688 c 0
 412.470703125 696.514648438 457.508789062 677.514648438 514.514648438 677.514648438 c 0
 571.520507812 677.514648438 616.55859375 696.514648438 657.015625 737.971679688 c 0
 697.502929688 779.45703125 716.514648438 826.252929688 716.514648438 885.514648438 c 0
 716.514648438 944.776367188 697.501953125 991.572265625 657.016601562 1033.05761719 c 0
 616.55859375 1074.51464844 571.520507812 1093.51464844 514.514648438 1093.51464844 c 0
 457.508789062 1093.51464844 412.470703125 1074.51464844 372.013671875 1033.05761719 c 0
 331.526367188 991.572265625 312.514648438 944.776367188 312.514648438 885.514648438 c 0
147.817382812 328.255859375 m 1
 147.817382812 378.255859375 l 1
 197.817382812 378.255859375 l 1
 973.641601562 378.255859375 l 1
 973.641601562 1151.60839844 l 1
 973.641601562 1201.60839844 l 1
 1023.64160156 1201.60839844 l 1
 1073.64160156 1201.60839844 l 1
 1073.64160156 1151.60839844 l 1
 1073.64160156 328.255859375 l 2
 1073.64160156 306.795898438 1053.90625 278.255859375 1023.64160156 278.255859375 c 2
 197.817382812 278.255859375 l 1
 147.817382812 278.255859375 l 1
 147.817382812 328.255859375 l 1
EndSplineSet
Ligature2: "Vdenpabu subtable" denpabu uy
EndChar

StartChar: .notdef
Encoding: 257 -1 162
Width: 0
VWidth: 345
Flags: W
HStem: -319.485 100<132.358 557.515 657.515 1182.51>
VStem: 32.5146 99.8438<-219.485 264.858> 557.515 100<-219.485 -34.9854>
LayerCount: 2
Back
SplineSet
607.514648438 -269.485351562 m 5
 607.514648438 -84.9853515625 l 1025
81 215.014648438 m 29
 82.5146484375 -269.485351562 l 1
 1132.51464844 -269.485351562 l 1025
EndSplineSet
Fore
SplineSet
80.84375 265.014648438 m 1
 130.84375 265.170898438 l 1
 131 215.170898438 l 1
 132.358398438 -219.485351562 l 1
 557.514648438 -219.485351562 l 1
 557.514648438 -84.9853515625 l 1
 557.514648438 -34.9853515625 l 1
 607.514648438 -34.9853515625 l 1
 657.514648438 -34.9853515625 l 1
 657.514648438 -84.9853515625 l 1
 657.514648438 -219.485351562 l 1
 1132.51464844 -219.485351562 l 1
 1182.51464844 -219.485351562 l 1
 1182.51464844 -269.485351562 l 1
 1182.51464844 -319.485351562 l 1
 1132.51464844 -319.485351562 l 1
 657.514648438 -319.485351562 l 1
 607.514648438 -319.485351562 l 1
 557.514648438 -319.485351562 l 1
 82.5146484375 -319.485351562 l 2
 57.7529296875 -319.485351562 32.603515625 -298.102539062 32.5146484375 -269.641601562 c 2
 31 214.858398438 l 1
 30.84375 264.858398438 l 1
 80.84375 265.014648438 l 1
EndSplineSet
EndChar

StartChar: NameMe.192
Encoding: 258 -1 163
Width: 1000
VWidth: 0
Flags: W
HStem: -182 100<215.002 516.002> -48 100<115 115.003 215.007 516.003> 85 100<215.008 516.008> 217.01 100<-17 750> 350 100<215.002 516.002> 484 100<115 115.003 215.007 516.003> 617 100<215.008 516.008>
VStem: 115.003 99.999<-82 -48 52 85 450 484 584 617> 516.002 99.998<-82 -48 52 85 450 484 584 617>
LayerCount: 2
Back
SplineSet
165.009765625 135 m 5
 566.009765625 135 l 1
 566 -132 l 1
 165 -132 l 1
 165.009765625 135 l 5
165 2 m 5
 566 2 l 1025
33 267.009765625 m 25
 700 267.009765625 l 1025
165.009765625 667 m 1
 566.009765625 667 l 1
 566 400 l 1
 165 400 l 1
 165.009765625 667 l 1
165 534 m 1
 566 534 l 1025
EndSplineSet
Fore
SplineSet
115 534 m 1
 115 584 l 1
 115.006835938 584 l 1
 115.006835938 611.666992188 115.009765625 639.334960938 115.009765625 667.001953125 c 0
 115.010742188 695.405273438 139.963867188 717 165.009765625 717 c 2
 566.009765625 717 l 2
 596.274414062 717 616.010742188 688.4609375 616.009765625 666.998046875 c 2
 616 399.998046875 l 2
 615.999023438 371.594726562 591.045898438 350 566 350 c 2
 165 350 l 2
 134.735351562 350 114.999023438 378.5390625 115 400.001953125 c 0
 115 428.000976562 115.002929688 456.000976562 115.002929688 484 c 1
 115 484 l 1
 115 534 l 1
-17 267.009765625 m 1
 -17 317.009765625 l 1
 33 317.009765625 l 1
 700 317.009765625 l 1
 750 317.009765625 l 1
 750 267.009765625 l 1
 750 217.009765625 l 1
 700 217.009765625 l 1
 33 217.009765625 l 1
 -17 217.009765625 l 1
 -17 267.009765625 l 1
115 2 m 1
 115 52 l 1
 115.006835938 52 l 1
 115.006835938 79.6669921875 115.009765625 107.334960938 115.009765625 135.001953125 c 0
 115.010742188 163.405273438 139.963867188 185 165.009765625 185 c 2
 566.009765625 185 l 2
 596.274414062 185 616.010742188 156.4609375 616.009765625 134.998046875 c 2
 616 -132.001953125 l 2
 615.999023438 -160.405273438 591.045898438 -182 566 -182 c 2
 165 -182 l 2
 134.735351562 -182 114.999023438 -153.4609375 115 -131.998046875 c 0
 115 -103.999023438 115.002929688 -75.9990234375 115.002929688 -48 c 1
 115 -48 l 1
 115 2 l 1
516.006835938 584 m 1
 516.006835938 595 516.0078125 606 516.0078125 617 c 1
 215.0078125 617 l 1
 215.0078125 606 215.006835938 595 215.006835938 584 c 1
 516.006835938 584 l 1
516.002929688 484 m 1
 215.002929688 484 l 1
 215.002929688 472.666992188 215.001953125 461.333007812 215.001953125 450 c 1
 516.001953125 450 l 1
 516.001953125 461.333007812 516.002929688 472.666992188 516.002929688 484 c 1
516.006835938 52 m 1
 516.006835938 63 516.0078125 74 516.0078125 85 c 1
 215.0078125 85 l 1
 215.0078125 74 215.006835938 63 215.006835938 52 c 1
 516.006835938 52 l 1
516.002929688 -48 m 1
 215.002929688 -48 l 1
 215.002929688 -59.3330078125 215.001953125 -70.6669921875 215.001953125 -82 c 1
 516.001953125 -82 l 1
 516.001953125 -70.6669921875 516.002929688 -59.3330078125 516.002929688 -48 c 1
EndSplineSet
EndChar

StartChar: zy_dy
Encoding: 259 -1 164
Width: 900
VWidth: 345
Flags: W
HStem: 501 100<200 400 500 800> 801 100<200 400 500 701> 1101 100<500 800>
VStem: 100 100<601 801 901 1201> 400 100<601 801 901 1101>
CounterMasks: 1 e0
LayerCount: 2
Back
SplineSet
450 551.75 m 28
 450 1151 l 29
 750 1151 l 1053
750 551 m 5
 150 551 l 5
 150 1151 l 1053
651 851 m 29
 150 851 l 1029
EndSplineSet
Fore
SplineSet
701 851 m 1
 701 801 l 1
 651 801 l 1
 500 801 l 1
 500 601 l 1
 750 601 l 1
 800 601 l 1
 800 551 l 1
 800 501 l 1
 750 501 l 1
 150 501 l 2
 119.735351562 501 100 529.540039062 100 551 c 2
 100 801 l 1
 100 851 l 1
 100 901 l 1
 100 1151 l 1
 100 1201 l 1
 150 1201 l 1
 200 1201 l 1
 200 1151 l 1
 200 901 l 1
 400 901 l 1
 400 1151 l 2
 400 1181.26464844 428.540039062 1201 450 1201 c 2
 750 1201 l 1
 800 1201 l 1
 800 1151 l 1
 800 1101 l 1
 750 1101 l 1
 500 1101 l 1
 500 901 l 1
 651 901 l 1
 701 901 l 1
 701 851 l 1
200 801 m 1
 200 601 l 1
 400 601 l 1
 400 801 l 1
 200 801 l 1
EndSplineSet
EndChar

StartChar: zy_vy
Encoding: 195 -1 165
Width: 900
VWidth: 0
Flags: W
HStem: 501 100<200 400 500 615.948> 801 100<200 400> 1181 20G<100 200 400 500>
VStem: 100 100<601 801 901 1201> 400 100<601 801 901 1201>
AnchorPoint: "Above" 0 500 basechar 0
LayerCount: 2
Back
SplineSet
450 1151 m 29
 450 551.75 l 1052
861 1148 m 4
 812 1083 767 992 726 875 c 132
 685 758 663 650 660 551 c 5
 150 551 l 5
 150 1151 l 1053
439.5 851 m 29
 150 851 l 1029
EndSplineSet
Fore
SplineSet
891.098632812 1187.92578125 m 1
 931.024414062 1157.828125 l 1
 900.92578125 1117.90136719 l 2
 856.521484375 1058.99707031 813.103515625 972.374023438 773.186523438 858.46484375 c 0
 733.505859375 745.229492188 712.786132812 642.17578125 709.977539062 549.485351562 c 0
 709.158203125 522.4765625 685.974609375 501 660 501 c 2
 150 501 l 2
 119.735351562 501 100 529.540039062 100 551 c 2
 100 801 l 1
 100 851 l 1
 100 901 l 1
 100 1151 l 1
 100 1201 l 1
 150 1201 l 1
 200 1201 l 1
 200 1151 l 1
 200 901 l 1
 400 901 l 1
 400 1151 l 1
 400 1201 l 1
 450 1201 l 1
 500 1201 l 1
 500 1151 l 1
 500 601 l 1
 612.864257812 601 l 1
 620.688476562 691.271484375 642.9375 789.157226562 678.813476562 891.53515625 c 0
 720.896484375 1011.62597656 767.478515625 1107.00292969 821.07421875 1178.09863281 c 2
 851.171875 1218.02441406 l 1
 891.098632812 1187.92578125 l 1
200 801 m 1
 200 601 l 1
 400 601 l 1
 400 801 l 1
 200 801 l 1
EndSplineSet
EndChar

StartChar: NameMe.210
Encoding: 210 -1 166
Width: 900
VWidth: 0
Flags: W
HStem: 501 100<100 400 500 800> 801 100<500 700> 1101 100<100 400 500 700>
VStem: 400 100<601 801 901 1101> 700 100<901 1101>
CounterMasks: 1 e0
LayerCount: 2
Back
SplineSet
450 1151 m 5
 750 1151 l 5
 750 851 l 5
 450 851 l 1029
150 551 m 5
 750 551 l 1029
150 1151 m 5
 450 1151 l 5
 450 551 l 1029
EndSplineSet
Fore
SplineSet
100 1151 m 1
 100 1201 l 1
 150 1201 l 1
 400 1201 l 1
 450 1201 l 1
 750 1201 l 2
 780.264648438 1201 800 1172.45996094 800 1151 c 2
 800 851 l 2
 800 820.735351562 771.459960938 801 750 801 c 2
 500 801 l 1
 500 601 l 1
 750 601 l 1
 800 601 l 1
 800 551 l 1
 800 501 l 1
 750 501 l 1
 500 501 l 1
 450 501 l 1
 400 501 l 1
 150 501 l 1
 100 501 l 1
 100 551 l 1
 100 601 l 1
 150 601 l 1
 400 601 l 1
 400 801 l 1
 400 851 l 1
 400 901 l 1
 400 1101 l 1
 150 1101 l 1
 100 1101 l 1
 100 1151 l 1
500 1101 m 1
 500 901 l 1
 700 901 l 1
 700 1101 l 1
 500 1101 l 1
EndSplineSet
EndChar

StartChar: NameMe.242
Encoding: 242 -1 167
Width: 900
VWidth: 0
Flags: W
HStem: 489.004 21G<710.162 763.995> 501 100<100 400> 1101 100<100 400>
VStem: 400 100<676.177 1019.97>
LayerCount: 2
Back
SplineSet
450 1118 m 29
 450 581 l 1053
750 551 m 5
 683.767578125 778.170898438 604.852539062 1015.43066406 450 1151 c 5
 150 1151 l 1029
750 1151 m 5
 683.127929688 944.290039062 602.469726562 660.912109375 450 551 c 5
 150 551 l 1053
EndSplineSet
Fore
SplineSet
765.389648438 1198.57226562 m 1x70
 812.962890625 1183.18261719 l 1
 797.572265625 1135.61035156 l 2
 770.112304688 1050.72558594 740.567382812 949.638671875 702.70703125 851.508789062 c 1
 740.473632812 758.229492188 770.352539062 659.827148438 798.000976562 564.995117188 c 2
 811.99609375 516.993164062 l 1
 763.995117188 502.999023438 l 1
 715.993164062 489.00390625 l 1xb0
 701.999023438 537.004882812 l 2
 684.075195312 598.479492188 665.176757812 660.004882812 644.381835938 719.458984375 c 1
 600.7265625 634.3828125 547.358398438 559.545898438 479.23828125 510.440429688 c 0
 470.6875 504.276367188 458.911132812 501 450 501 c 2
 150 501 l 1
 100 501 l 1
 100 551 l 1
 100 601 l 1
 150 601 l 1
 400 601 l 1
 400 1101 l 1
 150 1101 l 1
 100 1101 l 1
 100 1151 l 1
 100 1201 l 1
 150 1201 l 1
 450 1201 l 2
 461.598632812 1201 473.8359375 1196.58691406 482.935546875 1188.62011719 c 0
 547.515625 1132.08203125 598.969726562 1061.19140625 641.586914062 982.538085938 c 1
 663.530273438 1045.18261719 683.598632812 1108.18652344 702.427734375 1166.38964844 c 2
 717.817382812 1213.96289062 l 1
 765.389648438 1198.57226562 l 1x70
592.298828125 852.724609375 m 1
 565.206054688 914.080078125 534.866210938 970.811523438 500 1019.96972656 c 1
 500 676.176757812 l 1
 534.203125 725.41796875 564.680664062 786.616210938 592.298828125 852.724609375 c 1
EndSplineSet
EndChar

StartChar: NameMe.212
Encoding: 212 -1 168
Width: 900
VWidth: 0
Flags: W
HStem: 501 100<500 800> 801 100<500 700> 1101 100<200 400 500 700>
VStem: 100 100<501 1101> 400 100<601 801 901 1101> 700 100<901 1101>
CounterMasks: 1 fc
LayerCount: 2
Back
SplineSet
450 851 m 5
 750 851 l 5
 750 1151 l 5
 450 1151 l 5
 150 1151 l 5
 150 551 l 1052
750 551 m 5
 450 551 l 5
 450 1151 l 1029
EndSplineSet
Fore
SplineSet
800 551 m 1
 800 501 l 1
 750 501 l 1
 450 501 l 2
 419.735351562 501 400 529.540039062 400 551 c 2
 400 801 l 1
 400 851 l 1
 400 901 l 1
 400 1101 l 1
 200 1101 l 1
 200 551 l 1
 200 501 l 1
 150 501 l 1
 100 501 l 1
 100 551 l 1
 100 1151 l 2
 100 1172.45996094 119.735351562 1201 150 1201 c 2
 400 1201 l 1
 450 1201 l 1
 500 1201 l 1
 750 1201 l 2
 771.459960938 1201 800 1181.26464844 800 1151 c 2
 800 851 l 2
 800 829.540039062 780.264648438 801 750 801 c 2
 500 801 l 1
 500 601 l 1
 750 601 l 1
 800 601 l 1
 800 551 l 1
500 1101 m 1
 500 901 l 1
 700 901 l 1
 700 1101 l 1
 500 1101 l 1
EndSplineSet
EndChar

StartChar: NameMe.244
Encoding: 244 -1 169
Width: 900
VWidth: 0
Flags: W
HStem: 501 9.00391G<100 200 710.162 763.995> 1101 100<200 400>
VStem: 100 100<501 1101> 400 100<674.939 1019.97>
LayerCount: 2
Back
SplineSet
750 551 m 5
 683.767578125 778.170898438 604.852539062 1015.43066406 450 1151 c 5
 150 1151 l 5
 150 551 l 1052
750 1151 m 5
 683.127929688 944.290039062 602.469726562 660.912109375 450 551 c 13
 450 1101.5 l 1053
EndSplineSet
Fore
SplineSet
765.389648438 1198.57226562 m 1
 812.962890625 1183.18261719 l 1
 797.572265625 1135.61035156 l 2
 770.112304688 1050.72558594 740.567382812 949.638671875 702.70703125 851.508789062 c 1
 740.473632812 758.229492188 770.352539062 659.827148438 798.000976562 564.995117188 c 2
 811.99609375 516.993164062 l 1
 763.995117188 502.999023438 l 1
 715.993164062 489.00390625 l 1
 701.999023438 537.004882812 l 2
 684.075195312 598.479492188 665.176757812 660.004882812 644.381835938 719.458984375 c 1
 600.7265625 634.3828125 547.358398438 559.545898438 479.23828125 510.440429688 c 0
 455.923828125 493.633789062 422.197265625 500.47265625 407.271484375 525.033203125 c 0
 402.52734375 532.840820312 400 542.178710938 400 551 c 2
 400 1101 l 1
 200 1101 l 1
 200 551 l 1
 200 501 l 1
 150 501 l 1
 100 501 l 1
 100 551 l 1
 100 1151 l 2
 100 1172.45996094 119.735351562 1201 150 1201 c 2
 450 1201 l 2
 461.598632812 1201 473.8359375 1196.58691406 482.935546875 1188.62011719 c 0
 547.673828125 1131.94335938 599.22265625 1060.84277344 641.901367188 981.958984375 c 1
 663.778320312 1045.13964844 683.697265625 1108.4921875 702.427734375 1166.38964844 c 2
 717.817382812 1213.96289062 l 1
 765.389648438 1198.57226562 l 1
500 1019.96972656 m 1
 500 674.939453125 l 1
 534.670898438 723.767578125 565.271484375 785.139648438 592.834960938 851.509765625 c 1
 565.606445312 913.331054688 535.095703125 970.487304688 500 1019.96972656 c 1
EndSplineSet
EndChar

StartChar: NameMe.209
Encoding: 209 -1 170
Width: 900
VWidth: 0
Flags: W
HStem: 501 100<200 400 500 800> 801 100<500 700> 1101 100<200 700>
VStem: 100 100<601 1101> 400 100<601 801> 700 100<901 1101>
CounterMasks: 1 fc
LayerCount: 2
Back
SplineSet
450 1151 m 5
 750 1151 l 5
 750 851 l 5
 450 851 l 13
 450 551 l 1053
450 1151 m 5
 150 1151 l 5
 150 551 l 5
 750 551 l 1029
EndSplineSet
Fore
SplineSet
400 1101 m 1
 200 1101 l 1
 200 601 l 1
 400 601 l 1
 400 851 l 2
 400 872.459960938 419.735351562 901 450 901 c 2
 700 901 l 1
 700 1101 l 1
 500 1101 l 1
 450 1101 l 1
 400 1101 l 1
400 501 m 1
 150 501 l 2
 128.540039062 501 100 520.735351562 100 551 c 2
 100 1151 l 2
 100 1172.45996094 119.735351562 1201 150 1201 c 2
 400 1201 l 1
 450 1201 l 1
 500 1201 l 1
 750 1201 l 2
 780.264648438 1201 800 1172.45996094 800 1151 c 2
 800 851 l 2
 800 820.735351562 771.459960938 801 750 801 c 2
 500 801 l 1
 500 601 l 1
 750 601 l 1
 800 601 l 1
 800 551 l 1
 800 501 l 1
 750 501 l 1
 500 501 l 1
 450 501 l 1
 400 501 l 1
EndSplineSet
EndChar

StartChar: zy_by
Encoding: 227 -1 171
Width: 900
VWidth: 0
Flags: W
HStem: 501 100<200 400 500 800> 801 100<200 400> 1101 100<500 800>
VStem: 100 100<601 801 901 1201> 400 100<601 801 901 1101>
CounterMasks: 1 e0
LayerCount: 2
Back
SplineSet
450 551.75 m 28
 450 1151 l 29
 750 1151 l 1053
750 551 m 5
 150 551 l 5
 150 1151 l 1053
439.5 851 m 29
 150 851 l 1029
EndSplineSet
Fore
SplineSet
800 551 m 1
 800 501 l 1
 750 501 l 1
 150 501 l 2
 119.735351562 501 100 529.540039062 100 551 c 2
 100 801 l 1
 100 851 l 1
 100 901 l 1
 100 1151 l 1
 100 1201 l 1
 150 1201 l 1
 200 1201 l 1
 200 1151 l 1
 200 901 l 1
 400 901 l 1
 400 1151 l 2
 400 1181.26464844 428.540039062 1201 450 1201 c 2
 750 1201 l 1
 800 1201 l 1
 800 1151 l 1
 800 1101 l 1
 750 1101 l 1
 500 1101 l 1
 500 601 l 1
 750 601 l 1
 800 601 l 1
 800 551 l 1
200 801 m 1
 200 601 l 1
 400 601 l 1
 400 801 l 1
 200 801 l 1
EndSplineSet
EndChar

StartChar: zy_gy
Encoding: 291 -1 172
Width: 900
VWidth: 0
Flags: W
HStem: 501 100.125<200 400> 801 100<200 400> 1181 20G<100 200 400 500>
VStem: 100 100<601.125 801 901 1201> 400 100<601.625 728.152 971.711 1201>
LayerCount: 2
Back
SplineSet
750 1151 m 29
 448.5 849.5 l 29
 750 551 l 1053
150 1151 m 29
 150 551 l 5
 450 551.75 l 28
 450 1151 l 1053
439.5 851 m 29
 150 851 l 1029
EndSplineSet
Fore
SplineSet
150 1201 m 1
 200 1201 l 1
 200 1151 l 1
 200 901 l 1
 400 901 l 1
 400 1151 l 1
 400 1201 l 1
 450 1201 l 1
 500 1201 l 1
 500 1151 l 1
 500 971.7109375 l 1
 714.64453125 1186.35546875 l 1
 750 1221.7109375 l 1
 785.35546875 1186.35546875 l 1
 820.7109375 1151 l 1
 785.35546875 1115.64453125 l 1
 519.387695312 849.676757812 l 1
 785.177734375 586.53125 l 1
 820.709960938 551.353515625 l 1
 785.53125 515.822265625 l 1
 750.353515625 480.290039062 l 1
 714.822265625 515.46875 l 1
 500 728.15234375 l 1
 500 551.75 l 2
 500 526.930664062 478.57421875 501.821289062 450.125 501.75 c 2
 150.125 501 l 2
 128.43359375 500.946289062 100 520.775390625 100 551 c 2
 100 801 l 1
 100 851 l 1
 100 901 l 1
 100 1151 l 1
 100 1201 l 1
 150 1201 l 1
400 801 m 1
 200 801 l 1
 200 601.125 l 1
 400 601.625 l 1
 400 801 l 1
EndSplineSet
EndChar

StartChar: zy_my
Encoding: 323 -1 173
Width: 900
VWidth: 0
Flags: W
HStem: 501 100<200 400 500 700> 801 100<200 400> 1101 100<500 700>
VStem: 100 100<601 801 901 1201> 400 100<601 801 901 1101> 700 100<601 1101>
CounterMasks: 1 fc
LayerCount: 2
Back
SplineSet
450 551.75 m 28
 450 1151 l 29
 750 1151 l 29
 750 551 l 5
 150 551 l 5
 150 1151 l 1053
439.5 851 m 29
 150 851 l 1029
EndSplineSet
Fore
SplineSet
500 601 m 1
 700 601 l 1
 700 1101 l 1
 500 1101 l 1
 500 601 l 1
200 801 m 1
 200 601 l 1
 400 601 l 1
 400 801 l 1
 200 801 l 1
200 901 m 1
 400 901 l 1
 400 1151 l 2
 400 1181.26464844 428.540039062 1201 450 1201 c 2
 750 1201 l 2
 780.264648438 1201 800 1172.45996094 800 1151 c 2
 800 551 l 2
 800 520.735351562 771.459960938 501 750 501 c 2
 450 501 l 1
 150 501 l 2
 119.735351562 501 100 529.540039062 100 551 c 2
 100 801 l 1
 100 851 l 1
 100 901 l 1
 100 1151 l 1
 100 1201 l 1
 150 1201 l 1
 200 1201 l 1
 200 1151 l 1
 200 901 l 1
EndSplineSet
EndChar

StartChar: NameMe.241
Encoding: 241 -1 174
Width: 900
VWidth: 0
Flags: W
HStem: 489.004 21G<710.162 763.995> 501 100<200 466.81> 1101 100<200 460.71>
VStem: 100 100<601 1101>
LayerCount: 2
Back
SplineSet
750 551 m 5
 683.767578125 778.170898438 604.852539062 1015.43066406 450 1151 c 5
 150 1151 l 5
 150 551 l 29
 450 551 l 5
 602.469726562 660.912109375 683.127929688 944.290039062 750 1151 c 1029
EndSplineSet
Fore
SplineSet
593.481445312 851.729492188 m 1x70
 589.87890625 859.912109375 586.115234375 868.251953125 582.5 876.033203125 c 0
 540.912109375 965.559570312 490.598632812 1044.1171875 430.647460938 1101 c 1
 200 1101 l 1
 200 601 l 1
 433.033203125 601 l 1
 490.077148438 647.752929688 540.057617188 729.336914062 582.389648438 825.770507812 c 0
 586.134765625 834.30078125 589.841796875 842.986328125 593.481445312 851.729492188 c 1x70
641.921875 980.76953125 m 1
 663.784179688 1044.35546875 683.626953125 1108.27539062 702.427734375 1166.38964844 c 2
 717.817382812 1213.96289062 l 1
 765.389648438 1198.57226562 l 1
 812.962890625 1183.18261719 l 1
 797.572265625 1135.61035156 l 2
 772.538085938 1058.22460938 745.161132812 968.6328125 712.225585938 880.4453125 c 0
 708.830078125 871.353515625 705.235351562 861.916992188 701.645507812 852.686523438 c 1
 705.463867188 843.3125 709.22265625 833.841796875 712.875 824.415039062 c 0
 745.737304688 739.590820312 772.879882812 651.16015625 798.000976562 564.995117188 c 2
 811.99609375 516.993164062 l 1
 763.995117188 502.999023438 l 1
 715.993164062 489.00390625 l 1xb0
 701.999023438 537.004882812 l 2
 683.915039062 599.029296875 664.94921875 661.517578125 643.9609375 721.89453125 c 1
 600.958007812 637.286132812 548.858398438 560.626953125 479.23828125 510.440429688 c 0
 472.009765625 505.229492188 460.541015625 501 450 501 c 2
 150 501 l 2
 128.540039062 501 100 520.735351562 100 551 c 2
 100 1151 l 2
 100 1172.45996094 119.735351562 1201 150 1201 c 2
 450 1201 l 2
 461.598632812 1201 473.8359375 1196.58691406 482.935546875 1188.62011719 c 0
 547.921875 1131.72558594 599.377929688 1059.70410156 641.921875 980.76953125 c 1
EndSplineSet
EndChar

StartChar: NameMe.240
Encoding: 240 -1 175
Width: 900
VWidth: 0
Flags: W
HStem: 501 100<200 400> 1101 100<200 400>
VStem: 100 100<601 1101> 400 100<675.992 1022.73>
LayerCount: 2
Back
SplineSet
450 1122.5 m 29
 450 575 l 1053
750 551 m 4
 708 694 665 814.5 621 912.5 c 4
 577 1010.5 520 1090 450 1151 c 5
 150 1151 l 5
 150 551 l 5
 450 551 l 5
 467 563 483 576.75 498 592.25 c 4
 513 607.75 527.75 626.75 542.25 649.25 c 4
 556.75 671.75 569.25 691.25 579.75 707.75 c 4
 590.25 724.25 602.5 748.5 616.5 780.5 c 4
 630.5 812.5 640.75 835.75 647.25 850.25 c 4
 653.75 864.75 663.75 891.25 677.25 929.75 c 4
 690.75 968.25 699.25 992.5 702.75 1002.5 c 4
 706.25 1012.5 714.75 1038.75 728.25 1081.25 c 4
 741.75 1123.75 749 1147 750 1151 c 1028
EndSplineSet
Fore
SplineSet
593.024414062 851.366210938 m 0
 589.924804688 858.743164062 586.7265625 866.23828125 583.725585938 873.141601562 c 0
 580.947265625 879.534179688 578.166992188 885.827148438 575.38671875 892.020507812 c 0
 553.463867188 940.84765625 528.209960938 984.403320312 500 1022.72753906 c 1
 500 675.9921875 l 2
 500.07421875 676.106445312 500.147460938 676.220703125 500.221679688 676.334960938 c 0
 514.68359375 698.776367188 527.13671875 718.203125 537.567382812 734.59375 c 0
 545.684570312 747.349609375 557.290039062 769.907226562 570.692382812 800.541015625 c 0
 576.967773438 814.884765625 582.495117188 827.483398438 587.278320312 838.345703125 c 0
 589.248046875 842.818359375 591.240234375 847.330078125 593.024414062 851.366210938 c 0
642.677734375 982.264648438 m 1
 649.018554688 1000.34960938 653.336914062 1012.67382812 655.556640625 1019.01757812 c 0
 658.546875 1027.55957031 667.178710938 1054.14746094 680.596679688 1096.38671875 c 0
 693.217773438 1136.12207031 700.665039062 1160.19433594 701.55859375 1163.38867188 c 2
 713.620117188 1211.63378906 l 1
 762.126953125 1199.50683594 l 1
 810.633789062 1187.37988281 l 1
 798.506835938 1138.87304688 l 2
 796.412109375 1130.49316406 789.62109375 1109.29785156 775.903320312 1066.11328125 c 0
 762.321289062 1023.35253906 753.953125 997.440429688 749.943359375 985.982421875 c 0
 746.43359375 975.956054688 737.934570312 951.708984375 724.43359375 913.205078125 c 0
 717.51171875 893.46484375 711.462890625 876.733398438 706.221679688 862.862304688 c 0
 704.63671875 858.666992188 702.9453125 854.272460938 701.418945312 850.375976562 c 0
 704.852539062 841.7109375 708.358398438 832.71875 711.697265625 824.001953125 c 0
 741.055664062 747.354492188 769.77734375 661.092773438 797.973632812 565.08984375 c 2
 812.063476562 517.116210938 l 1
 764.08984375 503.026367188 l 1
 716.116210938 488.936523438 l 1
 702.026367188 536.91015625 l 2
 682.663085938 602.837890625 663.1171875 663.810546875 643.435546875 719.749023438 c 1
 636.049804688 704.909179688 628.9609375 691.950195312 621.932617188 680.90625 c 0
 611.36328125 664.296875 598.81640625 644.723632812 584.278320312 622.165039062 c 0
 568.361328125 597.465820312 551.736328125 575.87890625 533.9296875 557.478515625 c 0
 523.13671875 546.326171875 511.821289062 535.90234375 500 526.243164062 c 1
 500 525 l 1
 498.470703125 525 l 1
 492.071289062 519.825195312 485.524414062 514.874023438 478.833984375 510.151367188 c 0
 471.765625 505.162109375 460.370117188 501 450 501 c 2
 150 501 l 2
 128.540039062 501 100 520.735351562 100 551 c 2
 100 1151 l 2
 100 1172.45996094 119.735351562 1201 150 1201 c 2
 450 1201 l 2
 461.528320312 1201 473.7578125 1196.6171875 482.848632812 1188.6953125 c 0
 546.5 1133.22753906 599.79296875 1063.95996094 642.677734375 982.264648438 c 1
400 1101 m 1
 200 1101 l 1
 200 601 l 1
 400 601 l 1
 400 1101 l 1
EndSplineSet
EndChar

StartChar: NameMe.208
Encoding: 208 -1 176
Width: 900
VWidth: 0
Flags: W
HStem: 501 100<200 400 500 800> 801 100<500 700> 1101 100<200 400 500 700>
VStem: 100 100<601 1101> 400 100<601 801 901 1101> 700 100<901 1101>
CounterMasks: 1 fc
LayerCount: 2
Back
SplineSet
450 1130 m 29
 450 851 l 1053
450 1151 m 5
 750 1151 l 5
 750 851 l 5
 450 851 l 13
 450 551 l 1053
450 1151 m 5
 150 1151 l 5
 150 551 l 5
 750 551 l 1029
EndSplineSet
Fore
SplineSet
400 601 m 1
 400 801 l 1
 400 851 l 1
 400 1101 l 1
 200 1101 l 1
 200 601 l 1
 400 601 l 1
400 501 m 1
 150 501 l 2
 128.540039062 501 100 520.735351562 100 551 c 2
 100 1151 l 2
 100 1172.45996094 119.735351562 1201 150 1201 c 2
 400 1201 l 1
 450 1201 l 1
 500 1201 l 1
 750 1201 l 2
 780.264648438 1201 800 1172.45996094 800 1151 c 2
 800 851 l 2
 800 820.735351562 771.459960938 801 750 801 c 2
 500 801 l 1
 500 601 l 1
 750 601 l 1
 800 601 l 1
 800 551 l 1
 800 501 l 1
 750 501 l 1
 500 501 l 1
 450 501 l 1
 400 501 l 1
500 901 m 1
 700 901 l 1
 700 1101 l 1
 500 1101 l 1
 500 901 l 1
EndSplineSet
EndChar

StartChar: NameMe.214
Encoding: 214 -1 177
Width: 900
VWidth: 0
Flags: W
HStem: 501 100<100 220.351 482.36 700> 900 100<100 298.689 399.5 599> 1101 100<499 700>
VStem: 299.5 100<701.483 900 1000 1201> 700 100<601 1101>
LayerCount: 2
Back
SplineSet
150 950 m 5
 549 950 l 1053
150 551 m 21
 250.5 551 352.471679688 669.895507812 349.5 851 c 1037
549 1151 m 29
 750 1151 l 5
 750 551 l 5
 549 551 l 21
 450 551 351 669.5 349.5 851 c 5
 349.5 1151 l 1053
EndSplineSet
Fore
SplineSet
499 1151 m 1
 499 1201 l 1
 549 1201 l 1
 750 1201 l 2
 780.264648438 1201 800 1172.45996094 800 1151 c 2
 800 551 l 2
 800 520.735351562 771.459960938 501 750 501 c 2
 549 501 l 2
 466.328125 501 395.448242188 554.357421875 350.590820312 637.6171875 c 1
 305.474609375 554.265625 233.07421875 501 150 501 c 2
 100 501 l 1
 100 551 l 1
 100 601 l 1
 150 601 l 2
 208.651367188 601 300.916015625 682.151367188 299.55078125 846.619140625 c 0
 299.530273438 847.865234375 299.514648438 849.112304688 299.50390625 850.362304688 c 2
 298.689453125 900 l 1
 150 900 l 1
 100 900 l 1
 100 950 l 1
 100 1000 l 1
 150 1000 l 1
 299.5 1000 l 1
 299.5 1151 l 1
 299.5 1201 l 1
 349.5 1201 l 1
 399.5 1201 l 1
 399.5 1151 l 1
 399.5 1000 l 1
 549 1000 l 1
 599 1000 l 1
 599 950 l 1
 599 900 l 1
 549 900 l 1
 399.5 900 l 1
 399.5 851.399414062 l 2
 399.520507812 850.08203125 399.536132812 848.766601562 399.545898438 847.453125 c 0
 402.250976562 681.296875 492.552734375 601 549 601 c 2
 700 601 l 1
 700 1101 l 1
 549 1101 l 1
 499 1101 l 1
 499 1151 l 1
EndSplineSet
EndChar

StartChar: NameMe.246
Encoding: 246 -1 178
Width: 900
VWidth: 0
Flags: W
HStem: 501 100<100 220.351> 900 100<100 298.689 399.5 499> 1101 100<599 700>
VStem: 299.5 100<701.483 900 1000 1201> 499 100<617.085 900 1000 1101> 700 100<501 1101>
LayerCount: 2
Back
SplineSet
150 950 m 5
 549 950 l 1053
150 551 m 21
 250.5 551 352.471679688 669.895507812 349.5 851 c 1037
349.5 1151 m 29
 349.5 851 l 5
 351 669.5 450 551 549 551 c 13
 549 1151 l 29
 750 1151 l 13
 750 551 l 1053
EndSplineSet
Fore
SplineSet
349.5 1201 m 1
 399.5 1201 l 1
 399.5 1151 l 1
 399.5 1000 l 1
 499 1000 l 1
 499 1151 l 2
 499 1181.26464844 527.540039062 1201 549 1201 c 2
 750 1201 l 2
 780.264648438 1201 800 1172.45996094 800 1151 c 2
 800 551 l 1
 800 501 l 1
 750 501 l 1
 700 501 l 1
 700 551 l 1
 700 1101 l 1
 599 1101 l 1
 599 1000 l 1
 599 950 l 1
 599 900 l 1
 599 551 l 2
 599 529.540039062 579.264648438 501 549 501 c 0
 466.328125 501 395.448242188 554.357421875 350.590820312 637.616210938 c 1
 305.473632812 554.265625 233.07421875 501 150 501 c 2
 100 501 l 1
 100 551 l 1
 100 601 l 1
 150 601 l 2
 208.651367188 601 300.916015625 682.151367188 299.55078125 846.619140625 c 0
 299.530273438 847.865234375 299.514648438 849.112304688 299.50390625 850.362304688 c 2
 298.689453125 900 l 1
 150 900 l 1
 100 900 l 1
 100 950 l 1
 100 1000 l 1
 150 1000 l 1
 299.5 1000 l 1
 299.5 1151 l 1
 299.5 1201 l 1
 349.5 1201 l 1
399.5 851.399414062 m 2
 399.51953125 850.116210938 399.53515625 848.833984375 399.544921875 847.5546875 c 0
 401.512695312 728.467773438 451.151367188 647.75 499 617.084960938 c 1
 499 900 l 1
 399.5 900 l 1
 399.5 851.399414062 l 2
EndSplineSet
EndChar

StartChar: NameMe.278
Encoding: 278 -1 179
Width: 900
VWidth: 0
Flags: W
HStem: 501 100<100 220.351 482.36 700> 699 100<499 700> 900 100<100 298.689 399.5 599> 1101 100<499 700>
VStem: 299.5 100<701.483 900 1000 1201> 499 301<699 799 1101 1197> 700 100<601 699 799 1101>
LayerCount: 2
Back
SplineSet
549 749 m 29
 750 749 l 1053
150 950 m 5
 549 950 l 1053
150 551 m 21
 250.5 551 352.471679688 669.895507812 349.5 851 c 1037
349.5 1151 m 29
 349.5 851 l 5
 351 669.5 450 551 549 551 c 13
 750 551 l 29
 750 1151 l 29
 549 1151 l 1053
EndSplineSet
Fore
SplineSet
349.5 1201 m 1xfa
 399.5 1201 l 1
 399.5 1151 l 1
 399.5 1000 l 1
 549 1000 l 1
 599 1000 l 1
 599 950 l 1
 599 900 l 1
 549 900 l 1
 399.5 900 l 1
 399.5 851.399414062 l 2
 399.520507812 850.08203125 399.536132812 848.766601562 399.545898438 847.453125 c 0
 402.250976562 681.297851562 492.552734375 601 549 601 c 2
 700 601 l 1
 700 699 l 1xfa
 549 699 l 1
 499 699 l 1
 499 749 l 1
 499 799 l 1xfc
 549 799 l 1
 700 799 l 1
 700 1101 l 1xfa
 549 1101 l 1
 499 1101 l 1
 499 1151 l 1
 499 1201 l 1
 549 1201 l 1
 750 1201 l 2
 771.459960938 1201 800 1181.26464844 800 1151 c 2
 800 799 l 1
 800 749 l 1
 800 699 l 1xfc
 800 551 l 2
 800 529.540039062 780.264648438 501 750 501 c 2
 549 501 l 2
 466.328125 501 395.448242188 554.357421875 350.590820312 637.616210938 c 1
 305.473632812 554.265625 233.07421875 501 150 501 c 2
 100 501 l 1
 100 551 l 1
 100 601 l 1
 150 601 l 2
 208.651367188 601 300.916015625 682.151367188 299.55078125 846.619140625 c 0
 299.530273438 847.865234375 299.514648438 849.112304688 299.50390625 850.362304688 c 2
 298.689453125 900 l 1
 150 900 l 1
 100 900 l 1
 100 950 l 1
 100 1000 l 1
 150 1000 l 1
 299.5 1000 l 1
 299.5 1151 l 1
 299.5 1201 l 1
 349.5 1201 l 1xfa
EndSplineSet
EndChar

StartChar: NameMe.310
Encoding: 310 -1 180
Width: 900
VWidth: 0
Flags: W
HStem: 501 100<100 220.731> 801 100<100 297.41 402.841 599> 1181 20G<299.5 399.5>
VStem: 299.5 100<901 1201>
LayerCount: 2
Back
SplineSet
150 851 m 5
 549 851 l 1053
150 551 m 21
 250.5 551 352.471679688 669.895507812 349.5 851 c 1037
349.5 1151 m 29
 349.5 851 l 5
 351 669.5 450 551 549 551 c 5
 750 851 l 29
 549 1149.5 l 1053
EndSplineSet
Fore
SplineSet
349.5 1201 m 1
 399.5 1201 l 1
 399.5 1151 l 1
 399.5 901 l 1
 549 901 l 1
 599 901 l 1
 599 851 l 1
 599 801 l 1
 549 801 l 1
 402.840820312 801 l 1
 417.438476562 687.182617188 476.822265625 620 524.868164062 604.810546875 c 1
 689.767578125 850.9296875 l 1
 507.526367188 1121.57324219 l 1
 479.598632812 1163.046875 l 1
 521.073242188 1190.97363281 l 1
 562.546875 1218.90136719 l 1
 590.473632812 1177.42675781 l 1
 791.473632812 878.926757812 l 2
 801.86328125 863.499023438 803.036132812 840.329101562 791.538085938 823.168945312 c 2
 590.538085938 523.168945312 l 2
 582.01953125 510.454101562 565.861328125 501 549 501 c 0
 466.328125 501 395.448242188 554.357421875 350.590820312 637.616210938 c 1
 305.473632812 554.265625 233.07421875 501 150 501 c 2
 100 501 l 1
 100 551 l 1
 100 601 l 1
 150 601 l 2
 202.948242188 601 283.290039062 667.135742188 297.41015625 801 c 1
 150 801 l 1
 100 801 l 1
 100 851 l 1
 100 901 l 1
 150 901 l 1
 299.5 901 l 1
 299.5 1151 l 1
 299.5 1201 l 1
 349.5 1201 l 1
EndSplineSet
EndChar

StartChar: NameMe.342
Encoding: 342 -1 181
Width: 900
VWidth: 0
Flags: W
HStem: 501 100<100 220.702 599 700> 801 100<100 297.41 402.872 499> 1101 100<599 700>
VStem: 299.5 100<901 1201> 499 100<617.085 801 901 1101> 700 100<601 1101>
CounterMasks: 1 e0
LayerCount: 2
Back
SplineSet
150 851 m 5
 549 851 l 1053
150 551 m 21
 250.5 551 352.471679688 669.895507812 349.5 851 c 1037
349.5 1151 m 29
 349.5 851 l 5
 351 669.5 450 551 549 551 c 5
 750 551 l 29
 750 1151 l 29
 549 1151 l 29
 549 551 l 1053
EndSplineSet
Fore
SplineSet
599 601 m 1
 700 601 l 1
 700 1101 l 1
 599 1101 l 1
 599 901 l 1
 599 851 l 1
 599 801 l 1
 599 601 l 1
100 551 m 1
 100 601 l 1
 150 601 l 2
 202.948242188 601 283.290039062 667.135742188 297.41015625 801 c 1
 150 801 l 1
 100 801 l 1
 100 851 l 1
 100 901 l 1
 150 901 l 1
 299.5 901 l 1
 299.5 1151 l 1
 299.5 1201 l 1
 349.5 1201 l 1
 399.5 1201 l 1
 399.5 1151 l 1
 399.5 901 l 1
 499 901 l 1
 499 1151 l 2
 499 1172.45996094 518.735351562 1201 549 1201 c 2
 750 1201 l 2
 771.459960938 1201 800 1181.26464844 800 1151 c 2
 800 551 l 2
 800 529.540039062 780.264648438 501 750 501 c 2
 549 501 l 1
 499 501 l 1
 499 508.173828125 l 1
 437.76953125 525.915039062 385.987304688 572.279296875 350.532226562 637.5078125 c 1
 305.411132812 554.21875 233.038085938 501 150 501 c 2
 100 501 l 1
 100 551 l 1
499 801 m 1
 402.872070312 801 l 1
 414.912109375 707.75390625 457.162109375 643.8984375 499 617.084960938 c 1
 499 801 l 1
EndSplineSet
EndChar

StartChar: NameMe.374
Encoding: 374 -1 183
Width: 900
VWidth: 0
Flags: W
HStem: 501 100<100 220.702 599 700> 801 100<100 297.41 402.872 499 599 700> 1101 100<599 700>
VStem: 299.5 100<901 1201> 499 100<617.085 801 901 1101> 700 100<601 801 901 1101>
CounterMasks: 1 e0
LayerCount: 2
Back
SplineSet
150 851 m 5
 744 851 l 1053
150 551 m 21
 250.5 551 352.471679688 669.895507812 349.5 851 c 1037
349.5 1151 m 29
 349.5 851 l 5
 351 669.5 450 551 549 551 c 5
 750 551 l 29
 750 1151 l 29
 549 1151 l 29
 549 551 l 1053
EndSplineSet
Fore
SplineSet
599 601 m 1
 700 601 l 1
 700 801 l 1
 599 801 l 1
 599 601 l 1
100 551 m 1
 100 601 l 1
 150 601 l 2
 202.948242188 601 283.290039062 667.135742188 297.41015625 801 c 1
 150 801 l 1
 100 801 l 1
 100 851 l 1
 100 901 l 1
 150 901 l 1
 299.5 901 l 1
 299.5 1151 l 1
 299.5 1201 l 1
 349.5 1201 l 1
 399.5 1201 l 1
 399.5 1151 l 1
 399.5 901 l 1
 499 901 l 1
 499 1151 l 2
 499 1172.45996094 518.735351562 1201 549 1201 c 2
 750 1201 l 2
 771.459960938 1201 800 1181.26464844 800 1151 c 2
 800 551 l 2
 800 529.540039062 780.264648438 501 750 501 c 2
 549 501 l 1
 499 501 l 1
 499 508.173828125 l 1
 437.76953125 525.915039062 385.987304688 572.279296875 350.532226562 637.5078125 c 1
 305.411132812 554.21875 233.038085938 501 150 501 c 2
 100 501 l 1
 100 551 l 1
499 801 m 1
 402.872070312 801 l 1
 414.912109375 707.75390625 457.162109375 643.8984375 499 617.084960938 c 1
 499 801 l 1
700 901 m 1
 700 1101 l 1
 599 1101 l 1
 599 901 l 1
 700 901 l 1
EndSplineSet
EndChar

StartChar: NameMe.272
Encoding: 272 -1 184
Width: 900
VWidth: 0
Flags: W
HStem: 501 100<-100 2.48535> 1101 100<-100 1.01465>
VStem: -200 100<601 1101> 2.48535 99.6602<716.469 984.981>
LayerCount: 2
Back
SplineSet
51 1106 m 29
 52.5 596 l 1053
450 551 m 5
 51 1151 l 21
 -150 1151 l 5
 -150 551 l 5
 52.5 551 l 13
 450 1151 l 1029
EndSplineSet
Fore
SplineSet
250.796875 940.848632812 m 1
 408.317382812 1178.61425781 l 1
 435.932617188 1220.296875 l 1
 477.614257812 1192.68261719 l 1
 519.296875 1165.06738281 l 1
 491.682617188 1123.38574219 l 1
 310.887695312 850.487304688 l 1
 491.634765625 578.686523438 l 1
 519.321289062 537.052734375 l 1
 477.686523438 509.365234375 l 1
 436.052734375 481.678710938 l 1
 408.365234375 523.313476562 l 1
 250.954101562 760.021484375 l 1
 94.1826171875 523.385742188 l 2
 85.6083984375 510.444335938 69.4208984375 501 52.5 501 c 2
 -150 501 l 2
 -171.459960938 501 -200 520.735351562 -200 551 c 2
 -200 1151 l 2
 -200 1172.45996094 -180.264648438 1201 -150 1201 c 2
 51 1201 l 2
 66.4501953125 1201 83.275390625 1192.76074219 92.634765625 1178.68652344 c 2
 250.796875 940.848632812 l 1
1.0146484375 1101 m 1
 -100 1101 l 1
 -100 601 l 1
 2.4853515625 601 l 1
 1.0146484375 1101 l 1
101.356445312 984.981445312 m 1
 102.145507812 716.46875 l 1
 190.864257812 850.3828125 l 1
 101.356445312 984.981445312 l 1
EndSplineSet
EndChar

StartChar: NameMe.274
Encoding: 274 -1 185
Width: 900
VWidth: 0
Flags: W
HStem: 501 100<-200 2.48535> 1101 100<-200 1.01465>
VStem: 2.48535 99.6602<716.469 984.981>
LayerCount: 2
Back
SplineSet
51 1106 m 29
 52.5 596 l 1053
450 551 m 5
 51 1151 l 21
 -150 1151 l 1029
-150 551 m 5
 52.5 551 l 13
 450 1151 l 1029
EndSplineSet
Fore
SplineSet
-200 551 m 1
 -200 601 l 1
 -150 601 l 1
 2.4853515625 601 l 1
 1.0146484375 1101 l 1
 -150 1101 l 1
 -200 1101 l 1
 -200 1151 l 1
 -200 1201 l 1
 -150 1201 l 1
 51 1201 l 2
 66.4501953125 1201 83.275390625 1192.76074219 92.634765625 1178.68652344 c 2
 250.796875 940.848632812 l 1
 408.317382812 1178.61425781 l 1
 435.932617188 1220.296875 l 1
 477.614257812 1192.68261719 l 1
 519.296875 1165.06738281 l 1
 491.682617188 1123.38574219 l 1
 310.887695312 850.487304688 l 1
 491.634765625 578.686523438 l 1
 519.321289062 537.052734375 l 1
 477.686523438 509.365234375 l 1
 436.052734375 481.678710938 l 1
 408.365234375 523.313476562 l 1
 250.954101562 760.021484375 l 1
 94.1826171875 523.385742188 l 2
 85.6083984375 510.444335938 69.4208984375 501 52.5 501 c 2
 -150 501 l 1
 -200 501 l 1
 -200 551 l 1
190.864257812 850.3828125 m 1
 101.356445312 984.981445312 l 1
 102.145507812 716.46875 l 1
 190.864257812 850.3828125 l 1
EndSplineSet
EndChar

StartChar: NameMe.273
Encoding: 273 -1 186
Width: 900
VWidth: 0
Flags: W
HStem: 501 100<-100 25.6475> 1101 100<-100 24.2041>
VStem: -200 100<601 1101>
LayerCount: 2
Back
SplineSet
450 551 m 5
 51 1151 l 21
 -150 1151 l 5
 -150 551 l 5
 52.5 551 l 13
 450 1151 l 1029
EndSplineSet
Fore
SplineSet
190.864257812 850.3828125 m 1
 24.2041015625 1101 l 1
 -100 1101 l 1
 -100 601 l 1
 25.6474609375 601 l 1
 190.864257812 850.3828125 l 1
250.796875 940.848632812 m 1
 408.317382812 1178.61425781 l 1
 435.932617188 1220.296875 l 1
 477.614257812 1192.68261719 l 1
 519.296875 1165.06738281 l 1
 491.682617188 1123.38574219 l 1
 310.887695312 850.487304688 l 1
 491.634765625 578.686523438 l 1
 519.321289062 537.052734375 l 1
 477.686523438 509.365234375 l 1
 436.052734375 481.678710938 l 1
 408.365234375 523.313476562 l 1
 250.954101562 760.021484375 l 1
 94.1826171875 523.385742188 l 2
 85.6083984375 510.444335938 69.4208984375 501 52.5 501 c 2
 -150 501 l 2
 -171.459960938 501 -200 520.735351562 -200 551 c 2
 -200 1151 l 2
 -200 1172.45996094 -180.264648438 1201 -150 1201 c 2
 51 1201 l 2
 66.4501953125 1201 83.275390625 1192.76074219 92.634765625 1178.68652344 c 2
 250.796875 940.848632812 l 1
EndSplineSet
EndChar

StartChar: NameMe.276
Encoding: 276 -1 187
Width: 900
VWidth: 0
Flags: W
HStem: 501 21G<-200 -100> 1101 100<-100 1>
VStem: -200 100<501 1101> 1 100<716.483 985.517>
LayerCount: 2
Back
SplineSet
51 1110.5 m 5
 51 551 l 29
 450 1151 l 1029
450 551 m 5
 51 1151 l 21
 -150 1151 l 5
 -150 551 l 1029
EndSplineSet
Fore
SplineSet
477.686523438 509.365234375 m 1
 436.052734375 481.678710938 l 1
 408.365234375 523.313476562 l 1
 250.5 760.705078125 l 1
 92.634765625 523.313476562 l 2
 84.5478515625 511.15234375 70.2470703125 502.360351562 54.9228515625 501.154296875 c 0
 26.2705078125 498.899414062 1 522.258789062 1 551 c 2
 1 1101 l 1
 -100 1101 l 1
 -100 551 l 1
 -100 501 l 1
 -150 501 l 1
 -200 501 l 1
 -200 551 l 1
 -200 1151 l 2
 -200 1172.45996094 -180.264648438 1201 -150 1201 c 2
 51 1201 l 2
 66.4501953125 1201 83.275390625 1192.76074219 92.634765625 1178.68652344 c 2
 250.5 941.294921875 l 1
 408.365234375 1178.68652344 l 1
 436.052734375 1220.32128906 l 1
 477.686523438 1192.63476562 l 1
 519.321289062 1164.94726562 l 1
 491.634765625 1123.31347656 l 1
 310.545898438 851 l 1
 491.634765625 578.686523438 l 1
 519.321289062 537.052734375 l 1
 477.686523438 509.365234375 l 1
190.454101562 851 m 1
 101 985.516601562 l 1
 101 716.483398438 l 1
 190.454101562 851 l 1
EndSplineSet
EndChar

StartChar: NameMe.406
Encoding: 406 -1 188
Width: 1500
VWidth: 0
Flags: W
HStem: 501 100<100 220.731 499 700> 801 100<100 297.41 402.76 502 602 700> 1101 100<602 800>
VStem: 299.5 100<901 1201> 502 100<901 1101> 700 100<601 801>
CounterMasks: 1 e0
LayerCount: 2
Back
SplineSet
150 851 m 5
 552 851 l 1053
150 551 m 21
 250.5 551 352.471679688 669.895507812 349.5 851 c 1037
349.5 1151 m 29
 349.5 851 l 5
 351 669.5 450 551 549 551 c 5
 750 551 l 29
 750 851 l 5
 552 851 l 29
 552 1151 l 5
 750 1151 l 1053
549 551 m 1053
EndSplineSet
Fore
SplineSet
349.5 1201 m 1
 399.5 1201 l 1
 399.5 1151 l 1
 399.5 901 l 1
 502 901 l 1
 502 1151 l 2
 502 1181.26464844 530.540039062 1201 552 1201 c 2
 750 1201 l 1
 800 1201 l 1
 800 1151 l 1
 800 1101 l 1
 750 1101 l 1
 602 1101 l 1
 602 901 l 1
 750 901 l 2
 771.459960938 901 800 881.264648438 800 851 c 2
 800 551 l 2
 800 529.540039062 780.264648438 501 750 501 c 2
 599 501 l 1
 549 501 l 1
 499 501 l 1
 499 507.733398438 l 1
 437.927734375 524.52734375 386.103515625 571.701171875 350.590820312 637.616210938 c 1
 305.473632812 554.265625 233.07421875 501 150 501 c 2
 100 501 l 1
 100 551 l 1
 100 601 l 1
 150 601 l 2
 202.948242188 601 283.290039062 667.135742188 297.41015625 801 c 1
 150 801 l 1
 100 801 l 1
 100 851 l 1
 100 901 l 1
 150 901 l 1
 299.5 901 l 1
 299.5 1151 l 1
 299.5 1201 l 1
 349.5 1201 l 1
599 601 m 1
 700 601 l 1
 700 801 l 1
 602 801 l 1
 552 801 l 1
 402.759765625 801 l 1
 419.65234375 666.306640625 498.09375 601 549 601 c 2
 599 601 l 1
EndSplineSet
EndChar

StartChar: NameMe.438
Encoding: 438 -1 189
Width: 1500
VWidth: 0
Flags: W
HStem: 501 100<100 221.011> 801 100<100 297.448 402.691 572.692> 1181 20G<299.5 399.5>
VStem: 299.5 100<901 1201>
LayerCount: 2
Back
SplineSet
750 551 m 25
 537 1151 l 1049
150 851 m 1
 537 851 l 1025
150 551 m 16
 203 551 249.75 579.25 290.25 635.75 c 128
 330.75 692.25 350.5 764 349.5 851 c 1024
349.5 1151 m 25
 349.5 851 l 2
 350.5 764 371 692.25 411 635.75 c 128
 451 579.25 493.5 551 550.5 551 c 9
 750 1151 l 1025
EndSplineSet
Fore
SplineSet
349.5 1201 m 1
 399.5 1201 l 1
 399.5 1151 l 1
 399.5 901 l 1
 537 901 l 1
 572.692382812 901 l 1
 489.880859375 1134.27246094 l 1
 473.153320312 1181.39160156 l 1
 520.272460938 1198.11914062 l 1
 567.391601562 1214.84667969 l 1
 584.119140625 1167.72753906 l 1
 645.4375 994.998046875 l 1
 702.553710938 1166.77539062 l 1
 718.330078125 1214.22167969 l 1
 765.775390625 1198.44628906 l 1
 813.221679688 1182.66992188 l 1
 797.446289062 1135.22460938 l 1
 699.853515625 841.713867188 l 1
 797.119140625 567.727539062 l 1
 813.846679688 520.608398438 l 1
 766.727539062 503.880859375 l 1
 719.608398438 487.153320312 l 1
 702.880859375 534.272460938 l 1
 648.533203125 687.365234375 l 1
 597.946289062 535.224609375 l 2
 591.94140625 517.166015625 572.708984375 501 550.5 501 c 0
 473.795898438 501 415.231445312 543.240234375 370.19140625 606.859375 c 0
 363.141601562 616.817382812 356.643554688 627.126953125 350.686523438 637.776367188 c 1
 344.666992188 627.032226562 338.071289062 616.641601562 330.887695312 606.620117188 c 0
 284.543945312 541.966796875 222.872070312 501 150 501 c 2
 100 501 l 1
 100 551 l 1
 100 601 l 1
 150 601 l 2
 183.127929688 601 214.956054688 616.533203125 249.612304688 664.879882812 c 0
 275.423828125 700.888671875 291.899414062 745.461914062 297.448242188 801 c 1
 150 801 l 1
 100 801 l 1
 100 851 l 1
 100 901 l 1
 150 901 l 1
 299.5 901 l 1
 299.5 1151 l 1
 299.5 1201 l 1
 349.5 1201 l 1
402.69140625 801 m 1
 409.349609375 745.09765625 426.125976562 700.916992188 451.80859375 664.640625 c 0
 475.549804688 631.106445312 496.603515625 614.479492188 516.385742188 606.873046875 c 1
 580.93359375 801 l 1
 537 801 l 1
 402.69140625 801 l 1
587 819.245117188 m 1
 594.1171875 840.649414062 l 1
 587 860.698242188 l 1
 587 851 l 1
 587 819.245117188 l 1
EndSplineSet
EndChar

StartChar: NameMe.198
Encoding: 198 -1 196
Width: 1500
VWidth: 0
Flags: W
HStem: 501 100<599 800> 702 100<100 299.5 400.311 499> 1101 100<100 216.64 599 800>
VStem: 299.5 100<501 702 802 1000.68> 499 100<601 702 802 1084.71>
AnchorPoint: "Above" 0 500 mark 0
LayerCount: 2
Back
SplineSet
750 551 m 29
 549 551 l 29
 549 1151 l 1053
549 752 m 5
 150 752 l 1053
349.5 851 m 21
 346.52734375 1032.10449219 448.5 1151 549 1151 c 13
 750 1151 l 1053
150 1151 m 21
 249 1151 348 1032.5 349.5 851 c 5
 349.5 551 l 1053
EndSplineSet
Fore
SplineSet
100 1151 m 1
 100 1201 l 1
 150 1201 l 2
 232.671875 1201 303.551757812 1147.64257812 348.409179688 1064.38378906 c 1
 384.200195312 1130.50585938 437.161132812 1177.69433594 499 1194.37695312 c 1
 499 1201 l 1
 549 1201 l 1
 599 1201 l 1
 750 1201 l 1
 800 1201 l 1
 800 1151 l 1
 800 1101 l 1
 750 1101 l 1
 599 1101 l 1
 599 802 l 1
 599 752 l 1
 599 702 l 1
 599 601 l 1
 750 601 l 1
 800 601 l 1
 800 551 l 1
 800 501 l 1
 750 501 l 1
 549 501 l 2
 518.735351562 501 499 529.540039062 499 551 c 2
 499 702 l 1
 399.5 702 l 1
 399.5 551 l 1
 399.5 501 l 1
 349.5 501 l 1
 299.5 501 l 1
 299.5 551 l 1
 299.5 702 l 1
 150 702 l 1
 100 702 l 1
 100 752 l 1
 100 802 l 1
 150 802 l 1
 299.5 802 l 1
 299.5 850.600585938 l 2
 299.479492188 851.918945312 299.463867188 853.234375 299.454101562 854.549804688 c 0
 296.748046875 1020.70410156 206.447265625 1101 150 1101 c 2
 100 1101 l 1
 100 1151 l 1
399.49609375 851.638671875 m 2
 400.310546875 802 l 1
 499 802 l 1
 499 1084.70996094 l 1
 448.920898438 1053.50292969 398.436523438 977.35546875 399.44921875 855.383789062 c 0
 399.46875 854.13671875 399.485351562 852.888671875 399.49609375 851.638671875 c 2
EndSplineSet
EndChar

StartChar: NameMe.230
Encoding: 230 -1 197
Width: 1500
VWidth: 0
Flags: W
HStem: 501 100<599 700> 702 100<100 299.5 400.311 499> 1101 100<100 216.64>
VStem: 299.5 100<501 702 802 1000.68> 499 100<601 702 802 1084.71 1183.13 1201> 700 100<601 1201>
LayerCount: 2
Back
SplineSet
549 1151 m 29
 549 551 l 29
 750 551 l 29
 750 1151 l 1053
549 752 m 5
 150 752 l 1053
349.5 851 m 21
 346.52734375 1032.10449219 448.5 1151 549 1151 c 1037
150 1151 m 21
 249 1151 348 1032.5 349.5 851 c 5
 349.5 551 l 1053
EndSplineSet
Fore
SplineSet
100 1151 m 1
 100 1201 l 1
 150 1201 l 2
 232.671875 1201 303.551757812 1147.64257812 348.409179688 1064.38378906 c 1
 384.200195312 1130.50585938 437.161132812 1177.69433594 499 1194.37695312 c 1
 499 1201 l 1
 549 1201 l 1
 599 1201 l 1
 599 1151 l 1
 599 1101 l 1
 599 802 l 1
 599 752 l 1
 599 702 l 1
 599 601 l 1
 700 601 l 1
 700 1151 l 1
 700 1201 l 1
 750 1201 l 1
 800 1201 l 1
 800 1151 l 1
 800 551 l 2
 800 529.540039062 780.264648438 501 750 501 c 2
 549 501 l 2
 527.540039062 501 499 520.735351562 499 551 c 2
 499 702 l 1
 399.5 702 l 1
 399.5 551 l 1
 399.5 501 l 1
 349.5 501 l 1
 299.5 501 l 1
 299.5 551 l 1
 299.5 702 l 1
 150 702 l 1
 100 702 l 1
 100 752 l 1
 100 802 l 1
 150 802 l 1
 299.5 802 l 1
 299.5 850.600585938 l 2
 299.479492188 851.918945312 299.463867188 853.234375 299.454101562 854.549804688 c 0
 296.748046875 1020.70410156 206.447265625 1101 150 1101 c 2
 100 1101 l 1
 100 1151 l 1
399.49609375 851.638671875 m 2
 400.310546875 802 l 1
 499 802 l 1
 499 1084.70996094 l 1
 448.920898438 1053.50292969 398.436523438 977.35546875 399.44921875 855.383789062 c 0
 399.46875 854.13671875 399.485351562 852.888671875 399.49609375 851.638671875 c 2
EndSplineSet
EndChar

StartChar: NameMe.262
Encoding: 262 -1 198
Width: 1500
VWidth: 0
Flags: W
HStem: 501 100<599 800> 801 100<100 296.24 401.59 499 599 800> 1101 100<100 216.64 599 800>
VStem: 299.5 100<501 801> 499 100<601 801 901 1084.71>
CounterMasks: 1 e0
LayerCount: 2
Back
SplineSet
750 551 m 29
 549 551 l 29
 549 1151 l 1053
750 851 m 5
 150 851 l 1029
349.5 851 m 21
 346.52734375 1032.10449219 448.5 1151 549 1151 c 13
 750 1151 l 1053
150 1151 m 21
 249 1151 348 1032.5 349.5 851 c 5
 349.5 551 l 1053
EndSplineSet
Fore
SplineSet
100 1151 m 1
 100 1201 l 1
 150 1201 l 2
 232.671875 1201 303.551757812 1147.64257812 348.409179688 1064.38378906 c 1
 384.200195312 1130.50585938 437.161132812 1177.69433594 499 1194.37695312 c 1
 499 1201 l 1
 549 1201 l 1
 599 1201 l 1
 750 1201 l 1
 800 1201 l 1
 800 1151 l 1
 800 1101 l 1
 750 1101 l 1
 599 1101 l 1
 599 901 l 1
 750 901 l 1
 800 901 l 1
 800 851 l 1
 800 801 l 1
 750 801 l 1
 599 801 l 1
 599 601 l 1
 750 601 l 1
 800 601 l 1
 800 551 l 1
 800 501 l 1
 750 501 l 1
 549 501 l 2
 518.735351562 501 499 529.540039062 499 551 c 2
 499 801 l 1
 399.5 801 l 1
 399.5 551 l 1
 399.5 501 l 1
 349.5 501 l 1
 299.5 501 l 1
 299.5 551 l 1
 299.5 801 l 1
 150 801 l 1
 100 801 l 1
 100 851 l 1
 100 901 l 1
 150 901 l 1
 296.240234375 901 l 1
 279.34765625 1035.69335938 200.90625 1101 150 1101 c 2
 100 1101 l 1
 100 1151 l 1
401.58984375 901 m 1
 499 901 l 1
 499 1084.70996094 l 1
 455.487304688 1057.59472656 411.66796875 996.55078125 401.58984375 901 c 1
EndSplineSet
EndChar

StartChar: NameMe.294
Encoding: 294 -1 199
Width: 1500
VWidth: 0
Flags: W
HStem: 501 21G<299.5 399.5> 801 100<100 296.24 401.59 523.704> 1101 100<100 216.64 478.269 599>
VStem: 299.5 100<501 801>
LayerCount: 2
Back
SplineSet
750 1151 m 1
 550.5 851 l 25
 750 551 l 1025
550.5 851 m 1
 150 851 l 1025
349.5 851 m 17
 346.52734375 1032.10449219 448.5 1151 549 1151 c 1033
150 1151 m 17
 249 1151 348 1032.5 349.5 851 c 1
 349.5 551 l 1049
EndSplineSet
Fore
SplineSet
100 1151 m 1
 100 1201 l 1
 150 1201 l 2
 232.671875 1201 303.551757812 1147.64257812 348.409179688 1064.38378906 c 1
 393.525390625 1147.734375 465.92578125 1201 549 1201 c 2
 599 1201 l 1
 599 1151 l 1
 599 1101 l 1
 549 1101 l 2
 496.051757812 1101 415.709960938 1034.86425781 401.58984375 901 c 1
 523.704101562 901 l 1
 708.365234375 1178.68652344 l 1
 736.052734375 1220.32128906 l 1
 777.686523438 1192.63476562 l 1
 819.321289062 1164.94726562 l 1
 791.634765625 1123.31347656 l 1
 610.545898438 851 l 1
 791.634765625 578.686523438 l 1
 819.321289062 537.052734375 l 1
 777.686523438 509.365234375 l 1
 736.052734375 481.678710938 l 1
 708.365234375 523.313476562 l 1
 523.704101562 801 l 1
 399.5 801 l 1
 399.5 551 l 1
 399.5 501 l 1
 349.5 501 l 1
 299.5 501 l 1
 299.5 551 l 1
 299.5 801 l 1
 150 801 l 1
 100 801 l 1
 100 851 l 1
 100 901 l 1
 150 901 l 1
 296.240234375 901 l 1
 279.34765625 1035.69335938 200.90625 1101 150 1101 c 2
 100 1101 l 1
 100 1151 l 1
EndSplineSet
EndChar

StartChar: NameMe.326
Encoding: 326 -1 200
Width: 1500
VWidth: 0
Flags: W
HStem: 501 100<596.257 700> 801 100<100 296.24 401.69 497.281> 1101 100<100 219.702 598.821 700>
VStem: 299.5 100<501 801> 497.794 99.7061<601 801 901 1085.52> 700 100<601 1101>
CounterMasks: 1 e0
LayerCount: 2
Back
SplineSet
547.5 851 m 1053
547.5 851 m 5
 150 851 l 1029
349.5 851 m 21
 346.52734375 1032.10449219 448.5 1151 549 1151 c 13
 750 1151 l 29
 750 551 l 29
 546 551 l 29
 549 1136 l 1053
150 1151 m 21
 249 1151 348 1032.5 349.5 851 c 5
 349.5 551 l 1053
EndSplineSet
Fore
SplineSet
100 1151 m 1
 100 1201 l 1
 150 1201 l 2
 232.626953125 1201 303.474609375 1147.70019531 348.3359375 1064.51953125 c 1
 387.79296875 1137.0625 448.200195312 1186.41796875 518.610351562 1198.41113281 c 0
 528.618164062 1200.11523438 538.783203125 1201 549 1201 c 2
 750 1201 l 2
 780.264648438 1201 800 1172.45996094 800 1151 c 2
 800 551 l 2
 800 520.735351562 771.459960938 501 750 501 c 2
 546 501 l 2
 515.818359375 501 495.887695312 529.322265625 496.000976562 551.256835938 c 2
 497.28125 801 l 1
 399.5 801 l 1
 399.5 551 l 1
 399.5 501 l 1
 349.5 501 l 1
 299.5 501 l 1
 299.5 551 l 1
 299.5 801 l 1
 150 801 l 1
 100 801 l 1
 100 851 l 1
 100 901 l 1
 150 901 l 1
 296.240234375 901 l 1
 279.34765625 1035.69335938 200.90625 1101 150 1101 c 2
 100 1101 l 1
 100 1151 l 1
401.690429688 901 m 1
 497.5 901 l 1
 497.793945312 901 l 1
 498.740234375 1085.51855469 l 1
 455.34375 1058.89257812 411.916992188 994.92578125 401.690429688 901 c 1
597.282226562 801 m 1
 596.256835938 601 l 1
 700 601 l 1
 700 1101 l 1
 598.821289062 1101 l 1
 597.5 843.372070312 l 1
 597.5 801 l 1
 597.282226562 801 l 1
EndSplineSet
EndChar

StartChar: NameMe.196
Encoding: 196 -1 201
Width: 1500
VWidth: 0
Flags: W
HStem: 501 100<500 700> 801 100<200 400> 1101 100<200 400 500 700>
VStem: 100 100<501 801 901 1101> 400 100<601 801 901 1101> 700 100<601 1101>
CounterMasks: 1 fc
LayerCount: 2
Back
SplineSet
163.5 851 m 29
 435 851 l 1053
150 551 m 29
 150 1151 l 29
 450 1151 l 29
 450 551 l 29
 750 551 l 29
 750 1151 l 29
 450 1151 l 1053
EndSplineSet
Fore
SplineSet
500 1101 m 1
 500 601 l 1
 700 601 l 1
 700 1101 l 1
 500 1101 l 1
450 1201 m 1
 750 1201 l 2
 771.459960938 1201 800 1181.26464844 800 1151 c 2
 800 551 l 2
 800 529.540039062 780.264648438 501 750 501 c 2
 450 501 l 2
 428.540039062 501 400 520.735351562 400 551 c 2
 400 801 l 1
 200 801 l 1
 200 501 l 1
 100 501 l 1
 100 1151 l 2
 100 1181.26464844 128.540039062 1201 150 1201 c 2
 450 1201 l 1
400 901 m 1
 400 1101 l 1
 200 1101 l 1
 200 901 l 1
 400 901 l 1
EndSplineSet
EndChar

StartChar: NameMe.228
Encoding: 228 -1 202
Width: 1500
VWidth: 0
Flags: W
HStem: 501 21G<100 200 400 500 700 800> 801 100<200 400> 1101 100<200 400 500 700>
VStem: 100 100<501 801 901 1101> 400 100<501 801 901 1101> 700 100<501 1101>
CounterMasks: 1 1c
LayerCount: 2
Back
SplineSet
163.5 851 m 29
 435 851 l 1053
150 551 m 29
 150 1151 l 29
 450 1151 l 29
 450 551 l 1045
750 551 m 13
 750 1151 l 29
 450 1151 l 1053
EndSplineSet
Fore
SplineSet
750 501 m 1
 700 501 l 1
 700 551 l 1
 700 1101 l 1
 500 1101 l 1
 500 551 l 1
 500 501 l 1
 450 501 l 1
 400 501 l 1
 400 551 l 1
 400 801 l 1
 200 801 l 1
 200 551 l 1
 200 501 l 1
 150 501 l 1
 100 501 l 1
 100 551 l 1
 100 1151 l 2
 100 1181.26464844 128.540039062 1201 150 1201 c 2
 400 1201 l 1
 450 1201 l 1
 750 1201 l 2
 771.459960938 1201 800 1181.26464844 800 1151 c 2
 800 551 l 1
 800 501 l 1
 750 501 l 1
400 1101 m 1
 200 1101 l 1
 200 901 l 1
 400 901 l 1
 400 1101 l 1
EndSplineSet
EndChar

StartChar: NameMe.260
Encoding: 260 -1 203
Width: 1500
VWidth: 0
Flags: W
HStem: 501 100<500 700> 801 100<200 400 500 700> 1101 100<200 400 500 700>
VStem: 100 100<501 801 901 1101> 400 100<601 801 901 1101> 700 100<601 801 901 1101>
CounterMasks: 1 fc
LayerCount: 2
Back
SplineSet
163.5 851 m 5
 750 851 l 1053
450 1151 m 29
 750 1151 l 29
 750 551 l 29
 450 551 l 29
 450 1151 l 29
 150 1151 l 29
 150 551 l 1053
EndSplineSet
Fore
SplineSet
400 1201 m 1
 450 1201 l 1
 750 1201 l 2
 780.264648438 1201 800 1172.45996094 800 1151 c 2
 800 901 l 1
 800 851 l 1
 800 801 l 1
 800 551 l 2
 800 520.735351562 771.459960938 501 750 501 c 2
 450 501 l 2
 419.735351562 501 400 529.540039062 400 551 c 2
 400 801 l 1
 200 801 l 1
 200 501 l 1
 100 501 l 1
 100 1151 l 2
 100 1172.45996094 119.735351562 1201 150 1201 c 2
 400 1201 l 1
500 801 m 1
 500 601 l 1
 700 601 l 1
 700 801 l 1
 500 801 l 1
400 901 m 1
 400 1101 l 1
 200 1101 l 1
 200 901 l 1
 400 901 l 1
500 901 m 1
 700 901 l 1
 700 1101 l 1
 500 1101 l 1
 500 901 l 1
EndSplineSet
EndChar

StartChar: NameMe.138
Encoding: 138 -1 204
Width: 0
VWidth: 0
Flags: W
HStem: 150.011 99.9781<406.919 798.944> 379 20G<100 200>
VStem: 100 100<-100 -4.90839 122.231 399>
AnchorPoint: "Above" 0 500 mark 0
LayerCount: 2
Back
SplineSet
150 349 m 29
 150 -100 l 21
 194.350656703 174.156777133 413.260656272 207.041306865 750 200 c 1028
EndSplineSet
Fore
SplineSet
150 399 m 1
 200 399 l 1
 200 349 l 1
 200 122.230771454 l 1
 320.449512554 245.241595114 516.701654379 254.889258591 751.045284451 249.98907261 c 2
 801.034357061 248.943788159 l 1
 799.98907261 198.954715549 l 1
 798.943788159 148.965642939 l 1
 748.954715549 150.01092739 l 2
 408.114850171 157.137977224 237.013231506 124.781795295 199.358319807 -107.984752083 c 1
 100 -100 l 1
 100 349 l 1
 100 399 l 1
 150 399 l 1
EndSplineSet
EndChar

StartChar: NameMe.142
Encoding: 142 -1 206
Width: 0
VWidth: 345
Flags: HW
HStem: 0 100<100 319.96 427.128 800> 380 20G<400 500>
VStem: 400 100<179.351 400>
AnchorPoint: "Above" 0 500 mark 0
LayerCount: 2
Back
SplineSet
450 350 m 7
 450 181.239973451 399 50 169 50 c 1028
750 50 m 13
 150 50 l 1053
EndSplineSet
Fore
SplineSet
792.426757812 64.142578125 m 1
 735.857421875 7.57421875 l 1
 135.857421875 7.5732421875 l 1
 107.573242188 35.857421875 l 1
 164.141601562 92.42578125 l 1
 183.140655923 92.4258121729 l 1
 183.141601562 92.4267578125 l 1
 262.321289062 92.4267578125 320.034179688 107.842773438 362.365234375 135.33203125 c 1
 396.245117188 187.265625 407.573242188 257.716796875 407.573242188 335.858398438 c 1
 464.141601562 392.426757812 l 1
 492.426757812 364.142578125 l 1
 492.426757812 269.54296875 476.401367188 186.732421875 421.803710938 132.220703125 c 2
 382.009143664 92.4261358515 l 1
 509.386955151 92.4261358515 636.764766638 92.4267578125 764.142578125 92.4267578125 c 1
 792.426757812 64.142578125 l 1
EndSplineSet
EndChar

StartChar: NameMe.139
Encoding: 139 -1 207
Width: 0
VWidth: 345
Flags: W
HStem: 150 100<100 453.099> 380 20G<700 800>
VStem: 700 100<-100 0.872558 115.552 400>
AnchorPoint: "Above" 0 500 mark 0
LayerCount: 2
Back
SplineSet
150 200 m 23
 448.44921875 200 750 136.956054688 750 -100 c 12
 750 350 l 1053
EndSplineSet
Fore
SplineSet
100 200 m 1
 100 250 l 1
 150 250 l 2
 355.773703305 250 572.056086199 223.869373998 700 115.552498189 c 1
 700 350 l 1
 700 400 l 1
 750 400 l 1
 800 400 l 1
 800 350 l 1
 800 8 l 1
 800 -100 l 2
 799 -100 700 -101 700 -100 c 0
 700 -68.7784189936 693.805783933 -43.1066406809 682.917935773 -20.6041310771 c 0
 625.486162876 98.0932462415 402.577486087 150 150 150 c 2
 100 150 l 1
 100 200 l 1
EndSplineSet
EndChar

StartChar: NameMe.140
Encoding: 140 -1 208
Width: 0
VWidth: 345
Flags: HW
AnchorPoint: "Above" 0 500 mark 0
LayerCount: 2
Back
SplineSet
150 50 m 21
 201.32614244 116.235730587 247.214254742 209.291256134 250 350 c 13
 750 350 l 1053
EndSplineSet
Fore
SplineSet
135.857421875 7.5732421875 m 1
 107.573242188 35.857421875 l 1
 158.899414062 102.09375 204.787109375 195.149414062 207.573242188 335.857421875 c 1
 264.141601562 392.42578125 l 1
 764.142578125 392.426757812 l 1
 792.426757812 364.141601562 l 1
 735.857421875 307.573242188 l 1
 288.801757812 307.573242188 l 1
 276.540039062 198.0390625 236.603515625 121.15234375 192.42578125 64.1416015625 c 1
 135.857421875 7.5732421875 l 1
EndSplineSet
EndChar

StartChar: NameMe.141
Encoding: 141 -1 209
Width: 0
VWidth: 345
Flags: HW
AnchorPoint: "Above" 0 500 mark 0
LayerCount: 2
Back
SplineSet
150 349 m 29
 750 350 l 21
 716.080012864 248.695382465 714.593623094 148.63821349 750 50 c 1037
EndSplineSet
Fore
SplineSet
107.57421875 334.858398438 m 1
 164.142578125 391.426757812 l 1
 764.142578125 392.426757812 l 1
 792.426757812 364.141601562 l 1
 758.505859375 262.837890625 757.020507812 162.780273438 792.426757812 64.142578125 c 1
 735.857421875 7.57421875 l 1
 707.573242188 35.8583984375 l 1
 675.474609375 125.284179688 673.634765625 215.501953125 698.923828125 307.51171875 c 1
 135.858398438 306.57421875 l 1
 107.57421875 334.858398438 l 1
EndSplineSet
EndChar

StartChar: NameMe.355
Encoding: 355 -1 210
Width: 1500
VWidth: 0
LayerCount: 2
Back
SplineSet
681 850 m 25
 150 850 l 1025
150 1150 m 25
 150 550 l 1
 649.5 550 l 1
 652.5 649 674.5 757 715.5 874 c 128
 756.5 991 801.5 1082 850.5 1147 c 1024
EndSplineSet
EndChar

StartChar: NameMe.356
Encoding: 356 -1 211
Width: 1500
VWidth: 0
LayerCount: 2
Back
SplineSet
219 850 m 5
 750 850 l 1029
750 550 m 5
 750 1150 l 5
 250.5 1150 l 5
 247.5 1051 225.5 943 184.5 826 c 132
 143.5 709 98.5 618 49.5 553 c 1028
EndSplineSet
EndChar

StartChar: NameMe.371
Encoding: 371 -1 212
Width: 1500
VWidth: 0
LayerCount: 2
Back
SplineSet
150 1150 m 29
 150 550 l 5
 649.5 550 l 5
 652.5 649 674.5 757 715.5 874 c 4
 756.5 991 801.5 1082 850.5 1147 c 1028
EndSplineSet
EndChar

StartChar: NameMe.372
Encoding: 372 -1 213
Width: 1500
VWidth: 0
LayerCount: 2
Back
SplineSet
750 550 m 1
 750 1150 l 1
 250.5 1150 l 1
 247.5 1051 225.5 943 184.5 826 c 0
 143.5 709 98.5 618 49.5 553 c 1024
EndSplineSet
EndChar

StartChar: ebu.iso
Encoding: 202 -1 214
Width: 900
VWidth: 0
Flags: HW
LayerCount: 2
Back
SplineSet
750 850 m 29
 159 850 l 1053
150 1150 m 29
 150 550 l 1053
EndSplineSet
Fore
SplineSet
150 1200 m 1
 200 1200 l 1
 200 1150 l 1
 200 900 l 1
 750 900 l 1
 800 900 l 1
 800 850 l 1
 800 800 l 1
 750 800 l 1
 200 800 l 1
 200 550 l 1
 200 500 l 1
 150 500 l 1
 100 500 l 1
 100 550 l 1
 100 1150 l 1
 100 1200 l 1
 150 1200 l 1
EndSplineSet
Ligature2: "sv subtable" slakabu ebu
EndChar

StartChar: obu.iso
Encoding: 203 -1 215
Width: 900
VWidth: 0
Flags: HW
LayerCount: 2
Back
SplineSet
750 1150 m 29
 750 550 l 1053
150 850 m 29
 748 850 l 1053
EndSplineSet
Fore
SplineSet
100 850 m 1
 100 900 l 1
 150 900 l 1
 700 900 l 1
 700 1150 l 1
 700 1200 l 1
 750 1200 l 1
 800 1200 l 1
 800 1150 l 1
 800 550 l 1
 800 500 l 1
 750 500 l 1
 700 500 l 1
 700 550 l 1
 700 800 l 1
 150 800 l 1
 100 800 l 1
 100 850 l 1
EndSplineSet
Ligature2: "sv subtable" slakabu obu
EndChar

StartChar: ibu.iso
Encoding: 204 -1 216
Width: 900
VWidth: 0
Flags: HW
LayerCount: 2
Back
SplineSet
150 550 m 25
 150 1150 l 25
 750 1150 l 1049
EndSplineSet
Fore
SplineSet
150 500 m 1
 100 500 l 1
 100 550 l 1
 100 1150 l 2
 100 1180.26507571 128.540191335 1200 150 1200 c 2
 750 1200 l 1
 800 1200 l 1
 800 1150 l 1
 800 1100 l 1
 750 1100 l 1
 200 1100 l 1
 200 550 l 1
 200 500 l 1
 150 500 l 1
EndSplineSet
Ligature2: "sv subtable" slakabu ibu
EndChar

StartChar: ubu.iso
Encoding: 205 -1 217
Width: 900
VWidth: 0
Flags: HW
LayerCount: 2
Back
SplineSet
150 1150 m 29
 750 1150 l 29
 750 550 l 1053
EndSplineSet
Fore
SplineSet
100 1150 m 1
 100 1200 l 1
 150 1200 l 1
 750 1200 l 2
 780.265075711 1200 800 1171.45980867 800 1150 c 2
 800 550 l 1
 800 500 l 1
 750 500 l 1
 700 500 l 1
 700 550 l 1
 700 1100 l 1
 150 1100 l 1
 100 1100 l 1
 100 1150 l 1
EndSplineSet
Ligature2: "sv subtable" slakabu ubu
EndChar

StartChar: abu.iso
Encoding: 206 -1 218
Width: 900
VWidth: 0
Flags: HW
LayerCount: 2
Back
SplineSet
150 549 m 29
 750 550 l 1053
450 1150 m 29
 450 550 l 1053
EndSplineSet
Fore
SplineSet
450 1200 m 1
 500 1200 l 1
 500 1150 l 1
 500 599.583402778 l 1
 749.916666782 599.999930556 l 1
 799.916597338 600.083263773 l 1
 799.999930556 550.083333218 l 1
 800.083263773 500.083402662 l 1
 750.083333218 500.000069444 l 1
 150.083333218 499.000069444 l 1
 100.083402662 498.916736227 l 1
 100.000069444 548.916666782 l 1
 99.9167362267 598.916597338 l 1
 149.916666782 598.999930556 l 1
 400 599.416736111 l 1
 400 1150 l 1
 400 1200 l 1
 450 1200 l 1
EndSplineSet
Ligature2: "sv subtable" slakabu abu
EndChar

StartChar: ybu.iso
Encoding: 207 -1 219
Width: 900
VWidth: 0
Flags: HW
LayerCount: 2
Back
SplineSet
150 850 m 29
 750 850 l 1053
450 1150 m 29
 450 550 l 1053
EndSplineSet
Fore
SplineSet
450 1200 m 1
 500 1200 l 1
 500 1150 l 1
 500 900 l 1
 750 900 l 1
 800 900 l 1
 800 850 l 1
 800 800 l 1
 750 800 l 1
 500 800 l 1
 500 550 l 1
 500 500 l 1
 450 500 l 1
 400 500 l 1
 400 550 l 1
 400 800 l 1
 150 800 l 1
 100 800 l 1
 100 850 l 1
 100 900 l 1
 150 900 l 1
 400 900 l 1
 400 1150 l 1
 400 1200 l 1
 450 1200 l 1
EndSplineSet
Ligature2: "sv subtable" slakabu ybu
EndChar

StartChar: eibu.iso
Encoding: 218 -1 220
Width: 900
VWidth: 0
Flags: HW
LayerCount: 2
Back
SplineSet
150 549 m 29
 150 1150 l 29
 750 1150 l 1053
750 850 m 29
 150 850 l 1053
EndSplineSet
Fore
SplineSet
800 850 m 1
 800 800 l 1
 750 800 l 1
 200 800 l 1
 200 549 l 1
 200 499 l 1
 150 499 l 1
 100 499 l 1
 100 549 l 1
 100 800 l 1
 100 850 l 1
 100 900 l 1
 100 1150 l 2
 100 1180.26507571 128.540191335 1200 150 1200 c 2
 750 1200 l 1
 800 1200 l 1
 800 1150 l 1
 800 1100 l 1
 750 1100 l 1
 200 1100 l 1
 200 900 l 1
 750 900 l 1
 800 900 l 1
 800 850 l 1
EndSplineSet
Ligature2: "sv subtable" slakabu eibu
EndChar

StartChar: oibu.iso
Encoding: 219 -1 221
Width: 900
VWidth: 0
Flags: HW
LayerCount: 2
Back
SplineSet
150 1150 m 29
 750 1150 l 29
 750 550 l 1053
150 850 m 29
 750 850 l 1053
EndSplineSet
Fore
SplineSet
100 850 m 1
 100 900 l 1
 150 900 l 1
 700 900 l 1
 700 1100 l 1
 150 1100 l 1
 100 1100 l 1
 100 1150 l 1
 100 1200 l 1
 150 1200 l 1
 750 1200 l 2
 780.265075711 1200 800 1171.45980867 800 1150 c 2
 800 900 l 1
 800 850 l 1
 800 800 l 1
 800 550 l 1
 800 500 l 1
 750 500 l 1
 700 500 l 1
 700 550 l 1
 700 800 l 1
 150 800 l 1
 100 800 l 1
 100 850 l 1
EndSplineSet
Ligature2: "sv subtable" slakabu oibu
EndChar

StartChar: aibu.iso
Encoding: 220 -1 222
Width: 900
VWidth: 0
Flags: HW
LayerCount: 2
Back
SplineSet
150 549 m 29
 150 850 l 29
 750 850 l 1053
450 1150 m 29
 450 850 l 1053
EndSplineSet
Fore
SplineSet
450 1200 m 1
 500 1200 l 1
 500 1150 l 1
 500 900 l 1
 750 900 l 1
 800 900 l 1
 800 850 l 1
 800 800 l 1
 750 800 l 1
 500 800 l 1
 450 800 l 1
 400 800 l 1
 200 800 l 1
 200 549 l 1
 200 499 l 1
 150 499 l 1
 100 499 l 1
 100 549 l 1
 100 850 l 2
 100 880.265075711 128.540191335 900 150 900 c 2
 400 900 l 1
 400 1150 l 1
 400 1200 l 1
 450 1200 l 1
EndSplineSet
Ligature2: "sv subtable" slakabu aibu
EndChar

StartChar: aubu.iso
Encoding: 221 -1 223
Width: 900
VWidth: 0
Flags: HW
LayerCount: 2
Back
SplineSet
150 850 m 29
 750 850 l 29
 750 550 l 1053
450 1150 m 29
 450 850 l 1053
EndSplineSet
Fore
SplineSet
450 1200 m 1
 500 1200 l 1
 500 1150 l 1
 500 900 l 1
 750 900 l 2
 780.265075711 900 800 871.459808665 800 850 c 2
 800 550 l 1
 800 500 l 1
 750 500 l 1
 700 500 l 1
 700 550 l 1
 700 800 l 1
 500 800 l 1
 450 800 l 1
 400 800 l 1
 150 800 l 1
 100 800 l 1
 100 850 l 1
 100 900 l 1
 150 900 l 1
 400 900 l 1
 400 1150 l 1
 400 1200 l 1
 450 1200 l 1
EndSplineSet
Ligature2: "sv subtable" slakabu aubu
EndChar
